# Made in Blockbench 4.12.4
mtllib chemical_reactor.mtl

o elc1
v 0.5 2.5 0.5
v 0.5 3 0.5
v 0.3446699999999999 2.5 0.125
v 0.3446699999999999 3 0.125
v 0.125 2.5 0.34467000000000003
v 0.125 3 0.34467000000000003
v 0.125 2.5 0.6553300000000001
v 0.125 3 0.6553300000000001
v 0.34467000000000003 2.5 0.875
v 0.34467000000000003 3 0.875
v 0.6553300000000001 2.5 0.875
v 0.6553300000000001 3 0.875
v 0.875 2.5 0.65533
v 0.875 3 0.65533
v 0.875 2.5 0.3446699999999999
v 0.875 3 0.3446699999999999
v 0.65533 2.5 0.125
v 0.65533 3 0.125
vt 0.2265625 0.63660390625
vt 0.19910390625 0.6640625
vt 0.1796875 0.6171875
vt 0.828125 0.9375
vt 0.8671875 0.9375
vt 0.8671875 1
vt 0.828125 1
vt 0.63660390625 0.4921875
vt 0.6640625 0.51964609375
vt 0.6171875 0.5390625
vt 0.2265625 0.59777109375
vt 0.2265625 0.63660390625
vt 0.1796875 0.6171875
vt 0.828125 0.9375
vt 0.8671875 0.9375
vt 0.8671875 1
vt 0.828125 1
vt 0.6640625 0.51964609375
vt 0.6640625 0.55847890625
vt 0.6171875 0.5390625
vt 0.19910390625 0.5703125
vt 0.2265625 0.59777109375
vt 0.1796875 0.6171875
vt 0.828125 0.9375
vt 0.8671875 0.9375
vt 0.8671875 1
vt 0.828125 1
vt 0.6640625 0.55847890625
vt 0.63660390625 0.5859375
vt 0.6171875 0.5390625
vt 0.16027109375 0.5703125
vt 0.19910390625 0.5703125
vt 0.1796875 0.6171875
vt 0.828125 0.9375
vt 0.8671875 0.9375
vt 0.8671875 1
vt 0.828125 1
vt 0.63660390625 0.5859375
vt 0.59777109375 0.5859375
vt 0.6171875 0.5390625
vt 0.1328125 0.59777109375
vt 0.16027109375 0.5703125
vt 0.1796875 0.6171875
vt 0.828125 0.9375
vt 0.8671875 0.9375
vt 0.8671875 1
vt 0.828125 1
vt 0.59777109375 0.5859375
vt 0.5703125 0.55847890625
vt 0.6171875 0.5390625
vt 0.1328125 0.63660390625
vt 0.1328125 0.59777109375
vt 0.1796875 0.6171875
vt 0.828125 0.9375
vt 0.8671875 0.9375
vt 0.8671875 1
vt 0.828125 1
vt 0.5703125 0.55847890625
vt 0.5703125 0.51964609375
vt 0.6171875 0.5390625
vt 0.16027109375 0.6640625
vt 0.1328125 0.63660390625
vt 0.1796875 0.6171875
vt 0.828125 0.9375
vt 0.8671875 0.9375
vt 0.8671875 1
vt 0.828125 1
vt 0.5703125 0.51964609375
vt 0.59777109375 0.4921875
vt 0.6171875 0.5390625
vt 0.19910390625 0.6640625
vt 0.16027109375 0.6640625
vt 0.1796875 0.6171875
vt 0.828125 0.9375
vt 0.8671875 0.9375
vt 0.8671875 1
vt 0.828125 1
vt 0.59777109375 0.4921875
vt 0.63660390625 0.4921875
vt 0.6171875 0.5390625
vn 0 -1 0
vn -0.7071067811865477 0 -0.7071067811865475
vn 0 1 0
vn 0 -1 0
vn -1 0 1.2246467991473532e-16
vn 0 1 0
vn 0 -1 0
vn -0.7071067811865475 0 0.7071067811865477
vn 0 1 0
vn 0 -1 0
vn 1.2246467991473532e-16 0 1
vn 0 1 0
vn 0 -1 0
vn 0.7071067811865477 0 0.7071067811865475
vn 0 1 0
vn 0 -1 0
vn 1 0 -1.2246467991473532e-16
vn 0 1 0
vn 0 -1 0
vn 0.7071067811865475 0 -0.7071067811865477
vn 0 1 0
vn 0 -1 0
vn -1.2246467991473532e-16 0 -1
vn 0 1 0
usemtl m_5f7340e3-f0ff-a7a6-dbc3-d464562d94e5
f 5/1/1 3/2/1 1/3/1
f 3/4/2 5/5/2 6/6/2 4/7/2
f 4/8/3 6/9/3 2/10/3
f 7/11/4 5/12/4 1/13/4
f 5/14/5 7/15/5 8/16/5 6/17/5
f 6/18/6 8/19/6 2/20/6
f 9/21/7 7/22/7 1/23/7
f 7/24/8 9/25/8 10/26/8 8/27/8
f 8/28/9 10/29/9 2/30/9
f 11/31/10 9/32/10 1/33/10
f 9/34/11 11/35/11 12/36/11 10/37/11
f 10/38/12 12/39/12 2/40/12
f 13/41/13 11/42/13 1/43/13
f 11/44/14 13/45/14 14/46/14 12/47/14
f 12/48/15 14/49/15 2/50/15
f 15/51/16 13/52/16 1/53/16
f 13/54/17 15/55/17 16/56/17 14/57/17
f 14/58/18 16/59/18 2/60/18
f 17/61/19 15/62/19 1/63/19
f 15/64/20 17/65/20 18/66/20 16/67/20
f 16/68/21 18/69/21 2/70/21
f 3/71/22 17/72/22 1/73/22
f 17/74/23 3/75/23 4/76/23 18/77/23
f 18/78/24 4/79/24 2/80/24
o elc2
v 0.5 2.375 0.5
v 0.5 2.5 0.5
v 0.396446875 2.375 0.25
v 0.396446875 2.5 0.25
v 0.25 2.375 0.39644687500000003
v 0.25 2.5 0.39644687500000003
v 0.25 2.375 0.603553125
v 0.25 2.5 0.603553125
v 0.39644687500000003 2.375 0.75
v 0.39644687500000003 2.5 0.75
v 0.603553125 2.375 0.75
v 0.603553125 2.5 0.75
v 0.75 2.375 0.6035531249999999
v 0.75 2.5 0.6035531249999999
v 0.75 2.375 0.396446875
v 0.75 2.5 0.396446875
v 0.6035531249999999 2.375 0.25
v 0.6035531249999999 2.5 0.25
vt 0.5390625 0.8176320312500001
vt 0.52075703125 0.8359375
vt 0.5078125 0.8046875
vt 0.0390625 0.984375
vt 0.0625 0.984375
vt 0.0625 1
vt 0.0390625 1
vt 0.52075703125 0.7734375
vt 0.5390625 0.7917429687499999
vt 0.5078125 0.8046875
vt 0.5390625 0.7917429687499999
vt 0.5390625 0.8176320312500001
vt 0.5078125 0.8046875
vt 0.0390625 0.984375
vt 0.0625 0.984375
vt 0.0625 1
vt 0.0390625 1
vt 0.5390625 0.7917429687499999
vt 0.5390625 0.8176320312500001
vt 0.5078125 0.8046875
vt 0.52075703125 0.7734375
vt 0.5390625 0.7917429687499999
vt 0.5078125 0.8046875
vt 0.0390625 0.984375
vt 0.0625 0.984375
vt 0.0625 1
vt 0.0390625 1
vt 0.5390625 0.8176320312500001
vt 0.52075703125 0.8359375
vt 0.5078125 0.8046875
vt 0.49486796875 0.7734375
vt 0.52075703125 0.7734375
vt 0.5078125 0.8046875
vt 0.0390625 0.984375
vt 0.0625 0.984375
vt 0.0625 1
vt 0.0390625 1
vt 0.52075703125 0.8359375
vt 0.49486796875 0.8359375
vt 0.5078125 0.8046875
vt 0.4765625 0.7917429687499999
vt 0.49486796875 0.7734375
vt 0.5078125 0.8046875
vt 0.0390625 0.984375
vt 0.0625 0.984375
vt 0.0625 1
vt 0.0390625 1
vt 0.49486796875 0.8359375
vt 0.4765625 0.8176320312500001
vt 0.5078125 0.8046875
vt 0.4765625 0.8176320312500001
vt 0.4765625 0.7917429687499999
vt 0.5078125 0.8046875
vt 0.0390625 0.984375
vt 0.0625 0.984375
vt 0.0625 1
vt 0.0390625 1
vt 0.4765625 0.8176320312500001
vt 0.4765625 0.7917429687499999
vt 0.5078125 0.8046875
vt 0.49486796875 0.8359375
vt 0.4765625 0.8176320312500001
vt 0.5078125 0.8046875
vt 0.0390625 0.984375
vt 0.0625 0.984375
vt 0.0625 1
vt 0.0390625 1
vt 0.4765625 0.7917429687499999
vt 0.49486796875 0.7734375
vt 0.5078125 0.8046875
vt 0.52075703125 0.8359375
vt 0.49486796875 0.8359375
vt 0.5078125 0.8046875
vt 0.0390625 0.984375
vt 0.0625 0.984375
vt 0.0625 1
vt 0.0390625 1
vt 0.49486796875 0.7734375
vt 0.52075703125 0.7734375
vt 0.5078125 0.8046875
vn 0 -1 0
vn -0.7071067811865477 0 -0.7071067811865475
vn 0 1 0
vn 0 -1 0
vn -1 0 1.2246467991473532e-16
vn 0 1 0
vn 0 -1 0
vn -0.7071067811865475 0 0.7071067811865477
vn 0 1 0
vn 0 -1 0
vn 1.2246467991473532e-16 0 1
vn 0 1 0
vn 0 -1 0
vn 0.7071067811865477 0 0.7071067811865475
vn 0 1 0
vn 0 -1 0
vn 1 0 -1.2246467991473532e-16
vn 0 1 0
vn 0 -1 0
vn 0.7071067811865475 0 -0.7071067811865477
vn 0 1 0
vn 0 -1 0
vn -1.2246467991473532e-16 0 -1
vn 0 1 0
usemtl m_5f7340e3-f0ff-a7a6-dbc3-d464562d94e5
f 23/81/25 21/82/25 19/83/25
f 21/84/26 23/85/26 24/86/26 22/87/26
f 22/88/27 24/89/27 20/90/27
f 25/91/28 23/92/28 19/93/28
f 23/94/29 25/95/29 26/96/29 24/97/29
f 24/98/30 26/99/30 20/100/30
f 27/101/31 25/102/31 19/103/31
f 25/104/32 27/105/32 28/106/32 26/107/32
f 26/108/33 28/109/33 20/110/33
f 29/111/34 27/112/34 19/113/34
f 27/114/35 29/115/35 30/116/35 28/117/35
f 28/118/36 30/119/36 20/120/36
f 31/121/37 29/122/37 19/123/37
f 29/124/38 31/125/38 32/126/38 30/127/38
f 30/128/39 32/129/39 20/130/39
f 33/131/40 31/132/40 19/133/40
f 31/134/41 33/135/41 34/136/41 32/137/41
f 32/138/42 34/139/42 20/140/42
f 35/141/43 33/142/43 19/143/43
f 33/144/44 35/145/44 36/146/44 34/147/44
f 34/148/45 36/149/45 20/150/45
f 21/151/46 35/152/46 19/153/46
f 35/154/47 21/155/47 22/156/47 36/157/47
f 36/158/48 22/159/48 20/160/48
o kettlecover
v 0.5 1.625 0.5
v 0.5 2.5 0.5
v 0.2071068749999999 2.371859375 -0.20710687500000002
v 0.0857862499999999 2.0625 -0.5
v 0.2071068749999999 1.753140625 -0.20710687500000002
v -0.20710687500000002 2.371859375 0.20710687500000013
v -0.5 2.0625 0.08578625000000012
v -0.20710687500000002 1.753140625 0.20710687500000013
v -0.20710687500000002 2.371859375 0.7928931250000001
v -0.5 2.0625 0.91421375
v -0.20710687500000002 1.753140625 0.7928931250000001
v 0.20710687500000013 2.371859375 1.207106875
v 0.08578625000000012 2.0625 1.5
v 0.20710687500000013 1.753140625 1.207106875
v 0.7928931250000001 2.371859375 1.207106875
v 0.91421375 2.0625 1.5
v 0.7928931250000001 1.753140625 1.207106875
v 1.207106875 2.371859375 0.7928931249999999
v 1.5 2.0625 0.9142137499999998
v 1.207106875 1.753140625 0.7928931249999999
v 1.207106875 2.371859375 0.2071068749999999
v 1.5 2.0625 0.0857862499999999
v 1.207106875 1.753140625 0.2071068749999999
v 0.7928931249999999 2.371859375 -0.20710687500000002
v 0.9142137499999998 2.0625 -0.5
v 0.7928931249999999 1.753140625 -0.20710687500000002
vt 0.36559609375 0.41854921874999995
vt 0.315613359375 0.3650384375
vt 0.40625 0.33047664062500004
vt 0.82567421875 0.656736171875
vt 0.8408390625 0.6034846093749999
vt 0.928856171875 0.65803953125
vt 0.88791203125 0.6953125
vt 0.8095890625 0.787140390625
vt 0.79442421875 0.733888828125
vt 0.85666203125 0.6953125
vt 0.897606171875 0.73258546875
vt 0.503113359375 0.3615240625
vt 0.55309609375 0.30801328125000005
vt 0.59375 0.39608585937499996
vt 0.315613359375 0.3650384375
vt 0.31727671875 0.29183390625000005
vt 0.40625 0.33047664062500004
vt 0.75245078125 0.65625
vt 0.7372859375 0.6015625
vt 0.8408390625 0.6015625
vt 0.82567421875 0.65625
vt 0.7060359375 0.7890625
vt 0.72120078125 0.734375
vt 0.79442421875 0.734375
vt 0.8095890625 0.7890625
vt 0.50477671875 0.43472859374999995
vt 0.503113359375 0.3615240625
vt 0.59375 0.39608585937499996
vt 0.31727671875 0.29183390625000005
vt 0.36963828125 0.240648515625
vt 0.40625 0.33047664062500004
vt 0.69021296875 0.6953125
vt 0.649268828125 0.65803953125
vt 0.7372859375 0.6034846093749999
vt 0.75245078125 0.656736171875
vt 0.618018828125 0.73258546875
vt 0.65896296875 0.6953125
vt 0.72120078125 0.733888828125
vt 0.7060359375 0.787140390625
vt 0.55713828125 0.485913984375
vt 0.50477671875 0.43472859374999995
vt 0.59375 0.39608585937499996
vt 0.36963828125 0.240648515625
vt 0.44286171875 0.240648515625
vt 0.40625 0.33047664062500004
vt 0.75245078125 0.656736171875
vt 0.7372859375 0.6034846093749999
vt 0.8408390625 0.6034846093749999
vt 0.82567421875 0.656736171875
vt 0.7060359375 0.787140390625
vt 0.72120078125 0.733888828125
vt 0.79442421875 0.733888828125
vt 0.8095890625 0.787140390625
vt 0.63036171875 0.485913984375
vt 0.55713828125 0.485913984375
vt 0.59375 0.39608585937499996
vt 0.44286171875 0.240648515625
vt 0.49522328125 0.29183390625000005
vt 0.40625 0.33047664062500004
vt 0.82567421875 0.656736171875
vt 0.8408390625 0.6034846093749999
vt 0.928856171875 0.65803953125
vt 0.88791203125 0.6953125
vt 0.8095890625 0.787140390625
vt 0.79442421875 0.733888828125
vt 0.85666203125 0.6953125
vt 0.897606171875 0.73258546875
vt 0.68272328125 0.43472859374999995
vt 0.63036171875 0.485913984375
vt 0.59375 0.39608585937499996
vt 0.49522328125 0.29183390625000005
vt 0.496886640625 0.3650384375
vt 0.40625 0.33047664062500004
vt 0.75245078125 0.65625
vt 0.7372859375 0.6015625
vt 0.8408390625 0.6015625
vt 0.82567421875 0.65625
vt 0.7060359375 0.7890625
vt 0.72120078125 0.734375
vt 0.79442421875 0.734375
vt 0.8095890625 0.7890625
vt 0.684386640625 0.3615240625
vt 0.68272328125 0.43472859374999995
vt 0.59375 0.39608585937499996
vt 0.496886640625 0.3650384375
vt 0.44690390625 0.41854921874999995
vt 0.40625 0.33047664062500004
vt 0.69021296875 0.6953125
vt 0.649268828125 0.65803953125
vt 0.7372859375 0.6034846093749999
vt 0.75245078125 0.656736171875
vt 0.618018828125 0.73258546875
vt 0.65896296875 0.6953125
vt 0.72120078125 0.733888828125
vt 0.7060359375 0.787140390625
vt 0.63440390625 0.30801328125000005
vt 0.684386640625 0.3615240625
vt 0.59375 0.39608585937499996
vt 0.438743984375 0.421875
vt 0.36559609375 0.41854921874999995
vt 0.40625 0.33047664062500004
vt 0.75245078125 0.656736171875
vt 0.7372859375 0.6034846093749999
vt 0.8408390625 0.6034846093749999
vt 0.82567421875 0.656736171875
vt 0.7060359375 0.787140390625
vt 0.72120078125 0.733888828125
vt 0.79442421875 0.733888828125
vt 0.8095890625 0.787140390625
vt 0.561256015625 0.3046875
vt 0.63440390625 0.30801328125000005
vt 0.59375 0.39608585937499996
vn -0.12608699809905663 0.9839736469137459 -0.12608699809905657
vn -0.5134784797090819 0.6875170556075684 -0.5134784797090817
vn -0.513478479709082 -0.6875170556075684 -0.5134784797090817
vn -0.12608699809905663 -0.9839736469137459 -0.12608699809905657
vn -0.17831391984549086 0.983973651064568 2.183715711821981e-17
vn -0.726168495412471 0.6875167752647118 8.89299923548532e-17
vn -0.726168495412471 -0.6875167752647119 8.892999235485322e-17
vn -0.17831391984549086 -0.983973651064568 2.183715711821981e-17
vn -0.12608699809905657 0.9839736469137459 0.12608699809905663
vn -0.5134784797090817 0.6875170556075684 0.5134784797090819
vn -0.5134784797090817 -0.6875170556075684 0.513478479709082
vn -0.12608699809905657 -0.9839736469137459 0.12608699809905663
vn 2.183715711821981e-17 0.983973651064568 0.17831391984549086
vn 8.89299923548532e-17 0.6875167752647118 0.726168495412471
vn 8.892999235485322e-17 -0.6875167752647119 0.726168495412471
vn 2.183715711821981e-17 -0.983973651064568 0.17831391984549086
vn 0.12608699809905663 0.9839736469137459 0.12608699809905657
vn 0.5134784797090819 0.6875170556075684 0.5134784797090817
vn 0.513478479709082 -0.6875170556075684 0.5134784797090817
vn 0.12608699809905663 -0.9839736469137459 0.12608699809905657
vn 0.17831391984549086 0.983973651064568 -2.183715711821981e-17
vn 0.726168495412471 0.6875167752647118 -8.89299923548532e-17
vn 0.726168495412471 -0.6875167752647119 -8.892999235485322e-17
vn 0.17831391984549086 -0.983973651064568 -2.183715711821981e-17
vn 0.12608699809905657 0.9839736469137459 -0.12608699809905663
vn 0.5134784797090817 0.6875170556075684 -0.5134784797090819
vn 0.5134784797090817 -0.6875170556075684 -0.513478479709082
vn 0.12608699809905657 -0.9839736469137459 -0.12608699809905663
vn -2.183715711821981e-17 0.983973651064568 -0.17831391984549086
vn -8.89299923548532e-17 0.6875167752647118 -0.726168495412471
vn -8.892999235485322e-17 -0.6875167752647119 -0.726168495412471
vn -2.183715711821981e-17 -0.983973651064568 -0.17831391984549086
usemtl m_5f7340e3-f0ff-a7a6-dbc3-d464562d94e5
f 39/161/49 42/162/49 38/163/49
f 39/164/50 40/165/50 43/166/50 42/167/50
f 40/168/51 41/169/51 44/170/51 43/171/51
f 44/172/52 41/173/52 37/174/52
f 42/175/53 45/176/53 38/177/53
f 42/178/54 43/179/54 46/180/54 45/181/54
f 43/182/55 44/183/55 47/184/55 46/185/55
f 47/186/56 44/187/56 37/188/56
f 45/189/57 48/190/57 38/191/57
f 45/192/58 46/193/58 49/194/58 48/195/58
f 46/196/59 47/197/59 50/198/59 49/199/59
f 50/200/60 47/201/60 37/202/60
f 48/203/61 51/204/61 38/205/61
f 48/206/62 49/207/62 52/208/62 51/209/62
f 49/210/63 50/211/63 53/212/63 52/213/63
f 53/214/64 50/215/64 37/216/64
f 51/217/65 54/218/65 38/219/65
f 51/220/66 52/221/66 55/222/66 54/223/66
f 52/224/67 53/225/67 56/226/67 55/227/67
f 56/228/68 53/229/68 37/230/68
f 54/231/69 57/232/69 38/233/69
f 54/234/70 55/235/70 58/236/70 57/237/70
f 55/238/71 56/239/71 59/240/71 58/241/71
f 59/242/72 56/243/72 37/244/72
f 57/245/73 60/246/73 38/247/73
f 57/248/74 58/249/74 61/250/74 60/251/74
f 58/252/75 59/253/75 62/254/75 61/255/75
f 62/256/76 59/257/76 37/258/76
f 60/259/77 39/260/77 38/261/77
f 60/262/78 61/263/78 40/264/78 39/265/78
f 61/266/79 62/267/79 41/268/79 40/269/79
f 41/270/80 62/271/80 37/272/80
o mainkettletop
v 0.5 0.3125 0.5
v 0.5 2.0625 0.5
v -0.01776687500000007 0.3125 -0.75
v -0.01776687500000007 2.0625 -0.75
v -0.75 0.3125 -0.01776687499999985
v -0.75 2.0625 -0.01776687499999985
v -0.75 0.3125 1.017766875
v -0.75 2.0625 1.017766875
v -0.01776687499999985 0.3125 1.75
v -0.01776687499999985 2.0625 1.75
v 1.017766875 0.3125 1.75
v 1.017766875 2.0625 1.75
v 1.75 0.3125 1.017766875
v 1.75 2.0625 1.017766875
v 1.75 0.3125 -0.01776687500000007
v 1.75 2.0625 -0.01776687500000007
v 1.017766875 0.3125 -0.75
v 1.017766875 2.0625 -0.75
vt 0.5625 0.65847109375
vt 0.47097109375 0.75
vt 0.40625 0.59375
vt 0.8359375 0.2734375
vt 0.96875 0.2734375
vt 0.96875 0.4921875
vt 0.8359375 0.4921875
vt 0.22097109375 0.2109375
vt 0.3125 0.30246640625
vt 0.15625 0.3671875
vt 0.5625 0.52902890625
vt 0.5625 0.65847109375
vt 0.40625 0.59375
vt 0.8359375 0.2734375
vt 0.96875 0.2734375
vt 0.96875 0.4921875
vt 0.8359375 0.4921875
vt 0.3125 0.30246640625
vt 0.3125 0.43190859375
vt 0.15625 0.3671875
vt 0.47097109375 0.4375
vt 0.5625 0.52902890625
vt 0.40625 0.59375
vt 0.8359375 0.2734375
vt 0.96875 0.2734375
vt 0.96875 0.4921875
vt 0.8359375 0.4921875
vt 0.3125 0.43190859375
vt 0.22097109375 0.5234375
vt 0.15625 0.3671875
vt 0.34152890625 0.4375
vt 0.47097109375 0.4375
vt 0.40625 0.59375
vt 0.8359375 0.2734375
vt 0.96875 0.2734375
vt 0.96875 0.4921875
vt 0.8359375 0.4921875
vt 0.22097109375 0.5234375
vt 0.09152890625 0.5234375
vt 0.15625 0.3671875
vt 0.25 0.52902890625
vt 0.34152890625 0.4375
vt 0.40625 0.59375
vt 0.8359375 0.2734375
vt 0.96875 0.2734375
vt 0.96875 0.4921875
vt 0.8359375 0.4921875
vt 0.09152890625 0.5234375
vt 0 0.43190859375
vt 0.15625 0.3671875
vt 0.25 0.65847109375
vt 0.25 0.52902890625
vt 0.40625 0.59375
vt 0.8359375 0.2734375
vt 0.96875 0.2734375
vt 0.96875 0.4921875
vt 0.8359375 0.4921875
vt 0 0.43190859375
vt 0 0.30246640625
vt 0.15625 0.3671875
vt 0.34152890625 0.75
vt 0.25 0.65847109375
vt 0.40625 0.59375
vt 0.8359375 0.2734375
vt 0.96875 0.2734375
vt 0.96875 0.4921875
vt 0.8359375 0.4921875
vt 0 0.30246640625
vt 0.09152890625 0.2109375
vt 0.15625 0.3671875
vt 0.47097109375 0.75
vt 0.34152890625 0.75
vt 0.40625 0.59375
vt 0.6953125 0.2734375
vt 0.828125 0.2734375
vt 0.828125 0.4921875
vt 0.6953125 0.4921875
vt 0.09152890625 0.2109375
vt 0.22097109375 0.2109375
vt 0.15625 0.3671875
vn 0 -1 0
vn -0.7071067811865477 0 -0.7071067811865475
vn 0 1 0
vn 0 -1 0
vn -1 0 1.2246467991473532e-16
vn 0 1 0
vn 0 -1 0
vn -0.7071067811865475 0 0.7071067811865477
vn 0 1 0
vn 0 -1 0
vn 1.2246467991473532e-16 0 1
vn 0 1 0
vn 0 -1 0
vn 0.7071067811865477 0 0.7071067811865475
vn 0 1 0
vn 0 -1 0
vn 1 0 -1.2246467991473532e-16
vn 0 1 0
vn 0 -1 0
vn 0.7071067811865475 0 -0.7071067811865477
vn 0 1 0
vn 0 -1 0
vn -1.2246467991473532e-16 0 -1
vn 0 1 0
usemtl m_5f7340e3-f0ff-a7a6-dbc3-d464562d94e5
f 67/273/81 65/274/81 63/275/81
f 65/276/82 67/277/82 68/278/82 66/279/82
f 66/280/83 68/281/83 64/282/83
f 69/283/84 67/284/84 63/285/84
f 67/286/85 69/287/85 70/288/85 68/289/85
f 68/290/86 70/291/86 64/292/86
f 71/293/87 69/294/87 63/295/87
f 69/296/88 71/297/88 72/298/88 70/299/88
f 70/300/89 72/301/89 64/302/89
f 73/303/90 71/304/90 63/305/90
f 71/306/91 73/307/91 74/308/91 72/309/91
f 72/310/92 74/311/92 64/312/92
f 75/313/93 73/314/93 63/315/93
f 73/316/94 75/317/94 76/318/94 74/319/94
f 74/320/95 76/321/95 64/322/95
f 77/323/96 75/324/96 63/325/96
f 75/326/97 77/327/97 78/328/97 76/329/97
f 76/330/98 78/331/98 64/332/98
f 79/333/99 77/334/99 63/335/99
f 77/336/100 79/337/100 80/338/100 78/339/100
f 78/340/101 80/341/101 64/342/101
f 65/343/102 79/344/102 63/345/102
f 79/346/103 65/347/103 66/348/103 80/349/103
f 80/350/104 66/351/104 64/352/104
o mainkettlebottom
v 0.5 -0.5 0.5
v 0.5 0 0.5
v 0.292893125 -0.5 0
v -0.019606875000000135 0.3125 -0.75
v 0 -0.5 0.2928931250000001
v -0.75 0.3125 -0.019606874999999913
v 0 -0.5 0.707106875
v -0.75 0.3125 1.019606875
v 0.2928931250000001 -0.5 1
v -0.019606874999999913 0.3125 1.75
v 0.707106875 -0.5 1
v 1.019606875 0.3125 1.75
v 1 -0.5 0.7071068749999999
v 1.75 0.3125 1.019606875
v 1 -0.5 0.292893125
v 1.75 0.3125 -0.019606875000000135
v 0.7071068749999999 -0.5 0
v 1.019606875 0.3125 -0.75
vt 0.125 0.63526328125
vt 0.08838828125 0.671875
vt 0.0625 0.609375
vt 0.53760703125 0.855101015625
vt 0.581801015625 0.828125
vt 0.686877734375 0.92604703125
vt 0.57666953125 0.993318125
vt 0.242409453125 0.6839565624999999
vt 0.32772734375 0.780869453125
vt 0.164062421875 0.83894140625
vt 0.125 0.58348671875
vt 0.125 0.63526328125
vt 0.0625 0.609375
vt 0.48739296875 0.8515625
vt 0.53916953125 0.8515625
vt 0.57823203125 0.9921875
vt 0.44833046875 0.9921875
vt 0.32772734375 0.780869453125
vt 0.32222609375 0.91065453125
vt 0.164062578125 0.838941328125
vt 0.08838828125 0.546875
vt 0.125 0.58348671875
vt 0.0625 0.609375
vt 0.441636484375 0.828125
vt 0.48583046875 0.855101015625
vt 0.44676796875 0.993318125
vt 0.336559765625 0.92604703125
vt 0.32222609375 0.91065453125
vt 0.22901328125 1
vt 0.164062421875 0.83894125
vt 0.03661171875 0.546875
vt 0.08838828125 0.546875
vt 0.0625 0.609375
vt 0.48583046875 0.855101015625
vt 0.53760703125 0.855101015625
vt 0.57666953125 0.993318203125
vt 0.44676796875 0.993318203125
vt 0.22901328125 1
vt 0.09911171875 1
vt 0.1640625 0.83894140625
vt 0 0.58348671875
vt 0.03661171875 0.546875
vt 0.0625 0.609375
vt 0.53760703125 0.855101015625
vt 0.581801015625 0.828125
vt 0.686877734375 0.92604703125
vt 0.57666953125 0.993318125
vt 0.09911171875 1
vt 0.00589890625 0.91065453125
vt 0.164062578125 0.83894125
vt 0 0.63526328125
vt 0 0.58348671875
vt 0.0625 0.609375
vt 0.48583046875 0.8515625
vt 0.53760703125 0.8515625
vt 0.57666953125 0.9921875
vt 0.44676796875 0.9921875
vt 0.00589890625 0.91065453125
vt 0.00039765625 0.780869453125
vt 0.164062421875 0.838941328125
vt 0.03661171875 0.671875
vt 0 0.63526328125
vt 0.0625 0.609375
vt 0.441636484375 0.828125
vt 0.48583046875 0.855101015625
vt 0.44676796875 0.993318125
vt 0.336559765625 0.92604703125
vt 0.00039765625 0.780869453125
vt 0.085715546875 0.6839565624999999
vt 0.164062578125 0.83894140625
vt 0.08838828125 0.671875
vt 0.03661171875 0.671875
vt 0.0625 0.609375
vt 0.48583046875 0.855101015625
vt 0.53760703125 0.855101015625
vt 0.57666953125 0.993318203125
vt 0.44676796875 0.993318203125
vt 0.112973828125 0.6729640625
vt 0.242409453125 0.6839565624999999
vt 0.1640625 0.838941171875
vn 0 -1 0
vn -0.5191699914900667 -0.678914604256241 -0.5191699914900665
vn 0.171330745688799 0.9702018095032807 0.17133074568879894
vn 0 -1 0
vn -0.734803444627488 -0.6782801027330658 8.998746864655026e-17
vn 0.24253562503633297 0.9701425001453319 -2.970204768799478e-17
vn 0 -1 0
vn -0.5191699914900666 -0.6789146042562411 0.5191699914900668
vn 0.17133074568879894 0.9702018095032807 -0.171330745688799
vn 0 -1 0
vn 8.998746864655026e-17 -0.6782801027330658 0.734803444627488
vn -2.970204768799478e-17 0.9701425001453319 -0.24253562503633297
vn 0 -1 0
vn 0.5191699914900667 -0.678914604256241 0.5191699914900665
vn -0.171330745688799 0.9702018095032807 -0.17133074568879894
vn 0 -1 0
vn 0.734803444627488 -0.6782801027330658 -8.998746864655026e-17
vn -0.24253562503633297 0.9701425001453319 2.970204768799478e-17
vn 0 -1 0
vn 0.5191699914900666 -0.6789146042562411 -0.5191699914900668
vn -0.17133074568879894 0.9702018095032807 0.171330745688799
vn 0 -1 0
vn -8.998746864655026e-17 -0.6782801027330658 -0.734803444627488
vn 2.970204768799478e-17 0.9701425001453319 0.24253562503633297
usemtl m_5f7340e3-f0ff-a7a6-dbc3-d464562d94e5
f 85/353/105 83/354/105 81/355/105
f 83/356/106 85/357/106 86/358/106 84/359/106
f 84/360/107 86/361/107 82/362/107
f 87/363/108 85/364/108 81/365/108
f 85/366/109 87/367/109 88/368/109 86/369/109
f 86/370/110 88/371/110 82/372/110
f 89/373/111 87/374/111 81/375/111
f 87/376/112 89/377/112 90/378/112 88/379/112
f 88/380/113 90/381/113 82/382/113
f 91/383/114 89/384/114 81/385/114
f 89/386/115 91/387/115 92/388/115 90/389/115
f 90/390/116 92/391/116 82/392/116
f 93/393/117 91/394/117 81/395/117
f 91/396/118 93/397/118 94/398/118 92/399/118
f 92/400/119 94/401/119 82/402/119
f 95/403/120 93/404/120 81/405/120
f 93/406/121 95/407/121 96/408/121 94/409/121
f 94/410/122 96/411/122 82/412/122
f 97/413/123 95/414/123 81/415/123
f 95/416/124 97/417/124 98/418/124 96/419/124
f 96/420/125 98/421/125 82/422/125
f 83/423/126 97/424/126 81/425/126
f 97/426/127 83/427/127 84/428/127 98/429/127
f 98/430/128 84/431/128 82/432/128
o input
v 1.75 1.875 0.12499999999999983
v 1.75 1.875 0.8749999999999998
v 1.75 1.125 0.12499999999999983
v 1.75 1.125 0.8749999999999998
v 2 1.875 0.8749999999999998
v 2 1.875 0.12499999999999983
v 2 1.125 0.8749999999999998
v 2 1.125 0.12499999999999983
vt 0.203125 0.1953125
vt 0.234375 0.1953125
vt 0.234375 0.1015625
vt 0.203125 0.1015625
vt 0.1015625 0.1953125
vt 0.1953125 0.1953125
vt 0.1953125 0.1015625
vt 0.1015625 0.1015625
vt 0.2421875 0.1953125
vt 0.2734375 0.1953125
vt 0.2734375 0.1015625
vt 0.2421875 0.1015625
vt 0.1015625 0.09375
vt 0.1953125 0.09375
vt 0.1953125 0
vt 0.1015625 0
vt 0.3515625 0.1015625
vt 0.3203125 0.1015625
vt 0.3203125 0.1953125
vt 0.3515625 0.1953125
vt 0.3125 0.1953125
vt 0.28125 0.1953125
vt 0.28125 0.1015625
vt 0.3125 0.1015625
vn 1.2246467991473532e-16 0 1
vn -1 0 1.2246467991473532e-16
vn -1.2246467991473532e-16 0 -1
vn 1 0 -1.2246467991473532e-16
vn 0 1 0
vn 0 -1 0
usemtl m_5f7340e3-f0ff-a7a6-dbc3-d464562d94e5
f 102/436/129 105/435/129 103/434/129 100/433/129
f 101/440/130 102/439/130 100/438/130 99/437/130
f 106/444/131 101/443/131 99/442/131 104/441/131
f 105/448/132 106/447/132 104/446/132 103/445/132
f 104/452/133 99/451/133 100/450/133 103/449/133
f 105/456/134 102/455/134 101/454/134 106/453/134
o input3
v 0.8750000000000004 1.875 1.7499999999999998
v 0.12500000000000044 1.875 1.7500000000000002
v 0.8750000000000004 1.125 1.7499999999999998
v 0.12500000000000044 1.125 1.7500000000000002
v 0.1250000000000005 1.875 2
v 0.8750000000000004 1.875 1.9999999999999998
v 0.1250000000000005 1.125 2
v 0.8750000000000004 1.125 1.9999999999999998
vt 0.203125 0.1953125
vt 0.234375 0.1953125
vt 0.234375 0.1015625
vt 0.203125 0.1015625
vt 0.1015625 0.1953125
vt 0.1953125 0.1953125
vt 0.1953125 0.1015625
vt 0.1015625 0.1015625
vt 0.2421875 0.1953125
vt 0.2734375 0.1953125
vt 0.2734375 0.1015625
vt 0.2421875 0.1015625
vt 0.1015625 0.09375
vt 0.1953125 0.09375
vt 0.1953125 0
vt 0.1015625 0
vt 0.3515625 0.1015625
vt 0.3203125 0.1015625
vt 0.3203125 0.1953125
vt 0.3515625 0.1953125
vt 0.3125 0.1953125
vt 0.28125 0.1953125
vt 0.28125 0.1015625
vt 0.3125 0.1015625
vn -1 0 3.4450928483976665e-16
vn -3.4450928483976665e-16 0 -1
vn 1 0 -3.4450928483976665e-16
vn 3.4450928483976665e-16 0 1
vn 0 1 0
vn 0 -1 0
usemtl m_5f7340e3-f0ff-a7a6-dbc3-d464562d94e5
f 110/460/135 113/459/135 111/458/135 108/457/135
f 109/464/136 110/463/136 108/462/136 107/461/136
f 114/468/137 109/467/137 107/466/137 112/465/137
f 113/472/138 114/471/138 112/470/138 111/469/138
f 112/476/139 107/475/139 108/474/139 111/473/139
f 113/480/140 110/479/140 109/478/140 114/477/140
o input2
v -0.75 1.875 0.8750000000000003
v -0.75 1.875 0.12500000000000033
v -0.75 1.125 0.8750000000000003
v -0.75 1.125 0.12500000000000033
v -1 1.875 0.1250000000000004
v -1 1.875 0.8750000000000004
v -1 1.125 0.1250000000000004
v -1 1.125 0.8750000000000004
vt 0.203125 0.1953125
vt 0.234375 0.1953125
vt 0.234375 0.1015625
vt 0.203125 0.1015625
vt 0.1015625 0.1953125
vt 0.1953125 0.1953125
vt 0.1953125 0.1015625
vt 0.1015625 0.1015625
vt 0.2421875 0.1953125
vt 0.2734375 0.1953125
vt 0.2734375 0.1015625
vt 0.2421875 0.1015625
vt 0.1015625 0.09375
vt 0.1953125 0.09375
vt 0.1953125 0
vt 0.1015625 0
vt 0.3515625 0.1015625
vt 0.3203125 0.1015625
vt 0.3203125 0.1953125
vt 0.3515625 0.1953125
vt 0.3125 0.1953125
vt 0.28125 0.1953125
vt 0.28125 0.1015625
vt 0.3125 0.1015625
vn -2.4492935982947064e-16 0 -1
vn 1 0 -2.4492935982947064e-16
vn 2.4492935982947064e-16 0 1
vn -1 0 2.4492935982947064e-16
vn 0 1 0
vn 0 -1 0
usemtl m_5f7340e3-f0ff-a7a6-dbc3-d464562d94e5
f 118/484/141 121/483/141 119/482/141 116/481/141
f 117/488/142 118/487/142 116/486/142 115/485/142
f 122/492/143 117/491/143 115/490/143 120/489/143
f 121/496/144 122/495/144 120/494/144 119/493/144
f 120/500/145 115/499/145 116/498/145 119/497/145
f 121/504/146 118/503/146 117/502/146 122/501/146
o out
v -1 0.875 0.12500000000000017
v -1 0.875 0.8750000000000002
v -1 0.125 0.12500000000000017
v -1 0.125 0.8750000000000002
v -0.375 0.875 0.8750000000000001
v -0.375 0.875 0.1250000000000001
v -0.375 0.125 0.8750000000000001
v -0.375 0.125 0.1250000000000001
vt 0.203125 0.09375
vt 0.28125 0.09375
vt 0.28125 0
vt 0.203125 0
vt 0 0.09375
vt 0.09375 0.09375
vt 0.09375 0
vt 0 0
vt 0.7578125 0.59375
vt 0.8359375 0.59375
vt 0.8359375 0.5
vt 0.7578125 0.5
vt 0 0.1953125
vt 0.09375 0.1953125
vt 0.09375 0.1015625
vt 0 0.1015625
vt 0.921875 0.5
vt 0.84375 0.5
vt 0.84375 0.59375
vt 0.921875 0.59375
vt 0.75 0.59375
vt 0.671875 0.59375
vt 0.671875 0.5
vt 0.75 0.5
vn 1.2246467991473532e-16 0 1
vn -1 0 1.2246467991473532e-16
vn -1.2246467991473532e-16 0 -1
vn 1 0 -1.2246467991473532e-16
vn 0 1 0
vn 0 -1 0
usemtl m_5f7340e3-f0ff-a7a6-dbc3-d464562d94e5
f 126/508/147 129/507/147 127/506/147 124/505/147
f 125/512/148 126/511/148 124/510/148 123/509/148
f 130/516/149 125/515/149 123/514/149 128/513/149
f 129/520/150 130/519/150 128/518/150 127/517/150
f 128/524/151 123/523/151 124/522/151 127/521/151
f 129/528/152 126/527/152 125/526/152 130/525/152
o out2
v 2 0.875 0.8749999999999996
v 2 0.875 0.12499999999999961
v 2 0.125 0.8749999999999996
v 2 0.125 0.12499999999999961
v 1.375 0.875 0.12499999999999978
v 1.375 0.875 0.8749999999999998
v 1.375 0.125 0.12499999999999978
v 1.375 0.125 0.8749999999999998
vt 0.203125 0.09375
vt 0.28125 0.09375
vt 0.28125 0
vt 0.203125 0
vt 0 0.09375
vt 0.09375 0.09375
vt 0.09375 0
vt 0 0
vt 0.7578125 0.59375
vt 0.8359375 0.59375
vt 0.8359375 0.5
vt 0.7578125 0.5
vt 0 0.1953125
vt 0.09375 0.1953125
vt 0.09375 0.1015625
vt 0 0.1015625
vt 0.921875 0.5
vt 0.84375 0.5
vt 0.84375 0.59375
vt 0.921875 0.59375
vt 0.75 0.59375
vt 0.671875 0.59375
vt 0.671875 0.5
vt 0.75 0.5
vn -2.4492935982947064e-16 0 -1
vn 1 0 -2.4492935982947064e-16
vn 2.4492935982947064e-16 0 1
vn -1 0 2.4492935982947064e-16
vn 0 1 0
vn 0 -1 0
usemtl m_5f7340e3-f0ff-a7a6-dbc3-d464562d94e5
f 134/532/153 137/531/153 135/530/153 132/529/153
f 133/536/154 134/535/154 132/534/154 131/533/154
f 138/540/155 133/539/155 131/538/155 136/537/155
f 137/544/156 138/543/156 136/542/156 135/541/156
f 136/548/157 131/547/157 132/546/157 135/545/157
f 137/552/158 134/551/158 133/550/158 138/549/158
o redstone
v 0.8749999999999996 0.875 -1.0000000000000002
v 0.1249999999999995 0.875 -0.9999999999999998
v 0.8749999999999996 0.125 -1.0000000000000002
v 0.1249999999999995 0.125 -0.9999999999999998
v 0.12499999999999972 0.875 -0.3749999999999999
v 0.8749999999999998 0.875 -0.3750000000000001
v 0.12499999999999972 0.125 -0.3749999999999999
v 0.8749999999999998 0.125 -0.3750000000000001
vt 0.203125 0.09375
vt 0.28125 0.09375
vt 0.28125 0
vt 0.203125 0
vt 0.875 0.125
vt 1 0.125
vt 1 0
vt 0.875 0
vt 0.7578125 0.59375
vt 0.8359375 0.59375
vt 0.8359375 0.5
vt 0.7578125 0.5
vt 0 0.1953125
vt 0.09375 0.1953125
vt 0.09375 0.1015625
vt 0 0.1015625
vt 0.921875 0.5
vt 0.84375 0.5
vt 0.84375 0.59375
vt 0.921875 0.59375
vt 0.75 0.59375
vt 0.671875 0.59375
vt 0.671875 0.5
vt 0.75 0.5
vn -1 0 3.4450928483976665e-16
vn -3.4450928483976665e-16 0 -1
vn 1 0 -3.4450928483976665e-16
vn 3.4450928483976665e-16 0 1
vn 0 1 0
vn 0 -1 0
usemtl m_5f7340e3-f0ff-a7a6-dbc3-d464562d94e5
f 142/556/159 145/555/159 143/554/159 140/553/159
f 141/560/160 142/559/160 140/558/160 139/557/160
f 146/564/161 141/563/161 139/562/161 144/561/161
f 145/568/162 146/567/162 144/566/162 143/565/162
f 144/572/163 139/571/163 140/570/163 143/569/163
f 145/576/164 142/575/164 141/574/164 146/573/164
o out3
v 0.12499999999999983 0.875 2
v 0.8749999999999998 0.875 2
v 0.12499999999999983 0.125 2
v 0.8749999999999998 0.125 2
v 0.8749999999999999 0.875 1.375
v 0.12499999999999989 0.875 1.375
v 0.8749999999999999 0.125 1.375
v 0.12499999999999989 0.125 1.375
vt 0.203125 0.09375
vt 0.28125 0.09375
vt 0.28125 0
vt 0.203125 0
vt 0 0.09375
vt 0.09375 0.09375
vt 0.09375 0
vt 0 0
vt 0.7578125 0.59375
vt 0.8359375 0.59375
vt 0.8359375 0.5
vt 0.7578125 0.5
vt 0 0.1953125
vt 0.09375 0.1953125
vt 0.09375 0.1015625
vt 0 0.1015625
vt 0.921875 0.5
vt 0.84375 0.5
vt 0.84375 0.59375
vt 0.921875 0.59375
vt 0.75 0.59375
vt 0.671875 0.59375
vt 0.671875 0.5
vt 0.75 0.5
vn 1 0 9.957992501029599e-17
vn -9.957992501029599e-17 0 1
vn -1 0 -9.957992501029599e-17
vn 9.957992501029599e-17 0 -1
vn 0 1 0
vn 0 -1 0
usemtl m_5f7340e3-f0ff-a7a6-dbc3-d464562d94e5
f 150/580/165 153/579/165 151/578/165 148/577/165
f 149/584/166 150/583/166 148/582/166 147/581/166
f 154/588/167 149/587/167 147/586/167 152/585/167
f 153/592/168 154/591/168 152/590/168 151/589/168
f 152/596/169 147/595/169 148/594/169 151/593/169
f 153/600/170 150/599/170 149/598/170 154/597/170
o exout
v -1.1102230246251565e-16 -0.5 5.551115123125783e-17
v 5.551115123125783e-17 -0.5 1
v -1.1102230246251565e-16 -1 5.551115123125783e-17
v 5.551115123125783e-17 -1 1
v 1 -0.5 1
v 1 -0.5 -1.1102230246251565e-16
v 1 -1 1
v 1 -1 -1.1102230246251565e-16
vt 0.3359375 0.8203125
vt 0.4609375 0.8203125
vt 0.4609375 0.7578125
vt 0.3359375 0.7578125
vt 0.6953125 1
vt 0.8203125 1
vt 0.8203125 0.9375
vt 0.6953125 0.9375
vt 0.3359375 0.8203125
vt 0.4609375 0.8203125
vt 0.4609375 0.7578125
vt 0.3359375 0.7578125
vt 0.6953125 1
vt 0.8203125 1
vt 0.8203125 0.9375
vt 0.6953125 0.9375
vt 1 0.8125
vt 0.875 0.8125
vt 0.875 0.9375
vt 1 0.9375
vt 0.8203125 0.921875
vt 0.6953125 0.921875
vt 0.6953125 0.796875
vt 0.8203125 0.796875
vn 1.2246467991473532e-16 0 1
vn -1 0 1.2246467991473532e-16
vn -1.2246467991473532e-16 0 -1
vn 1 0 -1.2246467991473532e-16
vn 0 1 0
vn 0 -1 0
usemtl m_5f7340e3-f0ff-a7a6-dbc3-d464562d94e5
f 158/604/171 161/603/171 159/602/171 156/601/171
f 157/608/172 158/607/172 156/606/172 155/605/172
f 162/612/173 157/611/173 155/610/173 160/609/173
f 161/616/174 162/615/174 160/614/174 159/613/174
f 160/620/175 155/619/175 156/618/175 159/617/175
f 161/624/176 158/623/176 157/622/176 162/621/176
o leg4
v -0.4375000000000001 0.0625 -0.3124999999999999
v -0.4375000000000001 0.0625 -0.06249999999999989
v -0.4375000000000001 -1 -0.3124999999999999
v -0.4375000000000001 -1 -0.06249999999999989
v -0.1875000000000001 0.0625 -0.06249999999999989
v -0.1875000000000001 0.0625 -0.3124999999999999
v -0.1875000000000001 -1 -0.06249999999999989
v -0.1875000000000001 -1 -0.3124999999999999
vt 0.6328125 0.296875
vt 0.6640625 0.296875
vt 0.6640625 0.1640625
vt 0.6328125 0.1640625
vt 0.515625 0.296875
vt 0.546875 0.296875
vt 0.546875 0.1640625
vt 0.515625 0.1640625
vt 0.5546875 0.296875
vt 0.5859375 0.296875
vt 0.5859375 0.1640625
vt 0.5546875 0.1640625
vt 0.59375 0.296875
vt 0.625 0.296875
vt 0.625 0.1640625
vt 0.59375 0.1640625
vt 0.1953125 0.53125
vt 0.1640625 0.53125
vt 0.1640625 0.5625
vt 0.1953125 0.5625
vt 0.234375 0.5625
vt 0.203125 0.5625
vt 0.203125 0.53125
vt 0.234375 0.53125
vn 1.2246467991473532e-16 0 1
vn -1 0 1.2246467991473532e-16
vn -1.2246467991473532e-16 0 -1
vn 1 0 -1.2246467991473532e-16
vn 0 1 0
vn 0 -1 0
usemtl m_5f7340e3-f0ff-a7a6-dbc3-d464562d94e5
f 166/628/177 169/627/177 167/626/177 164/625/177
f 165/632/178 166/631/178 164/630/178 163/629/178
f 170/636/179 165/635/179 163/634/179 168/633/179
f 169/640/180 170/639/180 168/638/180 167/637/180
f 168/644/181 163/643/181 164/642/181 167/641/181
f 169/648/182 166/647/182 165/646/182 170/645/182
o leg5
v 1.4374999999999996 0.0625 -0.31250000000000033
v 1.1874999999999996 0.0625 -0.3125000000000002
v 1.4374999999999996 -1 -0.31250000000000033
v 1.1874999999999996 -1 -0.3125000000000002
v 1.1874999999999998 0.0625 -0.06250000000000022
v 1.4374999999999998 0.0625 -0.06250000000000033
v 1.1874999999999998 -1 -0.06250000000000022
v 1.4374999999999998 -1 -0.06250000000000033
vt 0.6328125 0.296875
vt 0.6640625 0.296875
vt 0.6640625 0.1640625
vt 0.6328125 0.1640625
vt 0.515625 0.296875
vt 0.546875 0.296875
vt 0.546875 0.1640625
vt 0.515625 0.1640625
vt 0.5546875 0.296875
vt 0.5859375 0.296875
vt 0.5859375 0.1640625
vt 0.5546875 0.1640625
vt 0.59375 0.296875
vt 0.625 0.296875
vt 0.625 0.1640625
vt 0.59375 0.1640625
vt 0.1953125 0.53125
vt 0.1640625 0.53125
vt 0.1640625 0.5625
vt 0.1953125 0.5625
vt 0.234375 0.5625
vt 0.203125 0.5625
vt 0.203125 0.53125
vt 0.234375 0.53125
vn -1 0 3.4450928483976665e-16
vn -3.4450928483976665e-16 0 -1
vn 1 0 -3.4450928483976665e-16
vn 3.4450928483976665e-16 0 1
vn 0 1 0
vn 0 -1 0
usemtl m_5f7340e3-f0ff-a7a6-dbc3-d464562d94e5
f 174/652/183 177/651/183 175/650/183 172/649/183
f 173/656/184 174/655/184 172/654/184 171/653/184
f 178/660/185 173/659/185 171/658/185 176/657/185
f 177/664/186 178/663/186 176/662/186 175/661/186
f 176/668/187 171/667/187 172/666/187 175/665/187
f 177/672/188 174/671/188 173/670/188 178/669/188
o leg6
v 1.4375000000000002 0.0625 1.3124999999999998
v 1.4375 0.0625 1.0624999999999998
v 1.4375000000000002 -1 1.3124999999999998
v 1.4375 -1 1.0624999999999998
v 1.1875 0.0625 1.0624999999999998
v 1.1875000000000002 0.0625 1.3124999999999998
v 1.1875 -1 1.0624999999999998
v 1.1875000000000002 -1 1.3124999999999998
vt 0.6328125 0.296875
vt 0.6640625 0.296875
vt 0.6640625 0.1640625
vt 0.6328125 0.1640625
vt 0.515625 0.296875
vt 0.546875 0.296875
vt 0.546875 0.1640625
vt 0.515625 0.1640625
vt 0.5546875 0.296875
vt 0.5859375 0.296875
vt 0.5859375 0.1640625
vt 0.5546875 0.1640625
vt 0.59375 0.296875
vt 0.625 0.296875
vt 0.625 0.1640625
vt 0.59375 0.1640625
vt 0.1953125 0.53125
vt 0.1640625 0.53125
vt 0.1640625 0.5625
vt 0.1953125 0.5625
vt 0.234375 0.5625
vt 0.203125 0.5625
vt 0.203125 0.53125
vt 0.234375 0.53125
vn -2.4492935982947064e-16 0 -1
vn 1 0 -2.4492935982947064e-16
vn 2.4492935982947064e-16 0 1
vn -1 0 2.4492935982947064e-16
vn 0 1 0
vn 0 -1 0
usemtl m_5f7340e3-f0ff-a7a6-dbc3-d464562d94e5
f 182/676/189 185/675/189 183/674/189 180/673/189
f 181/680/190 182/679/190 180/678/190 179/677/190
f 186/684/191 181/683/191 179/682/191 184/681/191
f 185/688/192 186/687/192 184/686/192 183/685/192
f 184/692/193 179/691/193 180/690/193 183/689/193
f 185/696/194 182/695/194 181/694/194 186/693/194
o leg7
v -0.4375000000000001 0.0625 1.3125
v -0.1875000000000001 0.0625 1.3125
v -0.4375000000000001 -1 1.3125
v -0.1875000000000001 -1 1.3125
v -0.1875000000000001 0.0625 1.0625
v -0.4375000000000001 0.0625 1.0625
v -0.1875000000000001 -1 1.0625
v -0.4375000000000001 -1 1.0625
vt 0.6328125 0.296875
vt 0.6640625 0.296875
vt 0.6640625 0.1640625
vt 0.6328125 0.1640625
vt 0.515625 0.296875
vt 0.546875 0.296875
vt 0.546875 0.1640625
vt 0.515625 0.1640625
vt 0.5546875 0.296875
vt 0.5859375 0.296875
vt 0.5859375 0.1640625
vt 0.5546875 0.1640625
vt 0.59375 0.296875
vt 0.625 0.296875
vt 0.625 0.1640625
vt 0.59375 0.1640625
vt 0.1953125 0.53125
vt 0.1640625 0.53125
vt 0.1640625 0.5625
vt 0.1953125 0.5625
vt 0.234375 0.5625
vt 0.203125 0.5625
vt 0.203125 0.53125
vt 0.234375 0.53125
vn 1 0 9.957992501029599e-17
vn -9.957992501029599e-17 0 1
vn -1 0 -9.957992501029599e-17
vn 9.957992501029599e-17 0 -1
vn 0 1 0
vn 0 -1 0
usemtl m_5f7340e3-f0ff-a7a6-dbc3-d464562d94e5
f 190/700/195 193/699/195 191/698/195 188/697/195
f 189/704/196 190/703/196 188/702/196 187/701/196
f 194/708/197 189/707/197 187/706/197 192/705/197
f 193/712/198 194/711/198 192/710/198 191/709/198
f 192/716/199 187/715/199 188/714/199 191/713/199
f 193/720/200 190/719/200 189/718/200 194/717/200
o 32
v 1.25 -0.1875 -0.06250000000000011
v 1.25 -0.1875 1.0625
v 1.25 -0.375 -0.06250000000000011
v 1.25 -0.375 1.0625
v 1.375 -0.1875 1.0625
v 1.375 -0.1875 -0.06250000000000011
v 1.375 -0.375 1.0625
v 1.375 -0.375 -0.06250000000000011
vt 0.0078125 0.96875
vt 0.0234375 0.96875
vt 0.0234375 0.9453125
vt 0.0078125 0.9453125
vt 0.8515625 0.265625
vt 0.9921875 0.265625
vt 0.9921875 0.2421875
vt 0.8515625 0.2421875
vt 0.0078125 0.96875
vt 0.0234375 0.96875
vt 0.0234375 0.9453125
vt 0.0078125 0.9453125
vt 0.8515625 0.234375
vt 0.9921875 0.234375
vt 0.9921875 0.2109375
vt 0.8515625 0.2109375
vt 0.8671875 0.7890625
vt 0.8515625 0.7890625
vt 0.8515625 0.9296875
vt 0.8671875 0.9296875
vt 0.84375 0.9296875
vt 0.828125 0.9296875
vt 0.828125 0.7890625
vt 0.84375 0.7890625
vn 1.2246467991473532e-16 0 1
vn -1 0 1.2246467991473532e-16
vn -1.2246467991473532e-16 0 -1
vn 1 0 -1.2246467991473532e-16
vn 0 1 0
vn 0 -1 0
usemtl m_5f7340e3-f0ff-a7a6-dbc3-d464562d94e5
f 198/724/201 201/723/201 199/722/201 196/721/201
f 197/728/202 198/727/202 196/726/202 195/725/202
f 202/732/203 197/731/203 195/730/203 200/729/203
f 201/736/204 202/735/204 200/734/204 199/733/204
f 200/740/205 195/739/205 196/738/205 199/737/205
f 201/744/206 198/743/206 197/742/206 202/741/206
o 33
v -0.2499999999999999 -0.1875 1.0625000000000002
v -0.2500000000000001 -0.1875 -0.06249999999999978
v -0.2499999999999999 -0.375 1.0625000000000002
v -0.2500000000000001 -0.375 -0.06249999999999978
v -0.3750000000000001 -0.1875 -0.06249999999999978
v -0.3749999999999999 -0.1875 1.0625000000000002
v -0.3750000000000001 -0.375 -0.06249999999999978
v -0.3749999999999999 -0.375 1.0625000000000002
vt 0.0078125 0.96875
vt 0.0234375 0.96875
vt 0.0234375 0.9453125
vt 0.0078125 0.9453125
vt 0.8515625 0.265625
vt 0.9921875 0.265625
vt 0.9921875 0.2421875
vt 0.8515625 0.2421875
vt 0.0078125 0.96875
vt 0.0234375 0.96875
vt 0.0234375 0.9453125
vt 0.0078125 0.9453125
vt 0.8515625 0.234375
vt 0.9921875 0.234375
vt 0.9921875 0.2109375
vt 0.8515625 0.2109375
vt 0.8671875 0.7890625
vt 0.8515625 0.7890625
vt 0.8515625 0.9296875
vt 0.8671875 0.9296875
vt 0.84375 0.9296875
vt 0.828125 0.9296875
vt 0.828125 0.7890625
vt 0.84375 0.7890625
vn -2.4492935982947064e-16 0 -1
vn 1 0 -2.4492935982947064e-16
vn 2.4492935982947064e-16 0 1
vn -1 0 2.4492935982947064e-16
vn 0 1 0
vn 0 -1 0
usemtl m_5f7340e3-f0ff-a7a6-dbc3-d464562d94e5
f 206/748/207 209/747/207 207/746/207 204/745/207
f 205/752/208 206/751/208 204/750/208 203/749/208
f 210/756/209 205/755/209 203/754/209 208/753/209
f 209/760/210 210/759/210 208/758/210 207/757/210
f 208/764/211 203/763/211 204/762/211 207/761/211
f 209/768/212 206/767/212 205/766/212 210/765/212
o 21
v -0.18750000000000022 -0.1875 1.2499999999999996
v 1.1874999999999998 -0.1875 1.25
v -0.18750000000000022 -0.375 1.2499999999999996
v 1.1874999999999998 -0.375 1.25
v 1.1874999999999998 -0.1875 1.125
v -0.18750000000000022 -0.1875 1.1249999999999996
v 1.1874999999999998 -0.375 1.125
v -0.18750000000000022 -0.375 1.1249999999999996
vt 0.0078125 0.96875
vt 0.0234375 0.96875
vt 0.0234375 0.9453125
vt 0.0078125 0.9453125
vt 0.671875 0.265625
vt 0.84375 0.265625
vt 0.84375 0.2421875
vt 0.671875 0.2421875
vt 0.0078125 0.96875
vt 0.0234375 0.96875
vt 0.0234375 0.9453125
vt 0.0078125 0.9453125
vt 0.671875 0.234375
vt 0.84375 0.234375
vt 0.84375 0.2109375
vt 0.671875 0.2109375
vt 0.953125 0.6015625
vt 0.9375 0.6015625
vt 0.9375 0.7734375
vt 0.953125 0.7734375
vt 0.9765625 0.7734375
vt 0.9609375 0.7734375
vt 0.9609375 0.6015625
vt 0.9765625 0.6015625
vn 1 0 9.957992501029599e-17
vn -9.957992501029599e-17 0 1
vn -1 0 -9.957992501029599e-17
vn 9.957992501029599e-17 0 -1
vn 0 1 0
vn 0 -1 0
usemtl m_5f7340e3-f0ff-a7a6-dbc3-d464562d94e5
f 214/772/213 217/771/213 215/770/213 212/769/213
f 213/776/214 214/775/214 212/774/214 211/773/214
f 218/780/215 213/779/215 211/778/215 216/777/215
f 217/784/216 218/783/216 216/782/216 215/781/216
f 216/788/217 211/787/217 212/786/217 215/785/217
f 217/792/218 214/791/218 213/790/218 218/789/218
o 22
v 1.1874999999999996 -0.1875 -0.25000000000000044
v -0.1875000000000004 -0.1875 -0.25
v 1.1874999999999996 -0.375 -0.25000000000000044
v -0.1875000000000004 -0.375 -0.25
v -0.18750000000000036 -0.1875 -0.125
v 1.1874999999999996 -0.1875 -0.12500000000000044
v -0.18750000000000036 -0.375 -0.125
v 1.1874999999999996 -0.375 -0.12500000000000044
vt 0.0078125 0.96875
vt 0.0234375 0.96875
vt 0.0234375 0.9453125
vt 0.0078125 0.9453125
vt 0.671875 0.265625
vt 0.84375 0.265625
vt 0.84375 0.2421875
vt 0.671875 0.2421875
vt 0.0078125 0.96875
vt 0.0234375 0.96875
vt 0.0234375 0.9453125
vt 0.0078125 0.9453125
vt 0.671875 0.234375
vt 0.84375 0.234375
vt 0.84375 0.2109375
vt 0.671875 0.2109375
vt 0.953125 0.6015625
vt 0.9375 0.6015625
vt 0.9375 0.7734375
vt 0.953125 0.7734375
vt 0.9765625 0.7734375
vt 0.9609375 0.7734375
vt 0.9609375 0.6015625
vt 0.9765625 0.6015625
vn -1 0 3.4450928483976665e-16
vn -3.4450928483976665e-16 0 -1
vn 1 0 -3.4450928483976665e-16
vn 3.4450928483976665e-16 0 1
vn 0 1 0
vn 0 -1 0
usemtl m_5f7340e3-f0ff-a7a6-dbc3-d464562d94e5
f 222/796/219 225/795/219 223/794/219 220/793/219
f 221/800/220 222/799/220 220/798/220 219/797/220
f 226/804/221 221/803/221 219/802/221 224/801/221
f 225/808/222 226/807/222 224/806/222 223/805/222
f 224/812/223 219/811/223 220/810/223 223/809/223
f 225/816/224 222/815/224 221/814/224 226/813/224