# Made in Blockbench 4.1.3
mtllib rotary_kiln.mtl

o basis
v 2 -0.5 3
v 2 -0.5 -3
v 2 -1 3
v 2 -1 -3
v -1 -0.5 -3
v -1 -0.5 3
v -1 -1 -3
v -1 -1 3
vt 0 1
vt 0.375 1
vt 0.375 0.9375
vt 0 0.9375
vt 0 1
vt 0.75 1
vt 0.75 0.9375
vt 0 0.9375
vt 0 1
vt 0.375 1
vt 0.375 0.9375
vt 0 0.9375
vt 0 1
vt 0.75 1
vt 0.75 0.9375
vt 0 0.9375
vt 0 1
vt 0.375 1
vt 0.375 0.25
vt 0 0.25
vt 0 1
vt 0.375 1
vt 0.375 0.25
vt 0 0.25
vn 0 0 -1
vn 1 0 0
vn 0 0 1
vn -1 0 0
vn 0 1 0
vn 0 -1 0
usemtl m_0
f 4/4/1 7/3/1 5/2/1 2/1/1
f 3/8/2 4/7/2 2/6/2 1/5/2
f 8/12/3 3/11/3 1/10/3 6/9/3
f 7/16/4 8/15/4 6/14/4 5/13/4
f 6/20/5 1/19/5 2/18/5 5/17/5
f 7/24/6 4/23/6 3/22/6 8/21/6
o structPart1
v -0.1875 -0.125 2.3125
v -0.1875 -0.125 -1.1875
v -0.1875 -0.5 2.3125
v -0.1875 -0.5 -1.1875
v -0.5625 -0.125 -1.1875
v -0.5625 -0.125 2.3125
v -0.5625 -0.5 -1.1875
v -0.5625 -0.5 2.3125
vt 0 1
vt 0.046875 1
vt 0.046875 0.953125
vt 0 0.953125
vt 0 1
vt 0.4375 1
vt 0.4375 0.953125
vt 0 0.953125
vt 0 1
vt 0.046875 1
vt 0.046875 0.953125
vt 0 0.953125
vt 0 1
vt 0.4375 1
vt 0.4375 0.953125
vt 0 0.953125
vt 0 1
vt 0.046875 1
vt 0.046875 0.5625
vt 0 0.5625
vt 0 1
vt 0.046875 1
vt 0.046875 0.5625
vt 0 0.5625
vn 0 0 -1
vn 1 0 0
vn 0 0 1
vn -1 0 0
vn 0 1 0
vn 0 -1 0
usemtl m_0
f 12/28/7 15/27/7 13/26/7 10/25/7
f 11/32/8 12/31/8 10/30/8 9/29/8
f 16/36/9 11/35/9 9/34/9 14/33/9
f 15/40/10 16/39/10 14/38/10 13/37/10
f 14/44/11 9/43/11 10/42/11 13/41/11
f 15/48/12 12/47/12 11/46/12 16/45/12
o structPart2
v 1.5625 -0.125 2.3125
v 1.5625 -0.125 -1.1875
v 1.5625 -0.5 2.3125
v 1.5625 -0.5 -1.1875
v 1.1875 -0.125 -1.1875
v 1.1875 -0.125 2.3125
v 1.1875 -0.5 -1.1875
v 1.1875 -0.5 2.3125
vt 0 1
vt 0.046875 1
vt 0.046875 0.953125
vt 0 0.953125
vt 0 1
vt 0.4375 1
vt 0.4375 0.953125
vt 0 0.953125
vt 0 1
vt 0.046875 1
vt 0.046875 0.953125
vt 0 0.953125
vt 0 1
vt 0.4375 1
vt 0.4375 0.953125
vt 0 0.953125
vt 0 1
vt 0.046875 1
vt 0.046875 0.5625
vt 0 0.5625
vt 0 1
vt 0.046875 1
vt 0.046875 0.5625
vt 0 0.5625
vn 0 0 -1
vn 1 0 0
vn 0 0 1
vn -1 0 0
vn 0 1 0
vn 0 -1 0
usemtl m_0
f 20/52/13 23/51/13 21/50/13 18/49/13
f 19/56/14 20/55/14 18/54/14 17/53/14
f 24/60/15 19/59/15 17/58/15 22/57/15
f 23/64/16 24/63/16 22/62/16 21/61/16
f 22/68/17 17/67/17 18/66/17 21/65/17
f 23/72/18 20/71/18 19/70/18 24/69/18
o structPart3
v 1.1875 -0.125 0.8125
v 1.1875 -0.125 0.4375
v 1.1875 -0.5 0.8125
v 1.1875 -0.5 0.4375
v -0.1875 -0.125 0.4375
v -0.1875 -0.125 0.8125
v -0.1875 -0.5 0.4375
v -0.1875 -0.5 0.8125
vt 0 1
vt 0.171875 1
vt 0.171875 0.953125
vt 0 0.953125
vt 0 1
vt 0.046875 1
vt 0.046875 0.953125
vt 0 0.953125
vt 0 1
vt 0.171875 1
vt 0.171875 0.953125
vt 0 0.953125
vt 0 1
vt 0.046875 1
vt 0.046875 0.953125
vt 0 0.953125
vt 0 1
vt 0.171875 1
vt 0.171875 0.953125
vt 0 0.953125
vt 0 1
vt 0.171875 1
vt 0.171875 0.953125
vt 0 0.953125
vn 0 0 -1
vn 1 0 0
vn 0 0 1
vn -1 0 0
vn 0 1 0
vn 0 -1 0
usemtl m_0
f 28/76/19 31/75/19 29/74/19 26/73/19
f 27/80/20 28/79/20 26/78/20 25/77/20
f 32/84/21 27/83/21 25/82/21 30/81/21
f 31/88/22 32/87/22 30/86/22 29/85/22
f 30/92/23 25/91/23 26/90/23 29/89/23
f 31/96/24 28/95/24 27/94/24 32/93/24
o troughOutside
v 1 -0.25 4
v 1 -0.25 3
v 1 -1 4
v 1 -1 3
v 0 -0.25 3
v 0 -0.25 4
v 0 -1 3
v 0 -1 4
vt 0 0.96875
vt 0.125 0.96875
vt 0.125 0.875
vt 0 0.875
vt 0 0.96875
vt 0.125 0.96875
vt 0.125 0.875
vt 0 0.875
vt 0 0.96875
vt 0.125 0.96875
vt 0.125 0.875
vt 0 0.875
vt 0 0.96875
vt 0.125 0.96875
vt 0.125 0.875
vt 0 0.875
vt 0 1
vt 0.125 1
vt 0.125 0.875
vt 0 0.875
vt 0 1
vt 0.125 1
vt 0.125 0.875
vt 0 0.875
vn 0 0 -1
vn 1 0 0
vn 0 0 1
vn -1 0 0
vn 0 1 0
vn 0 -1 0
usemtl m_0
f 36/100/25 39/99/25 37/98/25 34/97/25
f 35/104/26 36/103/26 34/102/26 33/101/26
f 40/108/27 35/107/27 33/106/27 38/105/27
f 39/112/28 40/111/28 38/110/28 37/109/28
f 38/116/29 33/115/29 34/114/29 37/113/29
f 39/120/30 36/119/30 35/118/30 40/117/30
o troughInside
v 0.875 -0.25 3.875
v 0.875 -0.25 3.125
v 0.875 -0.875 3.875
v 0.875 -0.875 3.125
v 0.125 -0.25 3.125
v 0.125 -0.25 3.875
v 0.125 -0.875 3.125
v 0.125 -0.875 3.875
vt 0 1
vt 0.09375 1
vt 0.09375 0.921875
vt 0 0.921875
vt 0 1
vt 0.09375 1
vt 0.09375 0.921875
vt 0 0.921875
vt 0 1
vt 0.09375 1
vt 0.09375 0.921875
vt 0 0.921875
vt 0 1
vt 0.09375 1
vt 0.09375 0.921875
vt 0 0.921875
vt 0 1
vt 0.09375 1
vt 0.09375 0.90625
vt 0 0.90625
vt 0 1
vt 0.09375 1
vt 0.09375 0.90625
vt 0 0.90625
vn 0 0 -1
vn 1 0 0
vn 0 0 1
vn -1 0 0
vn 0 1 0
vn 0 -1 0
usemtl m_0
f 44/124/31 47/123/31 45/122/31 42/121/31
f 43/128/32 44/127/32 42/126/32 41/125/32
f 48/132/33 43/131/33 41/130/33 46/129/33
f 47/136/34 48/135/34 46/134/34 45/133/34
f 46/140/35 41/139/35 42/138/35 45/137/35
f 47/144/36 44/143/36 43/142/36 48/141/36
o troughRidge
v 0.75 0 4
v 0.75 0 3.875
v 1 -0.25 4
v 1 -0.25 3.875
v 0.25 0 4
v 0.25 0 3.875
v 0 -0.25 4
v 0 -0.25 3.875
vt 0.015625 0.96875
vt 0.015625 1
vt 0 1
vt 0 0.96875
vt 0.015625 0.96875
vt 0.015625 1
vt 0 1
vt 0 0.96875
vt 0.125 0.984375
vt 0.125 1
vt 0 1
vt 0 0.984375
vt 0.125 0.984375
vt 0.125 1
vt 0 1
vt 0 0.984375
vt 0.125 0.96875
vt 0.125 1
vt 0 1
vt 0 0.96875
vt 0.125 0.96875
vt 0.125 1
vt 0 1
vt 0 0.96875
vn 0.7071067811865476 0.7071067811865476 0
vn -0.7071067811865476 0.7071067811865476 0
vn 0 1 0
vn 0 -1 0
vn 0 0 1
vn 0 0 -1
usemtl m_0
f 52/145/37 50/146/37 49/147/37 51/148/37
f 55/149/38 53/150/38 54/151/38 56/152/38
f 49/153/39 50/154/39 54/155/39 53/156/39
f 52/157/40 51/158/40 55/159/40 56/160/40
f 51/161/41 49/162/41 53/163/41 55/164/41
f 56/165/42 54/166/42 50/167/42 52/168/42
o rotorBody
v 0.875 1.61667840612834 2.377439126997078
v 0.875 1.743527505146631 -1.2453407871128368
v 0.875 -0.1947115509266179 2.3140145774879324
v 0.875 -0.06786245190832677 -1.308765336621983
v 0.125 1.61667840612834 2.377439126997078
v 0.125 1.743527505146631 -1.2453407871128368
v 0.125 -0.1947115509266179 2.3140145774879324
v 0.125 -0.06786245190832677 -1.308765336621983
v 1.40625 1.085753763543266 2.3588491728306042
v 1.40625 1.212602862561557 -1.263930741279311
v 1.40625 0.3362130916584559 2.332604531654406
v 1.40625 0.46306219067674703 -1.2901753824555087
v -0.40625 1.085753763543266 2.3588491728306042
v -0.40625 1.212602862561557 -1.263930741279311
v -0.40625 0.3362130916584559 2.332604531654406
v -0.40625 0.46306219067674703 -1.2901753824555087
vt 0 0.546875
vt 0 1
vt 0.09375 1
vt 0.09375 0.546875
vt 0 0.546875
vt 0 1
vt 0.09375 1
vt 0.09375 0.546875
vt 0 0.90625
vt 0 1
vt 0.453125 1
vt 0.453125 0.90625
vt 0 0.90625
vt 0 1
vt 0.453125 1
vt 0.453125 0.90625
vt 0.453125 0.9921875
vt 0.453125 0.8982749999999999
vt 0 0.8982749999999999
vt 0 0.9921875
vt 0.453125 0.9921875
vt 0.453125 0.8982749999999999
vt 0 0.8982749999999999
vt 0 0.9921875
vt 0 0.8982749999999999
vt 0 0.9921875
vt 0.453125 0.9921875
vt 0.453125 0.8982749999999999
vt 0 0.8982749999999999
vt 0 0.9921875
vt 0.453125 0.9921875
vt 0.453125 0.8982749999999999
vt 0.06640625 0.93359375
vt 0.06640625 0.83984375
vt 0 0.7734375
vt 0 1
vt 0.06640625 1
vt 0.06640625 0.7734375
vt 0 0.83984375
vt 0 0.93359375
vt 0 0.7734375
vt 0 1
vt 0.09375 1
vt 0.09375 0.7734375
vt 0.06640625 0.93359375
vt 0.06640625 0.83984375
vt 0 0.7734375
vt 0 1
vt 0.06640625 1
vt 0.06640625 0.7734375
vt 0 0.83984375
vt 0 0.93359375
vt 0.09375 1
vt 0.09375 0.7734375
vt 0 0.7734375
vt 0 1
vn 0 0.9993875625130801 0.03499285490159756
vn 0 -0.9993875625130801 -0.03499285490159756
vn 1 0 0
vn -1 0 0
vn -0.7071067811865476 0.7066737224864937 0.024743684993996554
vn -0.7071067811865476 -0.7066737224864937 -0.024743684993996554
vn 0.7071067811865476 -0.7066737224864937 -0.024743684993996554
vn 0.7071067811865476 0.7066737224864937 0.024743684993996554
vn 0 0.03499285490159756 -0.9993875625130801
vn 0 0.03499285490159756 -0.9993875625130801
vn 0 0.03499285490159756 -0.9993875625130801
vn 0 -0.03499285490159756 0.9993875625130801
vn 0 -0.03499285490159756 0.9993875625130801
vn 0 -0.03499285490159756 0.9993875625130801
usemtl m_0
f 57/169/43 58/170/43 62/171/43 61/172/43
f 60/173/44 59/174/44 63/175/44 64/176/44
f 68/177/45 66/178/45 65/179/45 67/180/45
f 71/181/46 69/182/46 70/183/46 72/184/46
f 62/185/47 70/186/47 69/187/47 61/188/47
f 72/189/48 64/190/48 63/191/48 71/192/48
f 60/193/49 68/194/49 67/195/49 59/196/49
f 66/197/50 58/198/50 57/199/50 65/200/50
f 66/201/51 68/202/51 60/203/51 58/204/51
f 62/205/52 64/206/52 72/207/52 70/208/52
f 64/209/53 62/210/53 58/211/53 60/212/53
f 69/213/54 71/214/54 63/215/54 61/216/54
f 57/217/55 59/218/55 67/219/55 65/220/55
f 61/221/56 63/222/56 59/223/56 57/224/56
o rotorInPipe1
v 0.75 1.125 -2.1875
v 0.75 1.125 -2.75
v 0.75 0.625 -2.1875
v 0.75 0.625 -2.75
v 0.25 1.125 -2.75
v 0.25 1.125 -2.1875
v 0.25 0.625 -2.75
v 0.25 0.625 -2.1875
vt 0 1
vt 0.0625 1
vt 0.0625 0.9375
vt 0 0.9375
vt 0 1
vt 0.0703125 1
vt 0.0703125 0.9375
vt 0 0.9375
vt 0 1
vt 0.0625 1
vt 0.0625 0.9375
vt 0 0.9375
vt 0 1
vt 0.0703125 1
vt 0.0703125 0.9375
vt 0 0.9375
vt 0 1
vt 0.0625 1
vt 0.0625 0.9296875
vt 0 0.9296875
vt 0 1
vt 0.0625 1
vt 0.0625 0.9296875
vt 0 0.9296875
vn 0 0 -1
vn 1 0 0
vn 0 0 1
vn -1 0 0
vn 0 1 0
vn 0 -1 0
usemtl m_0
f 76/228/57 79/227/57 77/226/57 74/225/57
f 75/232/58 76/231/58 74/230/58 73/229/58
f 80/236/59 75/235/59 73/234/59 78/233/59
f 79/240/60 80/239/60 78/238/60 77/237/60
f 78/244/61 73/243/61 74/242/61 77/241/61
f 79/248/62 76/247/62 75/246/62 80/245/62
o rotorInPipe2
v 0.75 1.5 -2.25
v 0.75 1.5 -2.75
v 0.75 1.125 -2.25
v 0.75 1.125 -2.75
v 0.25 1.5 -2.75
v 0.25 1.5 -2.25
v 0.25 1.125 -2.75
v 0.25 1.125 -2.25
vt 0 1
vt 0.0625 1
vt 0.0625 0.953125
vt 0 0.953125
vt 0 1
vt 0.0625 1
vt 0.0625 0.953125
vt 0 0.953125
vt 0 1
vt 0.0625 1
vt 0.0625 0.953125
vt 0 0.953125
vt 0 1
vt 0.0625 1
vt 0.0625 0.953125
vt 0 0.953125
vt 0 1
vt 0.0625 1
vt 0.0625 0.9375
vt 0 0.9375
vt 0 1
vt 0.0625 1
vt 0.0625 0.9375
vt 0 0.9375
vn 0 0 -1
vn 1 0 0
vn 0 0 1
vn -1 0 0
vn 0 1 0
vn 0 -1 0
usemtl m_0
f 84/252/63 87/251/63 85/250/63 82/249/63
f 83/256/64 84/255/64 82/254/64 81/253/64
f 88/260/65 83/259/65 81/258/65 86/257/65
f 87/264/66 88/263/66 86/262/66 85/261/66
f 86/268/67 81/267/67 82/266/67 85/265/67
f 87/272/68 84/271/68 83/270/68 88/269/68
o rotorInFunnel1
v 0.9375 2 -2.0625
v 0.9375 2 -2.9375
v 0.9375 1.75 -2.0625
v 0.9375 1.75 -2.9375
v 0.0625 2 -2.9375
v 0.0625 2 -2.0625
v 0.0625 1.75 -2.9375
v 0.0625 1.75 -2.0625
vt 0 1
vt 0.109375 1
vt 0.109375 0.96875
vt 0 0.96875
vt 0 1
vt 0.109375 1
vt 0.109375 0.96875
vt 0 0.96875
vt 0 1
vt 0.109375 1
vt 0.109375 0.96875
vt 0 0.96875
vt 0 1
vt 0.109375 1
vt 0.109375 0.96875
vt 0 0.96875
vt 0 1
vt 0.109375 1
vt 0.109375 0.890625
vt 0 0.890625
vt 0 1
vt 0.109375 1
vt 0.109375 0.890625
vt 0 0.890625
vn 0 0 -1
vn 1 0 0
vn 0 0 1
vn -1 0 0
vn 0 1 0
vn 0 -1 0
usemtl m_0
f 92/276/69 95/275/69 93/274/69 90/273/69
f 91/280/70 92/279/70 90/278/70 89/277/70
f 96/284/71 91/283/71 89/282/71 94/281/71
f 95/288/72 96/287/72 94/286/72 93/285/72
f 94/292/73 89/291/73 90/290/73 93/289/73
f 95/296/74 92/295/74 91/294/74 96/293/74
o rotorInFunnel2
v 0.9375 1.75 -2.0625
v 0.9375 1.75 -2.9375
v 0.75 1.5 -2.25
v 0.75 1.5 -2.75
v 0.0625 1.75 -2.0625
v 0.0625 1.75 -2.9375
v 0.25 1.5 -2.25
v 0.25 1.5 -2.75
vt 0.109375 0.96875
vt 0.109375 1
vt 0 1
vt 0 0.96875
vt 0.109375 0.96875
vt 0.109375 1
vt 0 1
vt 0 0.96875
vt 0.109375 0.890625
vt 0.109375 1
vt 0 1
vt 0 0.890625
vt 0.109375 0.890625
vt 0.109375 1
vt 0 1
vt 0 0.890625
vt 0.109375 0.96875
vt 0.109375 1
vt 0 1
vt 0 0.96875
vt 0.109375 0.96875
vt 0.109375 1
vt 0 1
vt 0 0.96875
vn 0.8 -0.6 0
vn -0.8 -0.6 0
vn 0 1 0
vn 0 -1 0
vn 0 -0.6 0.8
vn 0 -0.6 -0.8
usemtl m_0
f 100/297/75 98/298/75 97/299/75 99/300/75
f 103/301/76 101/302/76 102/303/76 104/304/76
f 97/305/77 98/306/77 102/307/77 101/308/77
f 100/309/78 99/310/78 103/311/78 104/312/78
f 99/313/79 97/314/79 101/315/79 103/316/79
f 104/317/80 102/318/80 98/319/80 100/320/80
o rotorOutPipe
v 0.75 0.0625 3.625
v 0.75 0.0625 3.125
v 0.75 -0.1875 3.625
v 0.75 -0.1875 3.125
v 0.25 0.0625 3.125
v 0.25 0.0625 3.625
v 0.25 -0.1875 3.125
v 0.25 -0.1875 3.625
vt 0 1
vt 0.0625 1
vt 0.0625 0.96875
vt 0 0.96875
vt 0 1
vt 0.0625 1
vt 0.0625 0.96875
vt 0 0.96875
vt 0 1
vt 0.0625 1
vt 0.0625 0.96875
vt 0 0.96875
vt 0 1
vt 0.0625 1
vt 0.0625 0.96875
vt 0 0.96875
vt 0 1
vt 0.0625 1
vt 0.0625 0.9375
vt 0 0.9375
vt 0 1
vt 0.0625 1
vt 0.0625 0.9375
vt 0 0.9375
vn 0 0 -1
vn 1 0 0
vn 0 0 1
vn -1 0 0
vn 0 1 0
vn 0 -1 0
usemtl m_0
f 108/324/81 111/323/81 109/322/81 106/321/81
f 107/328/82 108/327/82 106/326/82 105/325/82
f 112/332/83 107/331/83 105/330/83 110/329/83
f 111/336/84 112/335/84 110/334/84 109/333/84
f 110/340/85 105/339/85 106/338/85 109/337/85
f 111/344/86 108/343/86 107/342/86 112/341/86
o screenTop1
v 0.9375 1.9375 -1.1875
v 0.9375 1.9375 -1.75
v 1.5625 1.3125 -1.1875
v 1.5625 1.3125 -1.75
v 0.0625 1.9375 -1.1875
v 0.0625 1.9375 -1.75
v -0.5625 1.3125 -1.1875
v -0.5625 1.3125 -1.75
vt 0.0703125 0.921875
vt 0.0703125 1
vt 0 1
vt 0 0.921875
vt 0.0703125 0.921875
vt 0.0703125 1
vt 0 1
vt 0 0.921875
vt 0.25 0.9296875
vt 0.25 1
vt 0 1
vt 0 0.9296875
vt 0.25 0.9296875
vt 0.25 1
vt 0 1
vt 0 0.9296875
vt 0 0.921875
vt 0.0625 1
vt 0.1875 1
vt 0.25 0.921875
vt 0.25 0.921875
vt 0.25 1
vt 0 1
vt 0 0.921875
vn 0.7071067811865476 0.7071067811865476 0
vn -0.7071067811865476 0.7071067811865476 0
vn 0 1 0
vn 0 -1 0
vn 0 0 1
vn 0 0 -1
usemtl m_0
f 116/345/87 114/346/87 113/347/87 115/348/87
f 119/349/88 117/350/88 118/351/88 120/352/88
f 113/353/89 114/354/89 118/355/89 117/356/89
f 116/357/90 115/358/90 119/359/90 120/360/90
f 115/361/91 113/362/91 117/363/91 119/364/91
f 120/365/92 118/366/92 114/367/92 116/368/92
o screenBase1
v 1.5625 1.3125 -1.1875
v 1.5625 1.3125 -1.75
v 1.5625 -0.5 -1.1875
v 1.5625 -0.5 -1.75
v -0.5625 1.3125 -1.75
v -0.5625 1.3125 -1.1875
v -0.5625 -0.5 -1.75
v -0.5625 -0.5 -1.1875
vt 0 1
vt 0.265625 1
vt 0.265625 0.7734375
vt 0 0.7734375
vt 0 1
vt 0.0703125 1
vt 0.0703125 0.7734375
vt 0 0.7734375
vt 0 1
vt 0.265625 1
vt 0.265625 0.7734375
vt 0 0.7734375
vt 0 1
vt 0.0703125 1
vt 0.0703125 0.7734375
vt 0 0.7734375
vt 0 1
vt 0.265625 1
vt 0.265625 0.9296875
vt 0 0.9296875
vt 0 1
vt 0.265625 1
vt 0.265625 0.9296875
vt 0 0.9296875
vn 0 0 -1
vn 1 0 0
vn 0 0 1
vn -1 0 0
vn 0 1 0
vn 0 -1 0
usemtl m_0
f 124/372/93 127/371/93 125/370/93 122/369/93
f 123/376/94 124/375/94 122/374/94 121/373/94
f 128/380/95 123/379/95 121/378/95 126/377/95
f 127/384/96 128/383/96 126/382/96 125/381/96
f 126/388/97 121/387/97 122/386/97 125/385/97
f 127/392/98 124/391/98 123/390/98 128/389/98
o screenBase2
v 1.5625 1.1875 2.875
v 1.5625 1.1875 2.3125
v 1.5625 -0.5 2.875
v 1.5625 -0.5 2.3125
v -0.5625 1.1875 2.3125
v -0.5625 1.1875 2.875
v -0.5625 -0.5 2.3125
v -0.5625 -0.5 2.875
vt 0 1
vt 0.265625 1
vt 0.265625 0.7890625
vt 0 0.7890625
vt 0 1
vt 0.0703125 1
vt 0.0703125 0.7890625
vt 0 0.7890625
vt 0 1
vt 0.265625 1
vt 0.265625 0.7890625
vt 0 0.7890625
vt 0 1
vt 0.0703125 1
vt 0.0703125 0.7890625
vt 0 0.7890625
vt 0 1
vt 0.265625 1
vt 0.265625 0.9296875
vt 0 0.9296875
vt 0 1
vt 0.265625 1
vt 0.265625 0.9296875
vt 0 0.9296875
vn 0 0 -1
vn 1 0 0
vn 0 0 1
vn -1 0 0
vn 0 1 0
vn 0 -1 0
usemtl m_0
f 132/396/99 135/395/99 133/394/99 130/393/99
f 131/400/100 132/399/100 130/398/100 129/397/100
f 136/404/101 131/403/101 129/402/101 134/401/101
f 135/408/102 136/407/102 134/406/102 133/405/102
f 134/412/103 129/411/103 130/410/103 133/409/103
f 135/416/104 132/415/104 131/414/104 136/413/104
o screenTop2
v 0.9375 1.8125 2.875
v 0.9375 1.8125 2.3125
v 1.5625 1.1875 2.875
v 1.5625 1.1875 2.3125
v 0.0625 1.8125 2.875
v 0.0625 1.8125 2.3125
v -0.5625 1.1875 2.875
v -0.5625 1.1875 2.3125
vt 0 0.88951484375
vt 0 1
vt 0.0703125 1
vt 0.0703125 0.88951484375
vt 0.0703125 0.921875
vt 0.0703125 1
vt 0 1
vt 0 0.921875
vt 0.25 0.9296875
vt 0.25 1
vt 0 1
vt 0 0.9296875
vt 0.25 0.9296875
vt 0.25 1
vt 0 1
vt 0 0.9296875
vt 0 0.921875
vt 0.0625 1
vt 0.1875 1
vt 0.25 0.921875
vt 0.25 0.921875
vt 0.25 1
vt 0 1
vt 0 0.921875
vn 0.7071067811865476 0.7071067811865476 0
vn -0.7071067811865476 0.7071067811865476 0
vn 0 1 0
vn 0 -1 0
vn 0 0 1
vn 0 0 -1
usemtl m_0
f 140/417/105 138/418/105 137/419/105 139/420/105
f 143/421/106 141/422/106 142/423/106 144/424/106
f 137/425/107 138/426/107 142/427/107 141/428/107
f 140/429/108 139/430/108 143/431/108 144/432/108
f 139/433/109 137/434/109 141/435/109 143/436/109
f 144/437/110 142/438/110 138/439/110 140/440/110
o gearBase
v 1.5625 0 -1.75
v 1.5625 0 -2.5
v 1.5625 -0.5 -1.75
v 1.5625 -0.5 -2.5
v -0.5625 0 -2.5
v -0.5625 0 -1.75
v -0.5625 -0.5 -2.5
v -0.5625 -0.5 -1.75
vt 0 1
vt 0.265625 1
vt 0.265625 0.9375
vt 0 0.9375
vt 0 1
vt 0.09375 1
vt 0.09375 0.9375
vt 0 0.9375
vt 0 1
vt 0.265625 1
vt 0.265625 0.9375
vt 0 0.9375
vt 0 1
vt 0.09375 1
vt 0.09375 0.9375
vt 0 0.9375
vt 0 1
vt 0.265625 1
vt 0.265625 0.90625
vt 0 0.90625
vt 0 1
vt 0.265625 1
vt 0.265625 0.90625
vt 0 0.90625
vn 0 0 -1
vn 1 0 0
vn 0 0 1
vn -1 0 0
vn 0 1 0
vn 0 -1 0
usemtl m_0
f 148/444/111 151/443/111 149/442/111 146/441/111
f 147/448/112 148/447/112 146/446/112 145/445/112
f 152/452/113 147/451/113 145/450/113 150/449/113
f 151/456/114 152/455/114 150/454/114 149/453/114
f 150/460/115 145/459/115 146/458/115 149/457/115
f 151/464/116 148/463/116 147/462/116 152/461/116
o gearW1
v 0.25 0.1875 -1.75
v 0.25 0.1875 -2.375
v 0.25 0 -1.75
v 0.25 0 -2.375
v -0.1875 0.1875 -2.375
v -0.1875 0.1875 -1.75
v -0.1875 0 -2.375
v -0.1875 0 -1.75
vt 0 1
vt 0.0546875 1
vt 0.0546875 0.9765625
vt 0 0.9765625
vt 0 1
vt 0.078125 1
vt 0.078125 0.9765625
vt 0 0.9765625
vt 0 1
vt 0.0546875 1
vt 0.0546875 0.9765625
vt 0 0.9765625
vt 0 1
vt 0.078125 1
vt 0.078125 0.9765625
vt 0 0.9765625
vt 0 1
vt 0.0546875 1
vt 0.0546875 0.921875
vt 0 0.921875
vt 0 1
vt 0.0546875 1
vt 0.0546875 0.921875
vt 0 0.921875
vn 0 0 -1
vn 1 0 0
vn 0 0 1
vn -1 0 0
vn 0 1 0
vn 0 -1 0
usemtl m_0
f 156/468/117 159/467/117 157/466/117 154/465/117
f 155/472/118 156/471/118 154/470/118 153/469/118
f 160/476/119 155/475/119 153/474/119 158/473/119
f 159/480/120 160/479/120 158/478/120 157/477/120
f 158/484/121 153/483/121 154/482/121 157/481/121
f 159/488/122 156/487/122 155/486/122 160/485/122
o gearW2
v 0.125 0.3125 -1.75
v 0.125 0.3125 -2.375
v 0.25 0.1875 -1.75
v 0.25 0.1875 -2.375
v -0.0625 0.3125 -1.75
v -0.0625 0.3125 -2.375
v -0.1875 0.1875 -1.75
v -0.1875 0.1875 -2.375
vt 0.078125 0.96875
vt 0.078125 1
vt 0 1
vt 0 0.96875
vt 0.078125 0.96875
vt 0.078125 1
vt 0 1
vt 0 0.96875
vt 0.0625 0.921875
vt 0.0625 1
vt 0 1
vt 0 0.921875
vt 0.0625 0.921875
vt 0.0625 1
vt 0 1
vt 0 0.921875
vt 0.0625 0.96875
vt 0.0625 1
vt 0 1
vt 0 0.96875
vt 0.0625 0.96875
vt 0.0625 1
vt 0 1
vt 0 0.96875
vn 0.7071067811865476 0.7071067811865476 0
vn -0.7071067811865476 0.7071067811865476 0
vn 0 1 0
vn 0 -1 0
vn 0 0 1
vn 0 0 -1
usemtl m_0
f 164/489/123 162/490/123 161/491/123 163/492/123
f 167/493/124 165/494/124 166/495/124 168/496/124
f 161/497/125 162/498/125 166/499/125 165/500/125
f 164/501/126 163/502/126 167/503/126 168/504/126
f 163/505/127 161/506/127 165/507/127 167/508/127
f 168/509/128 166/510/128 162/511/128 164/512/128
o gearE2
v 1.0625 0.3125 -1.75
v 1.0625 0.3125 -2.375
v 1.1875 0.1875 -1.75
v 1.1875 0.1875 -2.375
v 0.875 0.3125 -1.75
v 0.875 0.3125 -2.375
v 0.75 0.1875 -1.75
v 0.75 0.1875 -2.375
vt 0.078125 0.96875
vt 0.078125 1
vt 0 1
vt 0 0.96875
vt 0.078125 0.96875
vt 0.078125 1
vt 0 1
vt 0 0.96875
vt 0.0625 0.921875
vt 0.0625 1
vt 0 1
vt 0 0.921875
vt 0.0625 0.921875
vt 0.0625 1
vt 0 1
vt 0 0.921875
vt 0.0625 0.96875
vt 0.0625 1
vt 0 1
vt 0 0.96875
vt 0.0625 0.96875
vt 0.0625 1
vt 0 1
vt 0 0.96875
vn 0.7071067811865476 0.7071067811865476 0
vn -0.7071067811865476 0.7071067811865476 0
vn 0 1 0
vn 0 -1 0
vn 0 0 1
vn 0 0 -1
usemtl m_0
f 172/513/129 170/514/129 169/515/129 171/516/129
f 175/517/130 173/518/130 174/519/130 176/520/130
f 169/521/131 170/522/131 174/523/131 173/524/131
f 172/525/132 171/526/132 175/527/132 176/528/132
f 171/529/133 169/530/133 173/531/133 175/532/133
f 176/533/134 174/534/134 170/535/134 172/536/134
o gearE1
v 1.1875 0.1875 -1.75
v 1.1875 0.1875 -2.375
v 1.1875 0 -1.75
v 1.1875 0 -2.375
v 0.75 0.1875 -2.375
v 0.75 0.1875 -1.75
v 0.75 0 -2.375
v 0.75 0 -1.75
vt 0 1
vt 0.0546875 1
vt 0.0546875 0.9765625
vt 0 0.9765625
vt 0 1
vt 0.078125 1
vt 0.078125 0.9765625
vt 0 0.9765625
vt 0 1
vt 0.0546875 1
vt 0.0546875 0.9765625
vt 0 0.9765625
vt 0 1
vt 0.078125 1
vt 0.078125 0.9765625
vt 0 0.9765625
vt 0 1
vt 0.0546875 1
vt 0.0546875 0.921875
vt 0 0.921875
vt 0 1
vt 0.0546875 1
vt 0.0546875 0.921875
vt 0 0.921875
vn 0 0 -1
vn 1 0 0
vn 0 0 1
vn -1 0 0
vn 0 1 0
vn 0 -1 0
usemtl m_0
f 180/540/135 183/539/135 181/538/135 178/537/135
f 179/544/136 180/543/136 178/542/136 177/541/136
f 184/548/137 179/547/137 177/546/137 182/545/137
f 183/552/138 184/551/138 182/550/138 181/549/138
f 182/556/139 177/555/139 178/554/139 181/553/139
f 183/560/140 180/559/140 179/558/140 184/557/140
o cube
v 1 0 -2.5
v 1 0 -3
v 1 -0.5 -2.5
v 1 -0.5 -3
v 0 0 -3
v 0 0 -2.5
v 0 -0.5 -3
v 0 -0.5 -2.5
vt 0 1
vt 0.125 1
vt 0.125 0.9375
vt 0 0.9375
vt 0 1
vt 0.0625 1
vt 0.0625 0.9375
vt 0 0.9375
vt 0 1
vt 0.125 1
vt 0.125 0.9375
vt 0 0.9375
vt 0 1
vt 0.0625 1
vt 0.0625 0.9375
vt 0 0.9375
vt 0 1
vt 0.125 1
vt 0.125 0.9375
vt 0 0.9375
vt 0 1
vt 0.125 1
vt 0.125 0.9375
vt 0 0.9375
vn 0 0 -1
vn 1 0 0
vn 0 0 1
vn -1 0 0
vn 0 1 0
vn 0 -1 0
usemtl m_0
f 188/564/141 191/563/141 189/562/141 186/561/141
f 187/568/142 188/567/142 186/566/142 185/565/142
f 192/572/143 187/571/143 185/570/143 190/569/143
f 191/576/144 192/575/144 190/574/144 189/573/144
f 190/580/145 185/579/145 186/578/145 189/577/145
f 191/584/146 188/583/146 187/582/146 192/581/146