# Made in Blockbench 4.1.5
mtllib rotary_kiln.mtl

o rotorInEnd
v 0.25 0.71875 -4.625
v 0.25 0.71875 -5.125
v 0.25 -0.59375 -4.625
v 0.25 -0.59375 -5.125
v -0.25 0.71875 -4.625
v -0.25 0.71875 -5.125
v -0.25 -0.59375 -4.625
v -0.25 -0.59375 -5.125
v 0.65625 0.3125 -4.625
v 0.65625 0.3125 -5.125
v 0.65625 -0.1875 -4.625
v 0.65625 -0.1875 -5.125
v -0.65625 0.3125 -4.625
v -0.65625 0.3125 -5.125
v -0.65625 -0.1875 -4.625
v -0.65625 -0.1875 -5.125
vt 0.25 0.3671875
vt 0.1875 0.3671875
vt 0.1875 0.4296875
vt 0.25 0.4296875
vt 0.25 0.3359375
vt 0.1875 0.3359375
vt 0.1875 0.3984375
vt 0.25 0.3984375
vt 0.1875 0.3359375
vt 0.1875 0.3984375
vt 0.25 0.3984375
vt 0.25 0.3359375
vt 0.1875 0.375
vt 0.1875 0.3125
vt 0.25 0.3125
vt 0.25 0.375
vt 0.25 0.3125
vt 0.25 0.375
vt 0.1875 0.375
vt 0.1875 0.3125
vt 0.25 0.34375
vt 0.25 0.40625
vt 0.1875 0.40625
vt 0.1875 0.34375
vt 0.1875 0.3046875
vt 0.1875 0.3671875
vt 0.25 0.3671875
vt 0.25 0.3046875
vt 0.1875 0.3671875
vt 0.1875 0.4296875
vt 0.25 0.4296875
vt 0.25 0.3671875
vt 0.30078125 0.4453125
vt 0.30078125 0.3828125
vt 0.3515625 0.33203125
vt 0.3515625 0.49609375
vt 0.4140625 0.49609375
vt 0.4140625 0.33203125
vt 0.46484375 0.3828125
vt 0.46484375 0.4453125
vt 0.3515625 0.33203125
vt 0.3515625 0.49609375
vt 0.4140625 0.49609375
vt 0.4140625 0.33203125
vn 0 1 0
vn 0 -1 0
vn 1 0 0
vn -1 0 0
vn -0.7071067811865476 0.7071067811865476 0
vn -0.7071067811865476 -0.7071067811865476 0
vn 0.7071067811865476 -0.7071067811865476 0
vn 0.7071067811865476 0.7071067811865476 0
vn 0 0 -1
vn 0 0 -1
vn 0 0 -1
usemtl m_1
f 1/1/1 2/2/1 6/3/1 5/4/1
f 4/5/2 3/6/2 7/7/2 8/8/2
f 12/9/3 10/10/3 9/11/3 11/12/3
f 15/13/4 13/14/4 14/15/4 16/16/4
f 6/17/5 14/18/5 13/19/5 5/20/5
f 16/21/6 8/22/6 7/23/6 15/24/6
f 4/25/7 12/26/7 11/27/7 3/28/7
f 10/29/8 2/30/8 1/31/8 9/32/8
f 10/33/9 12/34/9 4/35/9 2/36/9
f 6/37/10 8/38/10 16/39/10 14/40/10
f 8/41/11 6/42/11 2/43/11 4/44/11