# Made in Blockbench 4.2.1
mtllib rotary_kiln.mtl

o rotorInEnd
v 0.75 1.50898998853781 -1.6913210594377093
v 0.75 1.5264864159886087 -2.1910148406942493
v 0.25 1.5264864159886087 -2.1910148406942493
v 0.25 1.50898998853781 -1.6913210594377093
v 0.75 0.21479024019019097 -2.236942962752596
v 0.75 0.1972938127393922 -1.7372491814960558
v 0.25 0.1972938127393922 -1.7372491814960558
v 0.25 0.21479024019019097 -2.236942962752596
v 1.15625 0.6207914374611297 -2.222727115448822
v 1.15625 1.12048521871767 -2.2052306879980232
v 1.15625 1.1029887912668712 -1.7055369067414832
v 1.15625 0.6032950100103309 -1.7230333341922819
v -0.15625 0.6032950100103309 -1.7230333341922819
v -0.15625 1.1029887912668712 -1.7055369067414832
v -0.15625 1.12048521871767 -2.2052306879980232
v -0.15625 0.6207914374611297 -2.222727115448822
vt 0.25 0.3671875
vt 0.1875 0.3671875
vt 0.1875 0.4296875
vt 0.25 0.4296875
vt 0.25 0.3359375
vt 0.1875 0.3359375
vt 0.1875 0.3984375
vt 0.25 0.3984375
vt 0.1875 0.3359375
vt 0.1875 0.3984375
vt 0.25 0.3984375
vt 0.25 0.3359375
vt 0.1875 0.375
vt 0.1875 0.3125
vt 0.25 0.3125
vt 0.25 0.375
vt 0.25 0.3125
vt 0.25 0.375
vt 0.1875 0.375
vt 0.1875 0.3125
vt 0.25 0.34375
vt 0.25 0.40625
vt 0.1875 0.40625
vt 0.1875 0.34375
vt 0.1875 0.3046875
vt 0.1875 0.3671875
vt 0.25 0.3671875
vt 0.25 0.3046875
vt 0.1875 0.3671875
vt 0.1875 0.4296875
vt 0.25 0.4296875
vt 0.25 0.3671875
vt 0.30078125 0.4453125
vt 0.30078125 0.3828125
vt 0.3515625 0.33203125
vt 0.3515625 0.49609375
vt 0.4140625 0.49609375
vt 0.4140625 0.33203125
vt 0.46484375 0.3828125
vt 0.46484375 0.4453125
vt 0.3515625 0.33203125
vt 0.3515625 0.49609375
vt 0.4140625 0.49609375
vt 0.4140625 0.33203125
vn 0 0.9993875625130801 0.034992854901597426
vn 0 -0.9993875625130801 -0.03499285490159754
vn 1 0 0
vn -1 0 0
vn -0.7071067811865475 0.7066737224864938 0.024743684993996463
vn -0.7071067811865475 -0.7066737224864938 -0.02474368499399656
vn 0.7071067811865475 -0.7066737224864938 -0.024743684993996658
vn 0.7071067811865475 0.7066737224864938 0.024743684993996463
vn -1.1956247957501683e-16 0.03499285490159742 -0.9993875625130801
vn 5.2054412876197816e-17 0.03499285490159734 -0.9993875625130801
vn 0 0.03499285490159734 -0.9993875625130803
usemtl m_1
f 1/1/1 2/2/1 3/3/1 4/4/1
f 5/5/2 6/6/2 7/7/2 8/8/2
f 9/9/3 10/10/3 11/11/3 12/12/3
f 13/13/4 14/14/4 15/15/4 16/16/4
f 3/17/5 15/18/5 14/19/5 4/20/5
f 16/21/6 8/22/6 7/23/6 13/24/6
f 5/25/7 9/26/7 12/27/7 6/28/7
f 10/29/8 2/30/8 1/31/8 11/32/8
f 10/33/9 9/34/9 5/35/9 2/36/9
f 3/37/10 8/38/10 16/39/10 15/40/10
f 8/41/11 3/42/11 2/43/11 5/44/11