# Made in Blockbench 4.1.3
mtllib rotary_kiln.mtl

o rotorInEnd
v 0.25 0.71875 -4.625
v 0.25 0.71875 -5.125
v 0.25 -0.59375 -4.625
v 0.25 -0.59375 -5.125
v -0.25 0.71875 -4.625
v -0.25 0.71875 -5.125
v -0.25 -0.59375 -4.625
v -0.25 -0.59375 -5.125
v 0.65625 0.3125 -4.625
v 0.65625 0.3125 -5.125
v 0.65625 -0.1875 -4.625
v 0.65625 -0.1875 -5.125
v -0.65625 0.3125 -4.625
v -0.65625 0.3125 -5.125
v -0.65625 -0.1875 -4.625
v -0.65625 -0.1875 -5.125
vt 0.09375 0.875
vt 0.09375 1
vt 0 1
vt 0 0.875
vt 0.09375 0.875
vt 0.09375 1
vt 0 1
vt 0 0.875
vt 0.125 0.90625
vt 0.125 1
vt 0 1
vt 0 0.90625
vt 0.125 0.90625
vt 0.125 1
vt 0 1
vt 0 0.90625
vt 0.125 1
vt 0.125 0.90608671875
vt 0 0.90608671875
vt 0 1
vt 0.125 1
vt 0.125 0.90608671875
vt 0 0.90608671875
vt 0 1
vt 0 0.90608671875
vt 0 1
vt 0.125 1
vt 0.125 0.90608671875
vt 0 0.90608671875
vt 0 1
vt 0.125 1
vt 0.125 0.90608671875
vt 0.05859375 0.91796875
vt 0.05859375 0.85546875
vt 0.0078125 0.8046875
vt 0.0078125 0.96875
vt 0.08203125 0.953125
vt 0.08203125 0.7890625
vt 0.03125 0.83984375
vt 0.03125 0.90234375
vt 0.015625 0.796875
vt 0.015625 0.9609375
vt 0.078125 0.9609375
vt 0.078125 0.796875
vt 0.06640625 0.93359375
vt 0.06640625 0.83984375
vt 0 0.7734375
vt 0 1
vt 0.06640625 1
vt 0.06640625 0.7734375
vt 0 0.83984375
vt 0 0.93359375
vt 0.09375 1
vt 0.09375 0.7734375
vt 0 0.7734375
vt 0 1
vn 0 1 0
vn 0 -1 0
vn 1 0 0
vn -1 0 0
vn -0.7071067811865476 0.7071067811865476 0
vn -0.7071067811865476 -0.7071067811865476 0
vn 0.7071067811865476 -0.7071067811865476 0
vn 0.7071067811865476 0.7071067811865476 0
vn 0 0 -1
vn 0 0 -1
vn 0 0 -1
vn 0 0 1
vn 0 0 1
vn 0 0 1
usemtl m_0
f 1/1/1 2/2/1 6/3/1 5/4/1
f 4/5/2 3/6/2 7/7/2 8/8/2
f 12/9/3 10/10/3 9/11/3 11/12/3
f 15/13/4 13/14/4 14/15/4 16/16/4
f 6/17/5 14/18/5 13/19/5 5/20/5
f 16/21/6 8/22/6 7/23/6 15/24/6
f 4/25/7 12/26/7 11/27/7 3/28/7
f 10/29/8 2/30/8 1/31/8 9/32/8
f 10/33/9 12/34/9 4/35/9 2/36/9
f 6/37/10 8/38/10 16/39/10 14/40/10
f 8/41/11 6/42/11 2/43/11 4/44/11
f 13/45/12 15/46/12 7/47/12 5/48/12
f 1/49/13 3/50/13 11/51/13 9/52/13
f 5/53/14 7/54/14 3/55/14 1/56/14
o rotorOutEnd
v 0.25 0.71875 0.875
v 0.25 0.71875 -0.125
v 0.25 -0.59375 0.875
v 0.25 -0.59375 -0.125
v -0.25 0.71875 0.875
v -0.25 0.71875 -0.125
v -0.25 -0.59375 0.875
v -0.25 -0.59375 -0.125
v 0.65625 0.3125 0.875
v 0.65625 0.3125 -0.125
v 0.65625 -0.1875 0.875
v 0.65625 -0.1875 -0.125
v -0.65625 0.3125 0.875
v -0.65625 0.3125 -0.125
v -0.65625 -0.1875 0.875
v -0.65625 -0.1875 -0.125
vt 0.09375 0.875
vt 0.09375 1
vt 0 1
vt 0 0.875
vt 0.09375 0.875
vt 0.09375 1
vt 0 1
vt 0 0.875
vt 0.125 0.90625
vt 0.125 1
vt 0 1
vt 0 0.90625
vt 0 0.921875
vt 0 0.984375
vt 0.125 0.984375
vt 0.125 0.921875
vt 0.125 0.984375
vt 0.125 0.9125593750000001
vt 0 0.9125593750000001
vt 0 0.984375
vt 0.125 1
vt 0.125 0.90608671875
vt 0 0.90608671875
vt 0 1
vt 0 0.90608671875
vt 0 1
vt 0.125 1
vt 0.125 0.90608671875
vt 0 0.90608671875
vt 0 1
vt 0.125 1
vt 0.125 0.90608671875
vt 0.06640625 0.93359375
vt 0.06640625 0.83984375
vt 0 0.7734375
vt 0 1
vt 0.06640625 1
vt 0.06640625 0.7734375
vt 0 0.83984375
vt 0 0.93359375
vt 0 0.7734375
vt 0 1
vt 0.09375 1
vt 0.09375 0.7734375
vt 0.05859375 0.90234375
vt 0.05859375 0.83984375
vt 0.0078125 0.7890625
vt 0.0078125 0.953125
vt 0.07421875 0.953125
vt 0.07421875 0.7890625
vt 0.0234375 0.83984375
vt 0.0234375 0.90234375
vt 0.078125 0.953125
vt 0.078125 0.7890625
vt 0.015625 0.7890625
vt 0.015625 0.953125
vn 0 1 0
vn 0 -1 0
vn 1 0 0
vn -1 0 0
vn -0.7071067811865476 0.7071067811865476 0
vn -0.7071067811865476 -0.7071067811865476 0
vn 0.7071067811865476 -0.7071067811865476 0
vn 0.7071067811865476 0.7071067811865476 0
vn 0 0 -1
vn 0 0 -1
vn 0 0 -1
vn 0 0 1
vn 0 0 1
vn 0 0 1
usemtl m_0
f 17/57/15 18/58/15 22/59/15 21/60/15
f 20/61/16 19/62/16 23/63/16 24/64/16
f 28/65/17 26/66/17 25/67/17 27/68/17
f 31/69/18 29/70/18 30/71/18 32/72/18
f 22/73/19 30/74/19 29/75/19 21/76/19
f 32/77/20 24/78/20 23/79/20 31/80/20
f 20/81/21 28/82/21 27/83/21 19/84/21
f 26/85/22 18/86/22 17/87/22 25/88/22
f 26/89/23 28/90/23 20/91/23 18/92/23
f 22/93/24 24/94/24 32/95/24 30/96/24
f 24/97/25 22/98/25 18/99/25 20/100/25
f 29/101/26 31/102/26 23/103/26 21/104/26
f 17/105/27 19/106/27 27/107/27 25/108/27
f 21/109/28 23/110/28 19/111/28 17/112/28