# Made in Blockbench 4.0.5
mtllib steam_turbine.mtl

o redstone
v -0.9999999999999999 1.0000000000000004 -3
v -0.9999999999999999 1.0000000000000002 -1.9999999999999998
v -1 2.525834023241416e-16 -3
v -1 1.3011872240940627e-16 -2
v -0.4999999999999999 1 -1.9999999999999998
v -0.4999999999999999 1.0000000000000002 -3
v -0.5 6.888638245203862e-17 -2
v -0.5 1.9135106236677392e-16 -3
vt 0.75 0.75
vt 0.828125 0.75
vt 0.828125 0.65625
vt 0.75 0.65625
vt 0 0.625
vt 0.125 0.625
vt 0.125 0.5
vt 0 0.5
vt 0.75 0.75
vt 0.828125 0.75
vt 0.828125 0.65625
vt 0.75 0.65625
vt 0.75 0.75
vt 0.828125 0.75
vt 0.828125 0.65625
vt 0.75 0.65625
vt 0.75 0.75
vt 0.828125 0.75
vt 0.828125 0.65625
vt 0.75 0.65625
vt 0.75 0.75
vt 0.828125 0.75
vt 0.828125 0.65625
vt 0.75 0.65625
vn -1.4997597826618576e-32 -1.2246467991473532e-16 1
vn -1 1.2246467991473532e-16 0
vn 1.4997597826618576e-32 1.2246467991473532e-16 -1
vn 1 -1.2246467991473532e-16 0
vn 1.2246467991473532e-16 1 1.2246467991473532e-16
vn -1.2246467991473532e-16 -1 -1.2246467991473532e-16
usemtl m_0
f 4/4/1 7/3/1 5/2/1 2/1/1
f 3/8/2 4/7/2 2/6/2 1/5/2
f 8/12/3 3/11/3 1/10/3 6/9/3
f 7/16/4 8/15/4 6/14/4 5/13/4
f 6/20/5 1/19/5 2/18/5 5/17/5
f 7/24/6 4/23/6 3/22/6 8/21/6
o redstone2
v -0.875 1.4542680739874819e-16 -2.25
v -0.875 1.3011872240940627e-16 -2.125
v -0.8750000000000001 -0.5624999999999999 -2.25
v -0.8750000000000001 -0.5624999999999999 -2.125
v -0.6875 1.071565949253934e-16 -2.125
v -0.6875 1.2246467991473532e-16 -2.25
v -0.6875000000000001 -0.5624999999999999 -2.125
v -0.6875000000000001 -0.5624999999999999 -2.25
vt 0 1
vt 0.0234375 1
vt 0.0234375 0.9296875
vt 0 0.9296875
vt 0 1
vt 0.015625 1
vt 0.015625 0.9296875
vt 0 0.9296875
vt 0 1
vt 0.0234375 1
vt 0.0234375 0.9296875
vt 0 0.9296875
vt 0 1
vt 0.015625 1
vt 0.015625 0.9296875
vt 0 0.9296875
vt 0 1
vt 0.0234375 1
vt 0.0234375 0.984375
vt 0 0.984375
vt 0 1
vt 0.0234375 1
vt 0.0234375 0.984375
vt 0 0.984375
vn -1.4997597826618576e-32 -1.2246467991473532e-16 1
vn -1 1.2246467991473532e-16 0
vn 1.4997597826618576e-32 1.2246467991473532e-16 -1
vn 1 -1.2246467991473532e-16 0
vn 1.2246467991473532e-16 1 1.2246467991473532e-16
vn -1.2246467991473532e-16 -1 -1.2246467991473532e-16
usemtl m_0
f 12/28/7 15/27/7 13/26/7 10/25/7
f 11/32/8 12/31/8 10/30/8 9/29/8
f 16/36/9 11/35/9 9/34/9 14/33/9
f 15/40/10 16/39/10 14/38/10 13/37/10
f 14/44/11 9/43/11 10/42/11 13/41/11
f 15/48/12 12/47/12 11/46/12 16/45/12
o redstone3
v -0.875 2.2196723234545778e-16 -2.875
v -0.875 2.0665914735611586e-16 -2.75
v -0.8750000000000001 -0.5624999999999998 -2.875
v -0.8750000000000001 -0.5624999999999998 -2.75
v -0.6875 1.8369701987210297e-16 -2.75
v -0.6875 1.990051048614449e-16 -2.875
v -0.6875000000000001 -0.5624999999999998 -2.75
v -0.6875000000000001 -0.5624999999999998 -2.875
vt 0 1
vt 0.0234375 1
vt 0.0234375 0.9296875
vt 0 0.9296875
vt 0 1
vt 0.015625 1
vt 0.015625 0.9296875
vt 0 0.9296875
vt 0 1
vt 0.0234375 1
vt 0.0234375 0.9296875
vt 0 0.9296875
vt 0 1
vt 0.015625 1
vt 0.015625 0.9296875
vt 0 0.9296875
vt 0 1
vt 0.0234375 1
vt 0.0234375 0.984375
vt 0 0.984375
vt 0 1
vt 0.0234375 1
vt 0.0234375 0.984375
vt 0 0.984375
vn -1.4997597826618576e-32 -1.2246467991473532e-16 1
vn -1 1.2246467991473532e-16 0
vn 1.4997597826618576e-32 1.2246467991473532e-16 -1
vn 1 -1.2246467991473532e-16 0
vn 1.2246467991473532e-16 1 1.2246467991473532e-16
vn -1.2246467991473532e-16 -1 -1.2246467991473532e-16
usemtl m_0
f 20/52/13 23/51/13 21/50/13 18/49/13
f 19/56/14 20/55/14 18/54/14 17/53/14
f 24/60/15 19/59/15 17/58/15 22/57/15
f 23/64/16 24/63/16 22/62/16 21/61/16
f 22/68/17 17/67/17 18/66/17 21/65/17
f 23/72/18 20/71/18 19/70/18 24/69/18
o s
v -0.75 0.24999999999999964 2
v -0.75 0.2499999999999995 3
v -0.7500000000000001 -0.5625000000000003 2
v -0.7500000000000001 -0.5625000000000004 3
v 1.75 0.24999999999999917 3
v 1.75 0.2499999999999993 2
v 1.75 -0.5625000000000008 3
v 1.75 -0.5625000000000007 2
vt 0.3203125 0.34375
vt 0.3203125 0.4375
vt 0.4453125 0.4375
vt 0.4453125 0.34375
vt 0.3203125 0.34375
vt 0.3203125 0.4375
vt 0.4453125 0.4375
vt 0.4453125 0.34375
vt 0.0078125 0.4375
vt 0.3203125 0.4375
vt 0.3203125 0.34375
vt 0.0078125 0.34375
vn -1 1.2246467991473532e-16 0
vn 1 -1.2246467991473532e-16 0
vn 1.2246467991473532e-16 1 1.2246467991473532e-16
usemtl m_0
f 27/76/19 28/75/19 26/74/19 25/73/19
f 31/80/20 32/79/20 30/78/20 29/77/20
f 30/84/21 25/83/21 26/82/21 29/81/21
o f
v -0.9999999999999999 0.9999999999999997 3
v -0.9999999999999999 0.9999999999999994 4
v -1 -0.5625000000000004 3
v -1 -0.5625000000000007 4
v 2 0.999999999999999 4
v 2 0.9999999999999992 3
v 2 -0.562500000000001 4
v 2 -0.5625000000000008 3
vt 0.3203125 0.8671875
vt 0.6953125 0.8671875
vt 0.6953125 0.6796875
vt 0.3203125 0.6796875
vt 0.2421875 0.8671875
vt 0.3671875 0.8671875
vt 0.3671875 0.6796875
vt 0.2421875 0.6796875
vt 0.3203125 0.8671875
vt 0.6953125 0.8671875
vt 0.6953125 0.6796875
vt 0.3203125 0.6796875
vt 0.5625 0.8671875
vt 0.6875 0.8671875
vt 0.6875 0.6796875
vt 0.5625 0.6796875
vt 0.21875 0.15625
vt 0.59375 0.15625
vt 0.59375 0.03125
vt 0.21875 0.03125
vn -1.4997597826618576e-32 -1.2246467991473532e-16 1
vn -1 1.2246467991473532e-16 0
vn 1.4997597826618576e-32 1.2246467991473532e-16 -1
vn 1 -1.2246467991473532e-16 0
vn 1.2246467991473532e-16 1 1.2246467991473532e-16
usemtl m_0
f 36/88/22 39/87/22 37/86/22 34/85/22
f 35/92/23 36/91/23 34/90/23 33/89/23
f 40/96/24 35/95/24 33/94/24 38/93/24
f 39/100/25 40/99/25 38/98/25 37/97/25
f 38/104/26 33/103/26 34/102/26 37/101/26
o z
v -0.4999999999999999 0.9999999999999998 -0.4999999999999998
v -0.4999999999999999 0.9999999999999997 0.875
v -0.5000000000000001 -0.5625000000000001 -0.5
v -0.5000000000000001 -0.5625000000000002 0.875
v 1.5000000000000002 0.9999999999999994 0.875
v 1.5000000000000002 0.9999999999999996 -0.4999999999999998
v 1.5 -0.5625000000000006 0.875
v 1.5 -0.5625000000000004 -0.5
vt 0.5234375 0.875
vt 0.6953125 0.875
vt 0.6953125 0.6796875
vt 0.5234375 0.6796875
vt 0.5234375 0.875
vt 0.6953125 0.875
vt 0.6953125 0.6796875
vt 0.5234375 0.6796875
vt 0.5234375 0.875
vt 0.6953125 0.875
vt 0.6953125 0.6796875
vt 0.5234375 0.6796875
vn -1 1.2246467991473532e-16 0
vn 1 -1.2246467991473532e-16 0
vn 1.2246467991473532e-16 1 1.2246467991473532e-16
usemtl m_0
f 43/108/27 44/107/27 42/106/27 41/105/27
f 47/112/28 48/111/28 46/110/28 45/109/28
f 46/116/29 41/115/29 42/114/29 45/113/29
o pipeline2
v 1.25 0.75 -2.875
v 1.25 0.7499999999999999 -2.125
v 1.25 0.24999999999999994 -2.875
v 1.25 0.24999999999999986 -2.125
v 1.75 0.7499999999999998 -2.125
v 1.75 0.7499999999999999 -2.875
v 1.75 0.2499999999999998 -2.125
v 1.75 0.2499999999999999 -2.875
vt 0.9375 0.75
vt 0.9375 0.84375
vt 1 0.84375
vt 1 0.75
vt 0.9375 0.75
vt 0.9375 0.84375
vt 1 0.84375
vt 1 0.75
vt 0.9375 0.75
vt 0.9375 0.84375
vt 1 0.84375
vt 1 0.75
vt 0.9375 0.75
vt 0.9375 0.84375
vt 1 0.84375
vt 1 0.75
vt 0.9375 0.84375
vt 1 0.84375
vt 1 0.75
vt 0.9375 0.75
vt 0.9375 0.84375
vt 1 0.84375
vt 1 0.75
vt 0.9375 0.75
vn -1.4997597826618576e-32 -1.2246467991473532e-16 1
vn -1 1.2246467991473532e-16 0
vn 1.4997597826618576e-32 1.2246467991473532e-16 -1
vn 1 -1.2246467991473532e-16 0
vn 1.2246467991473532e-16 1 1.2246467991473532e-16
vn -1.2246467991473532e-16 -1 -1.2246467991473532e-16
usemtl m_0
f 52/120/30 55/119/30 53/118/30 50/117/30
f 51/124/31 52/123/31 50/122/31 49/121/31
f 56/128/32 51/127/32 49/126/32 54/125/32
f 55/132/33 56/131/33 54/130/33 53/129/33
f 54/136/34 49/135/34 50/134/34 53/133/34
f 55/140/35 52/139/35 51/138/35 56/137/35
o pipeline3
v 1.2500000000000002 1.1874999999999998 -2.125
v 1.2500000000000002 1.1874999999999998 -1.6249999999999998
v 1.25 0.24999999999999986 -2.125
v 1.25 0.2499999999999998 -1.625
v 1.7500000000000002 1.1874999999999998 -1.6249999999999998
v 1.7500000000000002 1.1874999999999998 -2.125
v 1.75 0.24999999999999975 -1.625
v 1.75 0.2499999999999998 -2.125
vt 0.84375 0.7890625
vt 0.8984375 0.7890625
vt 0.8984375 0.890625
vt 0.84375 0.890625
vt 1 0.765625
vt 0.9375 0.765625
vt 0.9375 0.9375
vt 1 0.9375
vt 1 0.765625
vt 0.9375 0.765625
vt 0.9375 0.9375
vt 1 0.9375
vt 1 0.765625
vt 0.9375 0.765625
vt 0.9375 0.9375
vt 1 0.9375
vt 0.9375 0.8671875
vt 1 0.8671875
vt 1 0.8203125
vt 0.9375 0.8203125
vt 0.9375 0.8671875
vt 1 0.8671875
vt 1 0.8203125
vt 0.9375 0.8203125
vn -1.4997597826618576e-32 -1.2246467991473532e-16 1
vn -1 1.2246467991473532e-16 0
vn 1.4997597826618576e-32 1.2246467991473532e-16 -1
vn 1 -1.2246467991473532e-16 0
vn 1.2246467991473532e-16 1 1.2246467991473532e-16
vn -1.2246467991473532e-16 -1 -1.2246467991473532e-16
usemtl m_0
f 60/144/36 63/143/36 61/142/36 58/141/36
f 59/148/37 60/147/37 58/146/37 57/145/37
f 64/152/38 59/151/38 57/150/38 62/149/38
f 63/156/39 64/155/39 62/154/39 61/153/39
f 62/160/40 57/159/40 58/158/40 61/157/40
f 63/164/41 60/163/41 59/162/41 64/161/41
o pipeline4
v 1.2500000000000002 1.6874999999999998 -2.125
v 1.2500000000000002 1.6874999999999996 -0.8749999999999998
v 1.2500000000000002 1.1874999999999998 -2.125
v 1.2500000000000002 1.1874999999999996 -0.8749999999999998
v 1.7500000000000002 1.6874999999999996 -0.8749999999999998
v 1.7500000000000002 1.6874999999999998 -2.125
v 1.7500000000000002 1.1874999999999996 -0.8749999999999998
v 1.7500000000000002 1.1874999999999998 -2.125
vt 0.84375 0.90625
vt 0.90625 0.90625
vt 0.90625 0.7890625
vt 0.84375 0.7890625
vt 1 0.9375
vt 1 0.8203125
vt 0.9375 0.8203125
vt 0.9375 0.9375
vt 0.84375 0.90625
vt 0.90625 0.90625
vt 0.90625 0.7890625
vt 0.84375 0.7890625
vt 1 0.9375
vt 1 0.8203125
vt 0.9375 0.8203125
vt 0.9375 0.9375
vt 0.90625 0.90625
vt 0.90625 0.7890625
vt 0.84375 0.7890625
vt 0.84375 0.90625
vt 0.90625 0.90625
vt 0.90625 0.7890625
vt 0.84375 0.7890625
vt 0.84375 0.90625
vn -1.4997597826618576e-32 -1.2246467991473532e-16 1
vn -1 1.2246467991473532e-16 0
vn 1.4997597826618576e-32 1.2246467991473532e-16 -1
vn 1 -1.2246467991473532e-16 0
vn 1.2246467991473532e-16 1 1.2246467991473532e-16
vn -1.2246467991473532e-16 -1 -1.2246467991473532e-16
usemtl m_0
f 68/168/42 71/167/42 69/166/42 66/165/42
f 67/172/43 68/171/43 66/170/43 65/169/43
f 72/176/44 67/175/44 65/174/44 70/173/44
f 71/180/45 72/179/45 70/178/45 69/177/45
f 70/184/46 65/183/46 66/182/46 69/181/46
f 71/188/47 68/187/47 67/186/47 72/185/47
o pipeline5
v 1.2500000000000002 1.1874999999999998 -1.375
v 1.2500000000000002 1.1874999999999996 -0.8749999999999998
v 1.25 0.6874999999999998 -1.375
v 1.25 0.6874999999999998 -0.875
v 1.7500000000000002 1.1874999999999996 -0.8749999999999998
v 1.7500000000000002 1.1874999999999998 -1.375
v 1.75 0.6874999999999997 -0.875
v 1.75 0.6874999999999997 -1.375
vt 0.84375 0.8515625
vt 0.90625 0.8515625
vt 0.90625 0.7890625
vt 0.84375 0.7890625
vt 0.84375 0.8515625
vt 0.90625 0.8515625
vt 0.90625 0.7890625
vt 0.84375 0.7890625
vt 0.84375 0.8515625
vt 0.90625 0.8515625
vt 0.90625 0.7890625
vt 0.84375 0.7890625
vt 0.84375 0.8515625
vt 0.90625 0.8515625
vt 0.90625 0.7890625
vt 0.84375 0.7890625
vt 0.84375 0.7890625
vt 0.84375 0.8515625
vt 0.90625 0.8515625
vt 0.90625 0.7890625
vn -1.4997597826618576e-32 -1.2246467991473532e-16 1
vn -1 1.2246467991473532e-16 0
vn 1.4997597826618576e-32 1.2246467991473532e-16 -1
vn 1 -1.2246467991473532e-16 0
vn -1.2246467991473532e-16 -1 -1.2246467991473532e-16
usemtl m_0
f 76/192/48 79/191/48 77/190/48 74/189/48
f 75/196/49 76/195/49 74/194/49 73/193/49
f 80/200/50 75/199/50 73/198/50 78/197/50
f 79/204/51 80/203/51 78/202/51 77/201/51
f 79/208/52 76/207/52 75/206/52 80/205/52
o pipeline
v 1.125 0.875 -3
v 1.125 0.875 -2.875
v 1.125 0.12499999999999999 -3
v 1.125 0.12499999999999997 -2.875
v 1.875 0.8749999999999999 -2.875
v 1.875 0.8749999999999999 -3
v 1.875 0.12499999999999988 -2.875
v 1.875 0.12499999999999989 -3
vt 0.84375 0.734375
vt 0.9375 0.734375
vt 0.9375 0.640625
vt 0.84375 0.640625
vt 0.8828125 0.8828125
vt 0.8984375 0.8828125
vt 0.8984375 0.7890625
vt 0.8828125 0.7890625
vt 0.75 0.9375
vt 0.84375 0.9375
vt 0.84375 0.84375
vt 0.75 0.84375
vt 0.8828125 0.8828125
vt 0.8984375 0.8828125
vt 0.8984375 0.7890625
vt 0.8828125 0.7890625
vt 0.84375 0.796875
vt 0.90625 0.796875
vt 0.90625 0.7890625
vt 0.84375 0.7890625
vt 0.84375 0.796875
vt 0.90625 0.796875
vt 0.90625 0.7890625
vt 0.84375 0.7890625
vn -1.4997597826618576e-32 -1.2246467991473532e-16 1
vn -1 1.2246467991473532e-16 0
vn 1.4997597826618576e-32 1.2246467991473532e-16 -1
vn 1 -1.2246467991473532e-16 0
vn 1.2246467991473532e-16 1 1.2246467991473532e-16
vn -1.2246467991473532e-16 -1 -1.2246467991473532e-16
usemtl m_0
f 84/212/53 87/211/53 85/210/53 82/209/53
f 83/216/54 84/215/54 82/214/54 81/213/54
f 88/220/55 83/219/55 81/218/55 86/217/55
f 87/224/56 88/223/56 86/222/56 85/221/56
f 86/228/57 81/227/57 82/226/57 85/225/57
f 87/232/58 84/231/58 83/230/58 88/229/58
o base
v -1 -0.5624999999999998 -3
v -1 -0.5625000000000007 4
v -1.0000000000000002 -0.9999999999999998 -3
v -1.0000000000000002 -1.0000000000000007 4
v 2 -0.562500000000001 4
v 2 -0.5625000000000001 -3
v 1.9999999999999998 -1.0000000000000009 4
v 1.9999999999999998 -1 -3
vt 0.3125 0.5
vt 0.6875 0.5
vt 0.6875 0.4375
vt 0.3125 0.4375
vt 0.3125 0.5
vt 0.6875 0.5
vt 0.6875 0.4375
vt 0.3125 0.4375
vt 0.3125 0.5
vt 0.6875 0.5
vt 0.6875 0.4375
vt 0.3125 0.4375
vt 0.3125 0.5
vt 0.6875 0.5
vt 0.6875 0.4375
vt 0.3125 0.4375
vt 0.0078125 0.6328125
vt 0.0078125 1
vt 0.7421875 1
vt 0.7421875 0.6328125
vt 0.0078125 0.6328125
vt 0.0078125 1
vt 0.7421875 1
vt 0.7421875 0.6328125
vn -1.4997597826618576e-32 -1.2246467991473532e-16 1
vn -1 1.2246467991473532e-16 0
vn 1.4997597826618576e-32 1.2246467991473532e-16 -1
vn 1 -1.2246467991473532e-16 0
vn 1.2246467991473532e-16 1 1.2246467991473532e-16
vn -1.2246467991473532e-16 -1 -1.2246467991473532e-16
usemtl m_0
f 92/236/59 95/235/59 93/234/59 90/233/59
f 91/240/60 92/239/60 90/238/60 89/237/60
f 96/244/61 91/243/61 89/242/61 94/241/61
f 95/248/62 96/247/62 94/246/62 93/245/62
f 94/252/63 89/251/63 90/250/63 93/249/63
f 95/256/64 92/255/64 91/254/64 96/253/64
o base1
v -0.75 0.25000000000000006 -1.625
v -0.75 0.24999999999999994 -0.5
v -0.7500000000000001 -0.5624999999999999 -1.625
v -0.7500000000000001 -0.5625000000000001 -0.5
v 1.75 0.24999999999999975 -1.625
v 1.75 0.2499999999999996 -0.5
v 1.75 -0.5625000000000002 -1.625
v 1.75 -0.5625000000000004 -0.5
v 1.5000000000000002 0.9999999999999998 -1.625
v -0.4999999999999999 1 -1.625
v 1.5000000000000002 0.9999999999999996 -0.4999999999999998
v -0.4999999999999999 0.9999999999999998 -0.4999999999999998
v 0.8750000000000002 1.4999999999999998 -0.4999999999999998
v 0.1250000000000002 1.4999999999999998 -0.4999999999999998
v 0.1250000000000002 1.5 -1.6249999999999998
v 0.8750000000000002 1.5 -1.6249999999999998
vt 0.84375 0.34375
vt 0.7187499983125 0.34375
vt 0.71875 0.3046875
vt 0.84375 0.3046875
vt 0.71875 0.3046875
vt 0.7187499983125 0.34375
vt 0.84375 0.34375
vt 0.84375 0.3046875
vt 0.1875 0.15625
vt 0.1875 0.2109375
vt 0.5 0.2109375
vt 0.5 0.15625
vt 0.5 0.15625
vt 0.1875 0.15625
vt 0.1875 0.2109375
vt 0.5 0.2109375
vt 0.1875 0.1875
vt 0.21875 0.28125
vt 0.46875 0.28125
vt 0.5 0.1875
vt 0.21875 0.28125
vt 0.296875 0.34375
vt 0.390625 0.34375
vt 0.46875 0.28125
vt 0.21875 0.28125
vt 0.296875 0.34375
vt 0.390625 0.34375
vt 0.46875 0.28125
vt 0.21875 0.28125
vt 0.46875 0.28125
vt 0.5 0.1875
vt 0.1875 0.1875
vt 0.71875 0.34375
vt 0.7187499983125 0.4296875
vt 0.84375 0.4296875
vt 0.84375 0.34375
vt 0.71875 0.546875
vt 0.7187499983125 0.6171875
vt 0.84375 0.6171875
vt 0.84375 0.546875
vt 0.71875 0.4296875
vt 0.7187499983125 0.515625
vt 0.84375 0.515625
vt 0.84375 0.4296875
vt 0.71875 0.4296875
vt 0.7187499983125 0.515625
vt 0.84375 0.515625
vt 0.84375 0.4296875
vt 0.71875 0.34375
vt 0.7187499983125 0.4296875
vt 0.84375 0.4296875
vt 0.84375 0.34375
vn -1 1.2246467991473532e-16 0
vn 1 -1.2246467991473532e-16 0
vn 1.4997597826618576e-32 1.2246467991473532e-16 -1
vn -1.4997597826618576e-32 -1.2246467991473532e-16 1
vn 1.4997597826618576e-32 1.2246467991473532e-16 -1
vn 1.4997597826618576e-32 1.2246467991473532e-16 -1
vn -1.4997597826618576e-32 -1.2246467991473532e-16 1
vn -1.4997597826618576e-32 -1.2246467991473532e-16 1
vn 0.948683298050514 0.3162277660168379 3.872673214540388e-17
vn 1.2246467991473532e-16 1 1.2246467991473532e-16
vn 0.6246950475544244 0.7808688094430303 9.562884880384116e-17
vn -0.6246950475544242 0.7808688094430305 9.562884880384116e-17
vn -0.9486832980505138 0.31622776601683805 3.8726732145403873e-17
usemtl m_0
f 98/257/65 97/258/65 99/259/65 100/260/65
f 103/261/66 101/262/66 102/263/66 104/264/66
f 99/265/67 97/266/67 101/267/67 103/268/67
f 102/269/68 98/270/68 100/271/68 104/272/68
f 97/273/69 106/274/69 105/275/69 101/276/69
f 106/277/70 111/278/70 112/279/70 105/280/70
f 107/281/71 109/282/71 110/283/71 108/284/71
f 107/285/72 108/286/72 98/287/72 102/288/72
f 101/289/73 105/290/73 107/291/73 102/292/73
f 110/293/74 109/294/74 112/295/74 111/296/74
f 109/297/75 107/298/75 105/299/75 112/300/75
f 108/301/76 110/302/76 111/303/76 106/304/76
f 98/305/77 108/306/77 106/307/77 97/308/77
o base2
v -0.75 0.24999999999999978 0.875
v -0.75 0.24999999999999964 2
v -0.7500000000000001 -0.5625000000000002 0.875
v -0.7500000000000001 -0.5625000000000003 2
v 1.75 0.24999999999999944 0.875
v 1.75 0.2499999999999993 2
v 1.75 -0.5625000000000006 0.875
v 1.75 -0.5625000000000007 2
v 1.5000000000000002 0.9999999999999994 0.875
v -0.4999999999999999 0.9999999999999997 0.875
v 1.5000000000000002 0.9999999999999993 2
v -0.4999999999999999 0.9999999999999996 2
v 0.8750000000000002 1.4999999999999996 2
v 0.1250000000000002 1.4999999999999996 2
v 0.1250000000000002 1.4999999999999996 0.875
v 0.8750000000000002 1.4999999999999996 0.875
vt 0.84375 0.0625
vt 0.7187499983125 0.0625
vt 0.71875 0.0234375
vt 0.84375 0.0234375
vt 0.71875 0.0234375
vt 0.7187499983125 0.0625
vt 0.84375 0.0625
vt 0.84375 0.0234375
vt 0.1875 0.15625
vt 0.1875 0.2109375
vt 0.5 0.2109375
vt 0.5 0.15625
vt 0.5 0.15625
vt 0.1875 0.15625
vt 0.1875 0.2109375
vt 0.5 0.2109375
vt 0.1875 0.1875
vt 0.21875 0.28125
vt 0.46875 0.28125
vt 0.5 0.1875
vt 0.21875 0.28125
vt 0.296875 0.34375
vt 0.390625 0.34375
vt 0.46875 0.28125
vt 0.21875 0.28125
vt 0.296875 0.34375
vt 0.390625 0.34375
vt 0.46875 0.28125
vt 0.21875 0.28125
vt 0.46875 0.28125
vt 0.5 0.1875
vt 0.1875 0.1875
vt 0.71875 0.0625
vt 0.7187499983125 0.1484375
vt 0.84375 0.1484375
vt 0.84375 0.0625
vt 0.71875 0.546875
vt 0.7187499983125 0.6171875
vt 0.84375 0.6171875
vt 0.84375 0.546875
vt 0.71875 0.1484375
vt 0.7187499983125 0.234375
vt 0.84375 0.234375
vt 0.84375 0.1484375
vt 0.71875 0.1484375
vt 0.7187499983125 0.234375
vt 0.84375 0.234375
vt 0.84375 0.1484375
vt 0.71875 0.0625
vt 0.7187499983125 0.1484375
vt 0.84375 0.1484375
vt 0.84375 0.0625
vn -1 1.2246467991473532e-16 0
vn 1 -1.2246467991473532e-16 0
vn 1.4997597826618576e-32 1.2246467991473532e-16 -1
vn -1.4997597826618576e-32 -1.2246467991473532e-16 1
vn 1.4997597826618576e-32 1.2246467991473532e-16 -1
vn 1.4997597826618576e-32 1.2246467991473532e-16 -1
vn -1.4997597826618576e-32 -1.2246467991473532e-16 1
vn -1.4997597826618576e-32 -1.2246467991473532e-16 1
vn 0.948683298050514 0.3162277660168379 3.872673214540388e-17
vn 1.2246467991473532e-16 1 1.2246467991473532e-16
vn 0.6246950475544244 0.7808688094430303 9.562884880384116e-17
vn -0.6246950475544242 0.7808688094430305 9.562884880384116e-17
vn -0.9486832980505138 0.31622776601683805 3.8726732145403873e-17
usemtl m_0
f 114/309/78 113/310/78 115/311/78 116/312/78
f 119/313/79 117/314/79 118/315/79 120/316/79
f 115/317/80 113/318/80 117/319/80 119/320/80
f 118/321/81 114/322/81 116/323/81 120/324/81
f 113/325/82 122/326/82 121/327/82 117/328/82
f 122/329/83 127/330/83 128/331/83 121/332/83
f 123/333/84 125/334/84 126/335/84 124/336/84
f 123/337/85 124/338/85 114/339/85 118/340/85
f 117/341/86 121/342/86 123/343/86 118/344/86
f 126/345/87 125/346/87 128/347/87 127/348/87
f 125/349/88 123/350/88 121/351/88 128/352/88
f 124/353/89 126/354/89 127/355/89 122/356/89
f 114/357/90 124/358/90 122/359/90 113/360/90