# Made in Blockbench 4.2.2
mtllib steam_turbine.mtl

o redstone
v -1 1.3011872240940627e-16 -2
v -0.5 6.888638245203862e-17 -2
v -0.5 1 -2
v -1 1 -2
v -1 2.525834023241416e-16 -3
v -1 1 -3
v -0.5 1.9135106236677392e-16 -3
v -0.5 1 -3
vt 0.75 0.65625
vt 0.828125 0.65625
vt 0.828125 0.75
vt 0.75 0.75
vt 0 0.5
vt 0.125 0.5
vt 0.125 0.625
vt 0 0.625
vt 0.75 0.65625
vt 0.828125 0.65625
vt 0.828125 0.75
vt 0.75 0.75
vt 0.75 0.65625
vt 0.828125 0.65625
vt 0.828125 0.75
vt 0.75 0.75
vt 0.75 0.65625
vt 0.828125 0.65625
vt 0.828125 0.75
vt 0.75 0.75
vt 0.75 0.65625
vt 0.828125 0.65625
vt 0.828125 0.75
vt 0.75 0.75
vn 0 0 1
vn -1 0 0
vn 0 0 -1
vn 1 0 0
vn 0 1 0
vn -1.224646799147353e-16 -1 -1.2246467991473532e-16
usemtl m_0
f 1/1/1 2/2/1 3/3/1 4/4/1
f 5/5/2 1/6/2 4/7/2 6/8/2
f 7/9/3 5/10/3 6/11/3 8/12/3
f 2/13/4 7/14/4 8/15/4 3/16/4
f 8/17/5 6/18/5 4/19/5 3/20/5
f 2/21/6 1/22/6 5/23/6 7/24/6
o redstone2
v -0.875 -0.5625 -2.125
v -0.6875 -0.5625 -2.125
v -0.6875 1.071565949253934e-16 -2.125
v -0.875 1.3011872240940627e-16 -2.125
v -0.875 -0.5625 -2.25
v -0.875 1.4542680739874819e-16 -2.25
v -0.6875 -0.5625 -2.25
v -0.6875 1.2246467991473532e-16 -2.25
vt 0 0.9296875
vt 0.0234375 0.9296875
vt 0.0234375 1
vt 0 1
vt 0 0.9296875
vt 0.015625 0.9296875
vt 0.015625 1
vt 0 1
vt 0 0.9296875
vt 0.0234375 0.9296875
vt 0.0234375 1
vt 0 1
vt 0 0.9296875
vt 0.015625 0.9296875
vt 0.015625 1
vt 0 1
vn 0 0 1
vn -1 0 0
vn 0 0 -1
vn 1 0 0
usemtl m_0
f 9/25/7 10/26/7 11/27/7 12/28/7
f 13/29/8 9/30/8 12/31/8 14/32/8
f 15/33/9 13/34/9 14/35/9 16/36/9
f 10/37/10 15/38/10 16/39/10 11/40/10
o redstone3
v -0.875 -0.5625 -2.75
v -0.6875 -0.5625 -2.75
v -0.6875 1.8369701987210297e-16 -2.75
v -0.875 2.0665914735611586e-16 -2.75
v -0.875 -0.5625 -2.875
v -0.875 2.2196723234545778e-16 -2.875
v -0.6875 -0.5625 -2.875
v -0.6875 1.990051048614449e-16 -2.875
vt 0 0.9296875
vt 0.0234375 0.9296875
vt 0.0234375 1
vt 0 1
vt 0 0.9296875
vt 0.015625 0.9296875
vt 0.015625 1
vt 0 1
vt 0 0.9296875
vt 0.0234375 0.9296875
vt 0.0234375 1
vt 0 1
vt 0 0.9296875
vt 0.015625 0.9296875
vt 0.015625 1
vt 0 1
vn 0 0 1
vn -1 0 0
vn 0 0 -1
vn 1 0 0
usemtl m_0
f 17/41/11 18/42/11 19/43/11 20/44/11
f 21/45/12 17/46/12 20/47/12 22/48/12
f 23/49/13 21/50/13 22/51/13 24/52/13
f 18/53/14 23/54/14 24/55/14 19/56/14
o s
v -0.75 -0.5625 2
v -0.75 -0.5625 3
v -0.75 0.4375 3
v -0.75 0.4375 2
v 1.75 -0.5625 3
v 1.75 -0.5625 2
v 1.75 0.4375 2
v 1.75 0.4375 3
vt 0.4609375 0.34375
vt 0.4609375 0.4375
vt 0.3203125 0.4375
vt 0.3203125 0.34375
vt 0.4609375 0.34375
vt 0.4609375 0.4375
vt 0.3203125 0.4375
vt 0.3203125 0.34375
vt 0.0078125 0.34375
vt 0.3203125 0.34375
vt 0.3203125 0.4375
vt 0.0078125 0.4375
vt 0.40625 0.796875
vt 0.09375 0.796875
vt 0.09375 0.671875
vt 0.40625 0.671875
vn -1 0 0
vn 1 0 0
vn 0 1 0
vn 0 0 -1
usemtl m_0
f 25/57/15 26/58/15 27/59/15 28/60/15
f 29/61/16 30/62/16 31/63/16 32/64/16
f 31/65/17 28/66/17 27/67/17 32/68/17
f 28/69/18 31/70/18 30/71/18 25/72/18
o pipeline
v 1.125 0.125 -2.875
v 1.875 0.125 -2.875
v 1.875 0.875 -2.875
v 1.125 0.875 -2.875
v 1.125 0.125 -3
v 1.125 0.875 -3
v 1.875 0.125 -3
v 1.875 0.875 -3
vt 0.75 0.75
vt 0.84375 0.75
vt 0.84375 0.84375
vt 0.75 0.84375
vt 0.8828125 0.7890625
vt 0.8984375 0.7890625
vt 0.8984375 0.8828125
vt 0.8828125 0.8828125
vt 0.75 0.84375
vt 0.84375 0.84375
vt 0.84375 0.9375
vt 0.75 0.9375
vt 0.8828125 0.7890625
vt 0.8984375 0.7890625
vt 0.8984375 0.8828125
vt 0.8828125 0.8828125
vt 0.84375 0.7890625
vt 0.90625 0.7890625
vt 0.90625 0.796875
vt 0.84375 0.796875
vt 0.84375 0.7890625
vt 0.90625 0.7890625
vt 0.90625 0.796875
vt 0.84375 0.796875
vn 0 0 1
vn -1 0 0
vn 0 0 -1
vn 1 0 0
vn 0 1 0
vn 0 -1 0
usemtl m_0
f 33/73/19 34/74/19 35/75/19 36/76/19
f 37/77/20 33/78/20 36/79/20 38/80/20
f 39/81/21 37/82/21 38/83/21 40/84/21
f 34/85/22 39/86/22 40/87/22 35/88/22
f 40/89/23 38/90/23 36/91/23 35/92/23
f 34/93/24 33/94/24 37/95/24 39/96/24
o pipeline3
v 1.25 0.25 -1.6875
v 1.75 0.25 -1.6875
v 1.75 1.1875 -1.6875
v 1.25 1.1875 -1.6875
v 1.25 0.25 -2.1875
v 1.25 1.1875 -2.1875
v 1.75 0.25 -2.1875
v 1.75 1.1875 -2.1875
vt 0.84375 0.890625
vt 0.8984375 0.890625
vt 0.8984375 0.7890625
vt 0.84375 0.7890625
vt 1 0.7265625
vt 0.9375 0.7265625
vt 0.9375 0.84375
vt 1 0.84375
vt 0.9375 0.7265625
vt 1 0.7265625
vt 1 0.84375
vt 0.9375 0.84375
vt 0.9375 0.7265625
vt 1 0.7265625
vt 1 0.84375
vt 0.9375 0.84375
vt 0.9375 0.8203125
vt 1 0.8203125
vt 1 0.8671875
vt 0.9375 0.8671875
vt 0.9375 0.8203125
vt 1 0.8203125
vt 1 0.8671875
vt 0.9375 0.8671875
vn 0 0 1
vn -1 0 0
vn 0 0 -1
vn 1 0 0
vn 0 1 0
vn 0 -1 0
usemtl m_0
f 41/97/25 42/98/25 43/99/25 44/100/25
f 45/101/26 41/102/26 44/103/26 46/104/26
f 47/105/27 45/106/27 46/107/27 48/108/27
f 42/109/28 47/110/28 48/111/28 43/112/28
f 48/113/29 46/114/29 44/115/29 43/116/29
f 42/117/30 41/118/30 45/119/30 47/120/30
o pipeline5
v 1.25 0.6875 -0.9375
v 1.75 0.6875 -0.9375
v 1.75 1.1875 -0.9375
v 1.25 1.1875 -0.9375
v 1.25 0.6875 -1.4375
v 1.25 1.1875 -1.4375
v 1.75 0.6875 -1.4375
v 1.75 1.1875 -1.4375
vt 0.84375 0.7890625
vt 0.90625 0.7890625
vt 0.90625 0.8515625
vt 0.84375 0.8515625
vt 0.84375 0.7890625
vt 0.90625 0.7890625
vt 0.90625 0.8515625
vt 0.84375 0.8515625
vt 0.84375 0.7890625
vt 0.90625 0.7890625
vt 0.90625 0.8515625
vt 0.84375 0.8515625
vt 0.84375 0.7890625
vt 0.90625 0.7890625
vt 0.90625 0.8515625
vt 0.84375 0.8515625
vt 0.90625 0.7890625
vt 0.90625 0.8515625
vt 0.84375 0.8515625
vt 0.84375 0.7890625
vn 0 0 1
vn -1 0 0
vn 0 0 -1
vn 1 0 0
vn 0 -1 0
usemtl m_0
f 49/121/31 50/122/31 51/123/31 52/124/31
f 53/125/32 49/126/32 52/127/32 54/128/32
f 55/129/33 53/130/33 54/131/33 56/132/33
f 50/133/34 55/134/34 56/135/34 51/136/34
f 50/137/35 49/138/35 53/139/35 55/140/35
o base3
v -0.5 0.25 0.875
v -0.5 0.25 -0.5625
v -0.5 -0.5625 -0.5625
v -0.5 -0.5625 0.875
v 1.5 -0.5625 -0.5625
v 1.5 0.25 -0.5625
v 1.5 0.25 0.875
v 1.5 -0.5625 0.875
v -0.1875 0.8125 -0.5625
v 1.1875 0.8125 -0.5625
v 1.1875 0.8125 0.875
v -0.1875 0.8125 0.875
v 0.125 1.125 -0.5625
v 0.875 1.125 -0.5625
v 0.875 1.125 0.875
v 0.125 1.125 0.875
vt 0.6640625 0.8046875
vt 0.4921875 0.8046875
vt 0.4921875 0.703125
vt 0.6640625 0.703125
vt 0.6953125 0.7164406249999999
vt 0.6953125 0.796875
vt 0.5234375 0.796875
vt 0.5234375 0.7164406249999999
vt 0.6640625 0.7320656249999999
vt 0.6640625 0.8125
vt 0.4921875 0.8125
vt 0.4921875 0.7320656249999999
vt 0.6171875 0.8125
vt 0.4453125 0.8125
vt 0.4453125 0.7109375
vt 0.6171875 0.7109375
vt 0.484375 0.78125
vt 0.484375 0.7260078125
vt 0.65625 0.7260078125
vt 0.65625 0.78125
vt 0.6640625 0.7338203125
vt 0.6640625 0.7890625
vt 0.4921875 0.7890625
vt 0.4921875 0.7338203125
vt 0.65625 0.7109375
vt 0.65625 0.8046875
vt 0.484375 0.8046875
vt 0.484375 0.7109375
vn -1 0 0
vn 0.8741572761215378 0.4856429311786321 0
vn -0.8741572761215378 0.4856429311786321 0
vn 1 0 0
vn 0.7071067811865476 0.7071067811865476 0
vn -0.7071067811865476 0.7071067811865476 0
vn 0 1 0
usemtl m_0
f 57/141/36 58/142/36 59/143/36 60/144/36
f 62/145/37 66/146/37 67/147/37 63/148/37
f 57/149/38 68/150/38 65/151/38 58/152/38
f 62/153/39 63/154/39 64/155/39 61/156/39
f 71/157/40 67/158/40 66/159/40 70/160/40
f 68/161/41 72/162/41 69/163/41 65/164/41
f 72/165/42 71/166/42 70/167/42 69/168/42
o cube
v 1.75 -0.0625 -1.6875
v 1.75 -0.0625 -2.9375
v 1.75 -0.5625 -1.6875
v 1.75 -0.5625 -2.9375
v 1 -0.0625 -1.6875
v 1 -0.0625 -2.9375
v 1 -0.5625 -1.6875
v 1 -0.5625 -2.9375
vt 0.5078125 0.4296875
vt 0.5078125 0.3671875
vt 0.6640625 0.3671875
vt 0.6640625 0.4296875
vt 0.6640625 0.4296875
vt 0.6640625 0.3671875
vt 0.5078125 0.3671875
vt 0.5078125 0.4296875
vt 0.6015625 0.203125
vt 0.6015625 0.359375
vt 0.6953125 0.359375
vt 0.6953125 0.203125
vt 0.59375 0.296875
vt 0.59375 0.359375
vt 0.5 0.359375
vt 0.5 0.296875
vn 1 0 0
vn -1 0 0
vn 0 1 0
vn 0 0 -1
usemtl m_0
f 76/169/43 74/170/43 73/171/43 75/172/43
f 79/173/44 77/174/44 78/175/44 80/176/44
f 73/177/45 74/178/45 78/179/45 77/180/45
f 80/181/46 78/182/46 74/183/46 76/184/46
o f
v -1 -0.5625 4
v 2 -0.5625 4
v 2 1 4
v -1 1 4
v -1 -0.5625 3
v -1 1 3
v 2 -0.5625 3
v 2 1 3
vt 0.6171875 0
vt 0.9921875 0
vt 0.9921875 0.1953125
vt 0.6171875 0.1953125
vt 0.2421875 0.671875
vt 0.3671875 0.671875
vt 0.3671875 0.8671875
vt 0.2421875 0.8671875
vt 0.3203125 0.671875
vt 0.6953125 0.671875
vt 0.6953125 0.8671875
vt 0.3203125 0.8671875
vt 0.5546875 0.671875
vt 0.6796875 0.671875
vt 0.6796875 0.8671875
vt 0.5546875 0.8671875
vt 0.59375 0.15625
vt 0.21875 0.15625
vt 0.21875 0.03125
vt 0.59375 0.03125
vn 0 0 1
vn -1 0 0
vn 0 0 -1
vn 1 0 0
vn 0 1 0
usemtl m_0
f 81/185/47 82/186/47 83/187/47 84/188/47
f 85/189/48 81/190/48 84/191/48 86/192/48
f 87/193/49 85/194/49 86/195/49 88/196/49
f 82/197/50 87/198/50 88/199/50 83/200/50
f 88/201/51 86/202/51 84/203/51 83/204/51
o base
v -1 -1 4
v 2 -1 4
v 2 -0.5625 4
v -1 -0.5625 4
v -1 -1 -3
v -1 -0.5625 -3
v 2 -1 -3
v 2 -0.5625 -3
vt 0.75 0.9375
vt 1 0.9375
vt 1 1
vt 0.75 1
vt 0.3125 0.4375
vt 0.6875 0.4375
vt 0.6875 0.5
vt 0.3125 0.5
vt 0.3125 0.4375
vt 0.6875 0.4375
vt 0.6875 0.5
vt 0.3125 0.5
vt 0.3125 0.4375
vt 0.6875 0.4375
vt 0.6875 0.5
vt 0.3125 0.5
vt 0.7421875 0.6328125
vt 0.7421875 1
vt 0.0078125 1
vt 0.0078125 0.6328125
vt 0.7421875 0.6328125
vt 0.7421875 1
vt 0.0078125 1
vt 0.0078125 0.6328125
vn 0 0 1
vn -1 0 0
vn 0 0 -1
vn 1 0 0
vn 0 1 0
vn 0 -1 0
usemtl m_0
f 89/205/52 90/206/52 91/207/52 92/208/52
f 93/209/53 89/210/53 92/211/53 94/212/53
f 95/213/54 93/214/54 94/215/54 96/216/54
f 90/217/55 95/218/55 96/219/55 91/220/55
f 96/221/56 94/222/56 92/223/56 91/224/56
f 90/225/57 89/226/57 93/227/57 95/228/57
o pipeline2
v 1.25 0.25 -2.1875
v 1.75 0.25 -2.1875
v 1.75 0.75 -2.1875
v 1.25 0.75 -2.1875
v 1.25 0.25 -2.875
v 1.25 0.75 -2.875
v 1.75 0.25 -2.875
v 1.75 0.75 -2.875
vt 0.84375 0.7890625
vt 0.9296875 0.7890625
vt 0.9296875 0.7265625
vt 0.84375 0.7265625
vt 1 0.75
vt 1 0.84375
vt 0.9375 0.84375
vt 0.9375 0.75
vt 0.9296875 0.7890625
vt 0.84375 0.7890625
vt 0.84375 0.7265625
vt 0.9296875 0.7265625
vt 0.84375 0.7890625
vt 0.84375 0.7265625
vt 0.9296875 0.7265625
vt 0.9296875 0.7890625
vt 0.9296875 0.7890625
vt 0.9296875 0.7265625
vt 0.84375 0.7265625
vt 0.84375 0.7890625
vn -1 0 0
vn 0 0 -1
vn 1 0 0
vn 0 1 0
vn 0 -1 0
usemtl m_0
f 101/229/58 97/230/58 100/231/58 102/232/58
f 103/233/59 101/234/59 102/235/59 104/236/59
f 98/237/60 103/238/60 104/239/60 99/240/60
f 104/241/61 102/242/61 100/243/61 99/244/61
f 98/245/62 97/246/62 101/247/62 103/248/62
o pipeline4
v 1.25 1.1875 -0.9375
v 1.75 1.1875 -0.9375
v 1.75 1.6875 -0.9375
v 1.25 1.6875 -0.9375
v 1.25 1.1875 -2.1875
v 1.25 1.6875 -2.1875
v 1.75 1.1875 -2.1875
v 1.75 1.6875 -2.1875
vt 0.84375 0.7890625
vt 0.90625 0.7890625
vt 0.90625 0.90625
vt 0.84375 0.90625
vt 0.84375 0.65625
vt 1 0.65625
vt 1 0.71875
vt 0.84375 0.71875
vt 0.84375 0.7890625
vt 0.90625 0.7890625
vt 0.90625 0.90625
vt 0.84375 0.90625
vt 0.84375 0.65625
vt 1 0.65625
vt 1 0.71875
vt 0.84375 0.71875
vt 0.84375 0.7890625
vt 0.90625 0.7890625
vt 0.90625 0.90625
vt 0.84375 0.90625
vt 0.84375 0.7890625
vt 0.90625 0.7890625
vt 0.90625 0.90625
vt 0.84375 0.90625
vn 0 0 1
vn -1 0 0
vn 0 0 -1
vn 1 0 0
vn 0 1 0
vn 0 -1 0
usemtl m_0
f 105/249/63 106/250/63 107/251/63 108/252/63
f 109/253/64 105/254/64 108/255/64 110/256/64
f 111/257/65 109/258/65 110/259/65 112/260/65
f 106/261/66 111/262/66 112/263/66 107/264/66
f 112/265/67 110/266/67 108/267/67 107/268/67
f 106/269/68 105/270/68 109/271/68 111/272/68
o base1
v -0.75 0.25 -0.5625
v -0.75 0.25 -1.6875
v -0.75 -0.5625 -1.6875
v -0.75 -0.5625 -0.5625
v 1.75 -0.5625 -1.6875
v 1.75 0.25 -1.6875
v 1.75 0.25 -0.5625
v 1.75 -0.5625 -0.5625
v -0.5 1 -1.6875
v 1.5 1 -1.6875
v 0.125 1.5 -1.6875
v 0.875 1.5 -1.6875
v 1.5 1 -0.5625
v 0.875 1.5 -0.5625
v 0.125 1.5 -0.5625
v -0.5 1 -0.5625
vt 0.859375 0.359375
vt 0.7343749983125 0.359375
vt 0.734375 0.3203125
vt 0.859375 0.3203125
vt 0.859375 0.3203125
vt 0.859375 0.359375
vt 0.734375 0.359375
vt 0.734375 0.3203125
vt 0.1875 0.15625
vt 0.1875 0.2109375
vt 0.5 0.2109375
vt 0.5 0.15625
vt 0.5 0.15625
vt 0.1875 0.15625
vt 0.1875 0.2109375
vt 0.5 0.2109375
vt 0.1875 0.1875
vt 0.21875 0.28125
vt 0.46875 0.28125
vt 0.5 0.1875
vt 0.21875 0.28125
vt 0.296875 0.34375
vt 0.390625 0.34375
vt 0.46875 0.28125
vt 0.21875 0.28125
vt 0.296875 0.34375
vt 0.390625 0.34375
vt 0.46875 0.28125
vt 0.21875 0.28125
vt 0.46875 0.28125
vt 0.5 0.1875
vt 0.1875 0.1875
vt 0.734375 0.359375
vt 0.7343749983125 0.4453125
vt 0.859375 0.4453125
vt 0.859375 0.359375
vt 0.8671875 0.5703125
vt 0.8671874983125 0.640625
vt 0.9921875 0.640625
vt 0.9921875 0.5703125
vt 0.734375 0.4453125
vt 0.7343749983125 0.53125
vt 0.859375 0.53125
vt 0.859375 0.4453125
vt 0.734375 0.4453125
vt 0.7343749983125 0.53125
vt 0.859375 0.53125
vt 0.859375 0.4453125
vt 0.85937499915625 0.359375
vt 0.8593750008437501 0.4453125
vt 0.73437499915625 0.4453125
vt 0.73437499915625 0.359375
vn -1 0 0
vn 1 0 0
vn 0 0 -1
vn 0 0 1
vn 0 0 -1
vn 0 0 -1
vn 0 0 1
vn 0 0 1
vn 0.948683298050514 0.316227766016838 0
vn 0 1 0
vn 0.6246950475544243 0.7808688094430304 0
vn -0.6246950475544243 0.7808688094430304 0
vn -0.948683298050514 0.316227766016838 0
usemtl m_0
f 113/273/69 114/274/69 115/275/69 116/276/69
f 117/277/70 118/278/70 119/279/70 120/280/70
f 115/281/71 114/282/71 118/283/71 117/284/71
f 119/285/72 113/286/72 116/287/72 120/288/72
f 114/289/73 121/290/73 122/291/73 118/292/73
f 121/293/74 123/294/74 124/295/74 122/296/74
f 125/297/75 126/298/75 127/299/75 128/300/75
f 125/301/76 128/302/76 113/303/76 119/304/76
f 118/305/77 122/306/77 125/307/77 119/308/77
f 127/309/78 126/310/78 124/311/78 123/312/78
f 126/313/79 125/314/79 122/315/79 124/316/79
f 128/317/80 127/318/80 123/319/80 121/320/80
f 113/321/81 128/322/81 121/323/81 114/324/81
o base2
v -0.75 0.25 2
v -0.75 0.25 0.875
v -0.75 -0.5625 0.875
v -0.75 -0.5625 2
v 1.75 -0.5625 0.875
v 1.75 0.25 0.875
v 1.75 0.25 2
v 1.75 -0.5625 2
v -0.5 1 0.875
v 1.5 1 0.875
v 0.125 1.5 0.875
v 0.875 1.5 0.875
v 1.5 1 2
v 0.875 1.5 2
v 0.125 1.5 2
v -0.5 1 2
vt 0.9921875 0.375
vt 0.8671874983125 0.375
vt 0.8671875 0.3203125
vt 0.9921875 0.3203125
vt 0.1875 0.15625
vt 0.1875 0.2109375
vt 0.5 0.2109375
vt 0.5 0.15625
vt 0.5 0.15625
vt 0.1875 0.15625
vt 0.1875 0.2109375
vt 0.5 0.2109375
vt 0.1875 0.1875
vt 0.21875 0.28125
vt 0.46875 0.28125
vt 0.5 0.1875
vt 0.21875 0.28125
vt 0.296875 0.34375
vt 0.390625 0.34375
vt 0.46875 0.28125
vt 0.21875 0.28125
vt 0.296875 0.34375
vt 0.390625 0.34375
vt 0.46875 0.28125
vt 0.21875 0.28125
vt 0.46875 0.28125
vt 0.5 0.1875
vt 0.1875 0.1875
vt 0.8671875 0.3671875
vt 0.8671874983125 0.453125
vt 0.9921875 0.453125
vt 0.9921875 0.3671875
vt 0.8671875 0.5703125
vt 0.8671874983125 0.640625
vt 0.9921875 0.640625
vt 0.9921875 0.5703125
vt 0.8671875 0.453125
vt 0.8671874983125 0.5390625
vt 0.9921875 0.5390625
vt 0.9921875 0.453125
vt 0.8671875 0.453125
vt 0.8671874983125 0.5390625
vt 0.9921875 0.5390625
vt 0.9921875 0.453125
vt 0.99218749915625 0.3671875
vt 0.9921875008437501 0.453125
vt 0.86718749915625 0.453125
vt 0.86718749915625 0.3671875
vt 0.86718749915625 0.375
vt 0.9921875008437501 0.375
vt 0.99218749915625 0.3203125
vt 0.86718749915625 0.3203125
vn -1 0 0
vn 0 0 -1
vn 0 0 1
vn 0 0 -1
vn 0 0 -1
vn 0 0 1
vn 0 0 1
vn 0.948683298050514 0.316227766016838 0
vn 0 1 0
vn 0.6246950475544243 0.7808688094430304 0
vn -0.6246950475544243 0.7808688094430304 0
vn -0.948683298050514 0.316227766016838 0
vn 1 0 0
usemtl m_0
f 129/325/82 130/326/82 131/327/82 132/328/82
f 131/329/83 130/330/83 134/331/83 133/332/83
f 135/333/84 129/334/84 132/335/84 136/336/84
f 130/337/85 137/338/85 138/339/85 134/340/85
f 137/341/86 139/342/86 140/343/86 138/344/86
f 141/345/87 142/346/87 143/347/87 144/348/87
f 141/349/88 144/350/88 129/351/88 135/352/88
f 134/353/89 138/354/89 141/355/89 135/356/89
f 143/357/90 142/358/90 140/359/90 139/360/90
f 142/361/91 141/362/91 138/363/91 140/364/91
f 144/365/92 143/366/92 139/367/92 137/368/92
f 129/369/93 144/370/93 137/371/93 130/372/93
f 134/373/94 135/374/94 136/375/94 133/376/94