# Made in Blockbench 4.2.2
mtllib steam_turbine.mtl

o redstone
v -1 1.3011872240940627e-16 -2
v -0.5 6.888638245203862e-17 -2
v -0.5 1 -2
v -1 1 -2
v -1 2.525834023241416e-16 -3
v -1 1 -3
v -0.5 1.9135106236677392e-16 -3
v -0.5 1 -3
vt 0.75 0.65625
vt 0.828125 0.65625
vt 0.828125 0.75
vt 0.75 0.75
vt 0 0.5
vt 0.125 0.5
vt 0.125 0.625
vt 0 0.625
vt 0.75 0.65625
vt 0.828125 0.65625
vt 0.828125 0.75
vt 0.75 0.75
vt 0.75 0.65625
vt 0.828125 0.65625
vt 0.828125 0.75
vt 0.75 0.75
vt 0.75 0.65625
vt 0.828125 0.65625
vt 0.828125 0.75
vt 0.75 0.75
vt 0.75 0.65625
vt 0.828125 0.65625
vt 0.828125 0.75
vt 0.75 0.75
vn 0 0 1
vn -1 0 0
vn 0 0 -1
vn 1 0 0
vn 0 1 0
vn -1.224646799147353e-16 -1 -1.2246467991473532e-16
usemtl m_0
f 1/1/1 2/2/1 3/3/1 4/4/1
f 5/5/2 1/6/2 4/7/2 6/8/2
f 7/9/3 5/10/3 6/11/3 8/12/3
f 2/13/4 7/14/4 8/15/4 3/16/4
f 8/17/5 6/18/5 4/19/5 3/20/5
f 2/21/6 1/22/6 5/23/6 7/24/6
o redstone2
v -0.875 -0.5625 -2.125
v -0.6875 -0.5625 -2.125
v -0.6875 1.071565949253934e-16 -2.125
v -0.875 1.3011872240940627e-16 -2.125
v -0.875 -0.5625 -2.25
v -0.875 1.4542680739874819e-16 -2.25
v -0.6875 -0.5625 -2.25
v -0.6875 1.2246467991473532e-16 -2.25
vt 0 0.9296875
vt 0.0234375 0.9296875
vt 0.0234375 1
vt 0 1
vt 0 0.9296875
vt 0.015625 0.9296875
vt 0.015625 1
vt 0 1
vt 0 0.9296875
vt 0.0234375 0.9296875
vt 0.0234375 1
vt 0 1
vt 0 0.9296875
vt 0.015625 0.9296875
vt 0.015625 1
vt 0 1
vn 0 0 1
vn -1 0 0
vn 0 0 -1
vn 1 0 0
usemtl m_0
f 9/25/7 10/26/7 11/27/7 12/28/7
f 13/29/8 9/30/8 12/31/8 14/32/8
f 15/33/9 13/34/9 14/35/9 16/36/9
f 10/37/10 15/38/10 16/39/10 11/40/10
o redstone3
v -0.875 -0.5625 -2.75
v -0.6875 -0.5625 -2.75
v -0.6875 1.8369701987210297e-16 -2.75
v -0.875 2.0665914735611586e-16 -2.75
v -0.875 -0.5625 -2.875
v -0.875 2.2196723234545778e-16 -2.875
v -0.6875 -0.5625 -2.875
v -0.6875 1.990051048614449e-16 -2.875
vt 0 0.9296875
vt 0.0234375 0.9296875
vt 0.0234375 1
vt 0 1
vt 0 0.9296875
vt 0.015625 0.9296875
vt 0.015625 1
vt 0 1
vt 0 0.9296875
vt 0.0234375 0.9296875
vt 0.0234375 1
vt 0 1
vt 0 0.9296875
vt 0.015625 0.9296875
vt 0.015625 1
vt 0 1
vn 0 0 1
vn -1 0 0
vn 0 0 -1
vn 1 0 0
usemtl m_0
f 17/41/11 18/42/11 19/43/11 20/44/11
f 21/45/12 17/46/12 20/47/12 22/48/12
f 23/49/13 21/50/13 22/51/13 24/52/13
f 18/53/14 23/54/14 24/55/14 19/56/14
o s
v -0.75 -0.5625 2
v -0.75 -0.5625 3
v -0.75 0.4375 3
v -0.75 0.4375 2
v 1.75 -0.5625 3
v 1.75 -0.5625 2
v 1.75 0.4375 2
v 1.75 0.4375 3
vt 0.4609375 0.34375
vt 0.4609375 0.4375
vt 0.3203125 0.4375
vt 0.3203125 0.34375
vt 0.4609375 0.34375
vt 0.4609375 0.4375
vt 0.3203125 0.4375
vt 0.3203125 0.34375
vt 0.0078125 0.34375
vt 0.3203125 0.34375
vt 0.3203125 0.4375
vt 0.0078125 0.4375
vt 0.40625 0.796875
vt 0.09375 0.796875
vt 0.09375 0.671875
vt 0.40625 0.671875
vn -1 0 0
vn 1 0 0
vn 0 1 0
vn 0 0 -1
usemtl m_0
f 25/57/15 26/58/15 27/59/15 28/60/15
f 29/61/16 30/62/16 31/63/16 32/64/16
f 31/65/17 28/66/17 27/67/17 32/68/17
f 28/69/18 31/70/18 30/71/18 25/72/18
o f
v -1 -0.5625 4
v 2 -0.5625 4
v 2 1 4
v -1 1 4
v -1 -0.5625 3
v -1 1 3
v 2 -0.5625 3
v 2 1 3
vt 0.3203125 0.6796875
vt 0.6953125 0.6796875
vt 0.6953125 0.8671875
vt 0.3203125 0.8671875
vt 0.2421875 0.6796875
vt 0.3671875 0.6796875
vt 0.3671875 0.8671875
vt 0.2421875 0.8671875
vt 0.3203125 0.6796875
vt 0.6953125 0.6796875
vt 0.6953125 0.8671875
vt 0.3203125 0.8671875
vt 0.5625 0.6796875
vt 0.6875 0.6796875
vt 0.6875 0.8671875
vt 0.5625 0.8671875
vt 0.59375 0.15625
vt 0.21875 0.15625
vt 0.21875 0.03125
vt 0.59375 0.03125
vn 0 0 1
vn -1 0 0
vn 0 0 -1
vn 1 0 0
vn 0 1 0
usemtl m_0
f 33/73/19 34/74/19 35/75/19 36/76/19
f 37/77/20 33/78/20 36/79/20 38/80/20
f 39/81/21 37/82/21 38/83/21 40/84/21
f 34/85/22 39/86/22 40/87/22 35/88/22
f 40/89/23 38/90/23 36/91/23 35/92/23
o z
v -0.5 -0.5625 -0.5
v -0.5 -0.5625 0.875
v -0.5 1 0.875
v -0.5 1 -0.5
v 1.5 -0.5625 0.875
v 1.5 -0.5625 -0.5
v 1.5 1 -0.5
v 1.5 1 0.875
vt 0.5234375 0.6796875
vt 0.6953125 0.6796875
vt 0.6953125 0.875
vt 0.5234375 0.875
vt 0.5234375 0.6796875
vt 0.6953125 0.6796875
vt 0.6953125 0.875
vt 0.5234375 0.875
vt 0.5234375 0.6796875
vt 0.6953125 0.6796875
vt 0.6953125 0.875
vt 0.5234375 0.875
vn -1 0 0
vn 1 0 0
vn 0 1 0
usemtl m_0
f 41/93/24 42/94/24 43/95/24 44/96/24
f 45/97/25 46/98/25 47/99/25 48/100/25
f 47/101/26 44/102/26 43/103/26 48/104/26
o pipeline
v 1.125 0.125 -2.875
v 1.875 0.125 -2.875
v 1.875 0.875 -2.875
v 1.125 0.875 -2.875
v 1.125 0.125 -3
v 1.125 0.875 -3
v 1.875 0.125 -3
v 1.875 0.875 -3
vt 0.84375 0.640625
vt 0.9375 0.640625
vt 0.9375 0.734375
vt 0.84375 0.734375
vt 0.8828125 0.7890625
vt 0.8984375 0.7890625
vt 0.8984375 0.8828125
vt 0.8828125 0.8828125
vt 0.75 0.84375
vt 0.84375 0.84375
vt 0.84375 0.9375
vt 0.75 0.9375
vt 0.8828125 0.7890625
vt 0.8984375 0.7890625
vt 0.8984375 0.8828125
vt 0.8828125 0.8828125
vt 0.84375 0.7890625
vt 0.90625 0.7890625
vt 0.90625 0.796875
vt 0.84375 0.796875
vt 0.84375 0.7890625
vt 0.90625 0.7890625
vt 0.90625 0.796875
vt 0.84375 0.796875
vn 0 0 1
vn -1 0 0
vn 0 0 -1
vn 1 0 0
vn 0 1 0
vn 0 -1 0
usemtl m_0
f 49/105/27 50/106/27 51/107/27 52/108/27
f 53/109/28 49/110/28 52/111/28 54/112/28
f 55/113/29 53/114/29 54/115/29 56/116/29
f 50/117/30 55/118/30 56/119/30 51/120/30
f 56/121/31 54/122/31 52/123/31 51/124/31
f 50/125/32 49/126/32 53/127/32 55/128/32
o pipeline2
v 1.25 0.25 -2.125
v 1.75 0.25 -2.125
v 1.75 0.75 -2.125
v 1.25 0.75 -2.125
v 1.25 0.25 -2.875
v 1.25 0.75 -2.875
v 1.75 0.25 -2.875
v 1.75 0.75 -2.875
vt 1 0.75
vt 1 0.84375
vt 0.9375 0.84375
vt 0.9375 0.75
vt 0.8828125 0.3046875
vt 0.9765625 0.3046875
vt 0.9765625 0.3671875
vt 0.8828125 0.3671875
vt 1 0.75
vt 1 0.84375
vt 0.9375 0.84375
vt 0.9375 0.75
vt 0.8828125 0.3046875
vt 0.9765625 0.3046875
vt 0.9765625 0.3671875
vt 0.8828125 0.3671875
vt 0.8828125 0.3671875
vt 0.8828125 0.3046875
vt 0.9765625 0.3046875
vt 0.9765625 0.3671875
vt 0.8828125 0.3671875
vt 0.8828125 0.3046875
vt 0.9765625 0.3046875
vt 0.9765625 0.3671875
vn 0 0 1
vn -1 0 0
vn 0 0 -1
vn 1 0 0
vn 0 1 0
vn 0 -1 0
usemtl m_0
f 57/129/33 58/130/33 59/131/33 60/132/33
f 61/133/34 57/134/34 60/135/34 62/136/34
f 63/137/35 61/138/35 62/139/35 64/140/35
f 58/141/36 63/142/36 64/143/36 59/144/36
f 64/145/37 62/146/37 60/147/37 59/148/37
f 58/149/38 57/150/38 61/151/38 63/152/38
o pipeline3
v 1.25 0.25 -1.625
v 1.75 0.25 -1.625
v 1.75 1.1875 -1.625
v 1.25 1.1875 -1.625
v 1.25 0.25 -2.125
v 1.25 1.1875 -2.125
v 1.75 0.25 -2.125
v 1.75 1.1875 -2.125
vt 0.84375 0.890625
vt 0.8984375 0.890625
vt 0.8984375 0.7890625
vt 0.84375 0.7890625
vt 1 0.7265625
vt 0.9375 0.7265625
vt 0.9375 0.84375
vt 1 0.84375
vt 0.9375 0.7265625
vt 1 0.7265625
vt 1 0.84375
vt 0.9375 0.84375
vt 0.9375 0.7265625
vt 1 0.7265625
vt 1 0.84375
vt 0.9375 0.84375
vt 0.9375 0.8203125
vt 1 0.8203125
vt 1 0.8671875
vt 0.9375 0.8671875
vt 0.9375 0.8203125
vt 1 0.8203125
vt 1 0.8671875
vt 0.9375 0.8671875
vn 0 0 1
vn -1 0 0
vn 0 0 -1
vn 1 0 0
vn 0 1 0
vn 0 -1 0
usemtl m_0
f 65/153/39 66/154/39 67/155/39 68/156/39
f 69/157/40 65/158/40 68/159/40 70/160/40
f 71/161/41 69/162/41 70/163/41 72/164/41
f 66/165/42 71/166/42 72/167/42 67/168/42
f 72/169/43 70/170/43 68/171/43 67/172/43
f 66/173/44 65/174/44 69/175/44 71/176/44
o pipeline4
v 1.25 1.1875 -0.875
v 1.75 1.1875 -0.875
v 1.75 1.6875 -0.875
v 1.25 1.6875 -0.875
v 1.25 1.1875 -2.125
v 1.25 1.6875 -2.125
v 1.75 1.1875 -2.125
v 1.75 1.6875 -2.125
vt 0.84375 0.7890625
vt 0.90625 0.7890625
vt 0.90625 0.90625
vt 0.84375 0.90625
vt 0.84375 0.109375
vt 1 0.109375
vt 1 0.171875
vt 0.84375 0.171875
vt 0.84375 0.7890625
vt 0.90625 0.7890625
vt 0.90625 0.90625
vt 0.84375 0.90625
vt 0.84375 0.109375
vt 1 0.109375
vt 1 0.171875
vt 0.84375 0.171875
vt 0.84375 0.7890625
vt 0.90625 0.7890625
vt 0.90625 0.90625
vt 0.84375 0.90625
vt 0.84375 0.7890625
vt 0.90625 0.7890625
vt 0.90625 0.90625
vt 0.84375 0.90625
vn 0 0 1
vn -1 0 0
vn 0 0 -1
vn 1 0 0
vn 0 1 0
vn 0 -1 0
usemtl m_0
f 73/177/45 74/178/45 75/179/45 76/180/45
f 77/181/46 73/182/46 76/183/46 78/184/46
f 79/185/47 77/186/47 78/187/47 80/188/47
f 74/189/48 79/190/48 80/191/48 75/192/48
f 80/193/49 78/194/49 76/195/49 75/196/49
f 74/197/50 73/198/50 77/199/50 79/200/50
o pipeline5
v 1.25 0.6875 -0.875
v 1.75 0.6875 -0.875
v 1.75 1.1875 -0.875
v 1.25 1.1875 -0.875
v 1.25 0.6875 -1.375
v 1.25 1.1875 -1.375
v 1.75 0.6875 -1.375
v 1.75 1.1875 -1.375
vt 0.84375 0.7890625
vt 0.90625 0.7890625
vt 0.90625 0.8515625
vt 0.84375 0.8515625
vt 0.84375 0.7890625
vt 0.90625 0.7890625
vt 0.90625 0.8515625
vt 0.84375 0.8515625
vt 0.84375 0.7890625
vt 0.90625 0.7890625
vt 0.90625 0.8515625
vt 0.84375 0.8515625
vt 0.84375 0.7890625
vt 0.90625 0.7890625
vt 0.90625 0.8515625
vt 0.84375 0.8515625
vt 0.90625 0.7890625
vt 0.90625 0.8515625
vt 0.84375 0.8515625
vt 0.84375 0.7890625
vn 0 0 1
vn -1 0 0
vn 0 0 -1
vn 1 0 0
vn 0 -1 0
usemtl m_0
f 81/201/51 82/202/51 83/203/51 84/204/51
f 85/205/52 81/206/52 84/207/52 86/208/52
f 87/209/53 85/210/53 86/211/53 88/212/53
f 82/213/54 87/214/54 88/215/54 83/216/54
f 82/217/55 81/218/55 85/219/55 87/220/55
o base
v -1 -1 4
v 2 -1 4
v 2 -0.5625 4
v -1 -0.5625 4
v -1 -1 -3
v -1 -0.5625 -3
v 2 -1 -3
v 2 -0.5625 -3
vt 0.3125 0.4375
vt 0.6875 0.4375
vt 0.6875 0.5
vt 0.3125 0.5
vt 0.3125 0.4375
vt 0.6875 0.4375
vt 0.6875 0.5
vt 0.3125 0.5
vt 0.3125 0.4375
vt 0.6875 0.4375
vt 0.6875 0.5
vt 0.3125 0.5
vt 0.3125 0.4375
vt 0.6875 0.4375
vt 0.6875 0.5
vt 0.3125 0.5
vt 0.7421875 0.6328125
vt 0.7421875 1
vt 0.0078125 1
vt 0.0078125 0.6328125
vt 0.7421875 0.6328125
vt 0.7421875 1
vt 0.0078125 1
vt 0.0078125 0.6328125
vn 0 0 1
vn -1 0 0
vn 0 0 -1
vn 1 0 0
vn 0 1 0
vn 0 -1 0
usemtl m_0
f 89/221/56 90/222/56 91/223/56 92/224/56
f 93/225/57 89/226/57 92/227/57 94/228/57
f 95/229/58 93/230/58 94/231/58 96/232/58
f 90/233/59 95/234/59 96/235/59 91/236/59
f 96/237/60 94/238/60 92/239/60 91/240/60
f 90/241/61 89/242/61 93/243/61 95/244/61
o cube
v 1.75 -0.0625 -1.625
v 1.75 -0.0625 -2.9375
v 1.75 -0.5625 -1.625
v 1.75 -0.5625 -2.9375
v 1 -0.0625 -1.625
v 1 -0.0625 -2.9375
v 1 -0.5625 -1.625
v 1 -0.5625 -2.9375
vt 0.671875 0.34375
vt 0.671875 0.40625
vt 0.5078125 0.40625
vt 0.5078125 0.34375
vt 0.5078125 0.34375
vt 0.5078125 0.40625
vt 0.671875 0.40625
vt 0.671875 0.34375
vt 0.6953125 0.171875
vt 0.6953125 0.3359375
vt 0.6015625 0.3359375
vt 0.6015625 0.171875
vt 0.59375 0.2734375
vt 0.59375 0.3359375
vt 0.5 0.3359375
vt 0.5 0.2734375
vn 1 0 0
vn -1 0 0
vn 0 1 0
vn 0 0 -1
usemtl m_0
f 100/245/62 98/246/62 97/247/62 99/248/62
f 103/249/63 101/250/63 102/251/63 104/252/63
f 97/253/64 98/254/64 102/255/64 101/256/64
f 104/257/65 102/258/65 98/259/65 100/260/65
o base1
v -0.75 0.25 -0.5
v -0.75 0.25 -1.625
v -0.75 -0.5625 -1.625
v -0.75 -0.5625 -0.5
v 1.75 -0.5625 -1.625
v 1.75 0.25 -1.625
v 1.75 0.25 -0.5
v 1.75 -0.5625 -0.5
v -0.5 1 -1.625
v 1.5 1 -1.625
v 0.125 1.5 -1.625
v 0.875 1.5 -1.625
v 1.5 1 -0.5
v 0.875 1.5 -0.5
v 0.125 1.5 -0.5
v -0.5 1 -0.5
vt 0.84375 0.34375
vt 0.7187499983125 0.34375
vt 0.71875 0.3046875
vt 0.84375 0.3046875
vt 0.71875 0.3046875
vt 0.7187499983125 0.34375
vt 0.84375 0.34375
vt 0.84375 0.3046875
vt 0.1875 0.15625
vt 0.1875 0.2109375
vt 0.5 0.2109375
vt 0.5 0.15625
vt 0.5 0.15625
vt 0.1875 0.15625
vt 0.1875 0.2109375
vt 0.5 0.2109375
vt 0.1875 0.1875
vt 0.21875 0.28125
vt 0.46875 0.28125
vt 0.5 0.1875
vt 0.21875 0.28125
vt 0.296875 0.34375
vt 0.390625 0.34375
vt 0.46875 0.28125
vt 0.21875 0.28125
vt 0.296875 0.34375
vt 0.390625 0.34375
vt 0.46875 0.28125
vt 0.21875 0.28125
vt 0.46875 0.28125
vt 0.5 0.1875
vt 0.1875 0.1875
vt 0.71875 0.34375
vt 0.7187499983125 0.4296875
vt 0.84375 0.4296875
vt 0.84375 0.34375
vt 0.71875 0.546875
vt 0.7187499983125 0.6171875
vt 0.84375 0.6171875
vt 0.84375 0.546875
vt 0.71875 0.4296875
vt 0.7187499983125 0.515625
vt 0.84375 0.515625
vt 0.84375 0.4296875
vt 0.71875 0.4296875
vt 0.7187499983125 0.515625
vt 0.84375 0.515625
vt 0.84375 0.4296875
vt 0.71875 0.34375
vt 0.7187499983125 0.4296875
vt 0.84375 0.4296875
vt 0.84375 0.34375
vn -1 0 0
vn 1 0 0
vn 0 0 -1
vn 0 0 1
vn 0 0 -1
vn 0 0 -1
vn 0 0 1
vn 0 0 1
vn 0.948683298050514 0.316227766016838 0
vn 0 1 0
vn 0.6246950475544243 0.7808688094430304 0
vn -0.6246950475544243 0.7808688094430304 0
vn -0.948683298050514 0.316227766016838 0
usemtl m_0
f 105/261/66 106/262/66 107/263/66 108/264/66
f 109/265/67 110/266/67 111/267/67 112/268/67
f 107/269/68 106/270/68 110/271/68 109/272/68
f 111/273/69 105/274/69 108/275/69 112/276/69
f 106/277/70 113/278/70 114/279/70 110/280/70
f 113/281/71 115/282/71 116/283/71 114/284/71
f 117/285/72 118/286/72 119/287/72 120/288/72
f 117/289/73 120/290/73 105/291/73 111/292/73
f 110/293/74 114/294/74 117/295/74 111/296/74
f 119/297/75 118/298/75 116/299/75 115/300/75
f 118/301/76 117/302/76 114/303/76 116/304/76
f 120/305/77 119/306/77 115/307/77 113/308/77
f 105/309/78 120/310/78 113/311/78 106/312/78
o base2
v -0.75 0.25 2
v -0.75 0.25 0.875
v -0.75 -0.5625 0.875
v -0.75 -0.5625 2
v 1.75 -0.5625 0.875
v 1.75 0.25 0.875
v 1.75 0.25 2
v 1.75 -0.5625 2
v -0.5 1 0.875
v 1.5 1 0.875
v 0.125 1.5 0.875
v 0.875 1.5 0.875
v 1.5 1 2
v 0.875 1.5 2
v 0.125 1.5 2
v -0.5 1 2
vt 0.84375 0.0703125
vt 0.7187499983125 0.0703125
vt 0.71875 0.015625
vt 0.84375 0.015625
vt 0.1875 0.15625
vt 0.1875 0.2109375
vt 0.5 0.2109375
vt 0.5 0.15625
vt 0.5 0.15625
vt 0.1875 0.15625
vt 0.1875 0.2109375
vt 0.5 0.2109375
vt 0.1875 0.1875
vt 0.21875 0.28125
vt 0.46875 0.28125
vt 0.5 0.1875
vt 0.21875 0.28125
vt 0.296875 0.34375
vt 0.390625 0.34375
vt 0.46875 0.28125
vt 0.21875 0.28125
vt 0.296875 0.34375
vt 0.390625 0.34375
vt 0.46875 0.28125
vt 0.21875 0.28125
vt 0.46875 0.28125
vt 0.5 0.1875
vt 0.1875 0.1875
vt 0.71875 0.0625
vt 0.7187499983125 0.1484375
vt 0.84375 0.1484375
vt 0.84375 0.0625
vt 0.71875 0.546875
vt 0.7187499983125 0.6171875
vt 0.84375 0.6171875
vt 0.84375 0.546875
vt 0.71875 0.1484375
vt 0.7187499983125 0.234375
vt 0.84375 0.234375
vt 0.84375 0.1484375
vt 0.71875 0.1484375
vt 0.7187499983125 0.234375
vt 0.84375 0.234375
vt 0.84375 0.1484375
vt 0.71875 0.0625
vt 0.7187499983125 0.1484375
vt 0.84375 0.1484375
vt 0.84375 0.0625
vt 0.84375 0.0703125
vt 0.7187499983125 0.0703125
vt 0.71875 0.015625
vt 0.84375 0.015625
vn -1 0 0
vn 0 0 -1
vn 0 0 1
vn 0 0 -1
vn 0 0 -1
vn 0 0 1
vn 0 0 1
vn 0.948683298050514 0.316227766016838 0
vn 0 1 0
vn 0.6246950475544243 0.7808688094430304 0
vn -0.6246950475544243 0.7808688094430304 0
vn -0.948683298050514 0.316227766016838 0
vn 1 0 0
usemtl m_0
f 121/313/79 122/314/79 123/315/79 124/316/79
f 123/317/80 122/318/80 126/319/80 125/320/80
f 127/321/81 121/322/81 124/323/81 128/324/81
f 122/325/82 129/326/82 130/327/82 126/328/82
f 129/329/83 131/330/83 132/331/83 130/332/83
f 133/333/84 134/334/84 135/335/84 136/336/84
f 133/337/85 136/338/85 121/339/85 127/340/85
f 126/341/86 130/342/86 133/343/86 127/344/86
f 135/345/87 134/346/87 132/347/87 131/348/87
f 134/349/88 133/350/88 130/351/88 132/352/88
f 136/353/89 135/354/89 131/355/89 129/356/89
f 121/357/90 136/358/90 129/359/90 122/360/90
f 126/361/91 127/362/91 128/363/91 125/364/91