# Blender v2.92.0 OBJ File: ''
# www.blender.org
mtllib steam_turbine.mtl
o base_1
v -1.758559 0.250009 -4.003994
v 0.741439 0.250009 -4.003994
v 0.741439 0.238116 -4.998666
v -1.758560 0.238116 -5.003803
v -2.004281 -0.565615 -6.003993
v -2.000000 1.000006 -5.990743
v 1.000000 1.000005 -5.990743
v 0.991439 -0.562492 -6.003994
v -1.258561 1.651440 0.196006
v -1.258561 1.651440 -1.203994
v -1.757939 1.651440 -1.207905
v -1.758561 1.651440 0.196006
v -1.508560 1.000000 -1.503994
v -0.883561 1.500000 -1.503994
v -0.133561 1.500000 -1.503994
v 0.491439 1.000000 -1.503994
v 0.491439 1.000000 -2.864664
v -0.133561 1.500000 -2.864664
v -0.883561 1.500000 -2.864664
v -1.508560 1.000000 -2.864664
v 0.741439 0.250001 -1.503994
v 0.491439 1.000000 -0.391972
v 0.741439 0.250000 -0.391972
v -1.258561 0.250000 0.196006
v -1.258561 0.750000 0.196006
v -1.258721 0.750000 0.871017
v -1.258721 0.250000 0.871017
v -1.758561 1.250000 -0.303994
v -1.758561 1.250000 -0.704632
v -1.258561 1.250000 -0.703994
v -1.258561 1.250000 -0.303994
v 0.741439 0.250001 -2.864664
v -1.758561 0.250001 -2.864664
v 0.991277 -0.000000 0.996016
v 0.991277 1.000000 0.996016
v 0.491277 1.000000 0.996016
v 0.491277 -0.000000 0.996016
v -1.758561 0.250000 0.196006
v -1.758561 0.250000 -0.303994
v -1.258561 0.250000 -0.303994
v -1.508560 1.000008 -4.003994
v 0.491277 0.000000 -0.003984
v 0.991277 0.000000 -0.003984
v 0.491439 -0.562492 -3.503994
v 0.491439 0.993227 -3.503994
v 0.491439 0.993219 -1.503994
v 0.491439 -0.562500 -1.503994
v -1.258561 1.250000 0.196006
v -1.258561 1.250000 -1.203994
v -1.508561 -0.562500 -1.503994
v -1.508561 0.993219 -1.503994
v -1.508561 0.993227 -3.503994
v -1.508561 -0.562492 -3.503994
v 0.866277 -0.562500 0.733506
v 0.866277 -0.000000 0.746017
v 0.866277 -0.000000 0.871017
v 0.866277 -0.562500 0.858506
v 0.616278 -0.562500 0.858506
v 0.616278 -0.000000 0.871017
v 0.616278 -0.000000 0.746017
v 0.616278 -0.562500 0.733506
v 0.741439 -0.562500 -2.864664
v -1.758561 -0.562500 -2.864664
v -1.508560 1.000000 -0.391972
v -1.758560 0.250000 -0.391973
v -1.758560 0.250001 -1.503994
v -1.758722 0.250000 0.871017
v -1.758722 0.750000 0.871017
v -1.758561 0.750000 0.196006
v -0.133561 1.500008 -4.003992
v -0.883561 1.500008 -4.003992
v 0.991277 1.000000 -0.003984
v 0.491277 1.000000 -0.003984
v -0.883561 1.500000 -0.391972
v -0.133561 1.500000 -0.391972
v -1.133721 0.125000 0.871017
v -1.133721 0.875000 0.871017
v -1.133721 0.875000 0.996016
v -1.133721 0.125000 0.996016
v 0.491439 1.000008 -4.003994
v -1.883722 0.125000 0.996016
v -1.883722 0.875000 0.996016
v -1.883722 0.875000 0.871017
v -1.883722 0.125000 0.871017
v -1.758559 -0.562492 -4.003994
v 0.991439 -0.994432 0.996006
v 0.991439 -0.562500 0.996006
v -2.008562 -0.562500 0.996006
v -2.008562 -1.002500 0.996006
v -2.008562 -1.002492 -6.003994
v 0.991439 -0.994443 -6.003994
v 0.866277 -0.562500 0.121016
v 0.866277 -0.000000 0.121016
v 0.866277 -0.000000 0.246017
v 0.866277 -0.562500 0.246017
v 0.741439 -0.562492 -4.003994
v 0.616278 -0.000000 0.246017
v 0.616278 -0.562500 0.246017
v -1.758561 0.782473 -0.703994
v -1.258561 0.787501 -0.703994
v -1.758560 -0.562499 -1.503994
v 0.741439 -0.562499 -1.503994
v 0.616278 -0.000000 0.121016
v 0.616278 -0.562500 0.121016
v 0.741439 -0.562500 -0.391972
v -1.758560 -0.562500 -0.391973
v -1.758560 1.250000 -1.203990
v -1.758561 1.250000 0.196006
v 1.000000 1.000005 -4.997368
v -2.000000 1.000006 -4.997368
v -1.758560 -0.574385 -5.003803
v 1.000000 -0.562492 -4.997368
v -2.000000 -0.568737 -5.010618
v 0.741439 -0.574385 -4.998666
v -1.258561 1.651440 -1.203994
v -1.259181 0.775000 -1.200079
v -1.758560 0.775000 -1.203990
v -1.259181 0.775000 -1.200079
v -1.259183 0.782473 -0.700083
v -1.258561 1.250000 0.196006
v -1.258561 1.250000 -1.203994
vt 0.013954 0.429512
vt 0.292969 0.429752
vt 0.292687 0.348776
vt 0.014765 0.348836
vt 0.239052 0.175195
vt 0.240477 0.322286
vt 0.429455 0.322286
vt 0.426605 0.176234
vt 0.994762 0.692945
vt 0.994762 0.882167
vt 0.942074 0.882167
vt 0.942074 0.692945
vt 0.218750 0.281250
vt 0.296875 0.343750
vt 0.390625 0.343750
vt 0.468750 0.281250
vt 0.218750 0.281250
vt 0.296875 0.343750
vt 0.390625 0.343750
vt 0.468750 0.281250
vt 0.718750 0.328125
vt 0.718750 0.429703
vt 0.843750 0.429703
vt 0.843750 0.328125
vt 1.000000 0.687500
vt 0.937500 0.687500
vt 0.937500 0.890625
vt 1.000000 0.890625
vt 0.994762 0.687037
vt 0.994762 0.888075
vt 0.942074 0.888075
vt 0.942074 0.687037
vt 0.187500 0.187500
vt 0.500000 0.187500
vt 0.906250 0.500000
vt 0.906250 0.625000
vt 0.968750 0.625000
vt 0.968750 0.500000
vt 0.846835 0.893129
vt 0.846835 0.800584
vt 0.899681 0.800584
vt 0.899681 0.893129
vt 0.718704 0.093918
vt 0.718704 0.195496
vt 0.843704 0.195496
vt 0.843704 0.093918
vt 0.968750 0.500000
vt 0.906250 0.500000
vt 0.906250 0.625000
vt 0.968750 0.625000
vt 0.098425 0.734080
vt 0.098425 0.859080
vt 0.371506 0.859080
vt 0.371506 0.734080
vt 0.993889 0.689856
vt 0.993889 0.885329
vt 0.941202 0.885329
vt 0.941202 0.689856
vt 0.101563 0.736328
vt 0.101563 0.890625
vt 0.357422 0.890625
vt 0.357422 0.736328
vt 0.906250 0.796875
vt 0.906250 0.859375
vt 0.921875 0.859375
vt 0.921875 0.796875
vt 0.095703 0.734375
vt 0.095703 0.896484
vt 0.355469 0.896484
vt 0.355469 0.734375
vt 0.906250 0.796875
vt 0.906250 0.859375
vt 0.921875 0.859375
vt 0.921875 0.796875
vt 0.187500 0.156250
vt 0.500000 0.156250
vt 0.187500 0.187500
vt 0.218750 0.281250
vt 0.468750 0.281250
vt 0.500000 0.187500
vt 0.718750 0.328125
vt 0.718750 0.429703
vt 0.843750 0.429703
vt 0.843750 0.328125
vt 0.187500 0.187500
vt 0.500000 0.187500
vt 1.000000 0.687500
vt 0.937500 0.687500
vt 0.937500 0.890625
vt 1.000000 0.890625
vt 0.718750 0.531250
vt 0.718750 0.625000
vt 0.843750 0.625000
vt 0.843750 0.531250
vt 0.906250 0.500000
vt 0.843750 0.500000
vt 0.843750 0.625000
vt 0.718750 0.531250
vt 0.843750 0.531250
vt 0.296875 0.343750
vt 0.390625 0.343750
vt 1.000000 0.687500
vt 0.937500 0.687500
vt 0.937500 0.890625
vt 1.000000 0.890625
vt 1.000000 0.687500
vt 0.937500 0.687500
vt 0.937500 0.890625
vt 1.000000 0.890625
vt 0.994762 0.683131
vt 0.994762 0.884169
vt 0.942074 0.884169
vt 0.942074 0.683131
vt 0.843750 0.500000
vt 0.968750 0.625000
vt 0.937500 0.625000
vt 0.843750 0.625000
vt 0.843750 0.640625
vt 0.937500 0.640625
vt 0.718765 0.195358
vt 0.718765 0.296906
vt 0.843765 0.296906
vt 0.843765 0.195358
vt 0.937500 0.640625
vt 0.843750 0.640625
vt 0.843750 0.625000
vt 0.937500 0.625000
vt 0.718704 0.093918
vt 0.718704 0.195496
vt 0.843704 0.195496
vt 0.843704 0.093918
vt 0.718765 0.020355
vt 0.718765 0.051605
vt 0.843765 0.051605
vt 0.843765 0.020355
vt 0.843750 0.640625
vt 0.843750 0.734375
vt 0.937500 0.734375
vt 0.937500 0.640625
vt 0.937500 0.625000
vt 0.937500 0.640625
vt 0.906250 0.796875
vt 0.906250 0.859375
vt 0.937500 0.859375
vt 0.937500 0.796875
vt 0.718765 0.195358
vt 0.718765 0.296906
vt 0.843765 0.296906
vt 0.843765 0.195358
vt 0.843750 0.625000
vt 0.843750 0.640625
vt 0.218750 0.281250
vt 0.296875 0.343750
vt 0.390625 0.343750
vt 0.468750 0.281250
vt 0.312500 0.437500
vt 0.312500 0.500000
vt 0.687500 0.500000
vt 0.687500 0.437500
vt 0.000031 0.437500
vt 0.000031 0.500000
vt 0.125000 0.500000
vt 0.125000 0.437500
vt 0.625000 0.625000
vt 0.625000 0.999969
vt 0.750000 0.999969
vt 0.750000 0.625000
vt 0.125000 0.625000
vt 0.125000 0.999969
vt 0.000031 0.999969
vt 0.000031 0.625000
vt 0.000031 0.437500
vt 0.000031 0.500000
vt 0.125000 0.500000
vt 0.125000 0.437500
vt 0.312500 0.437500
vt 0.312500 0.500000
vt 0.687500 0.500000
vt 0.687500 0.437500
vt 0.906250 0.796875
vt 0.906250 0.859375
vt 0.921875 0.859375
vt 0.921875 0.796875
vt 0.187500 0.187500
vt 0.500000 0.187500
vt 0.718765 0.020355
vt 0.718765 0.051605
vt 0.843765 0.051605
vt 0.843765 0.020355
vt 0.906250 0.796875
vt 0.906250 0.859375
vt 0.937500 0.859375
vt 0.937500 0.796875
vt 0.993991 0.882312
vt 0.945922 0.882312
vt 0.945922 0.777514
vt 0.993991 0.777514
vt 0.187500 0.156250
vt 0.500000 0.156250
vt 0.843750 0.500000
vt 0.843750 0.625000
vt 0.906250 0.625000
vt 0.906250 0.796875
vt 0.906250 0.859375
vt 0.921875 0.859375
vt 0.921875 0.796875
vt 0.000031 0.500000
vt 0.000031 0.625000
vt 0.125000 0.625000
vt 0.125000 0.500000
vt 0.718750 0.296875
vt 0.843750 0.296875
vt 0.718750 0.531250
vt 0.843750 0.531250
vt 0.718750 0.625000
vt 0.843750 0.625000
vt 0.187500 0.156250
vt 0.500000 0.156250
vt 0.906250 0.796875
vt 0.906250 0.859375
vt 0.937500 0.859375
vt 0.937500 0.796875
vt 0.906250 0.796875
vt 0.906250 0.859375
vt 0.937500 0.859375
vt 0.937500 0.796875
vt 0.718750 0.296875
vt 0.843750 0.296875
vt 0.939244 0.694977
vt 0.995167 0.694977
vt 0.995167 0.880739
vt 0.939244 0.880739
vt 0.939244 0.787858
vt 0.995252 0.906556
vt 0.999492 0.708929
vt 0.940509 0.708622
vt 0.939669 0.908397
vt 0.843525 0.937113
vt 0.843525 0.842630
vt 0.750358 0.842630
vt 0.750358 0.937113
vt 0.601074 0.155420
vt 0.601074 0.033203
vt 0.222284 0.033203
vt 0.222284 0.155420
vt 0.012289 0.429687
vt 0.134529 0.429687
vt 0.134195 0.353515
vt 0.013908 0.353515
vt 0.243201 0.173622
vt 0.452049 0.173629
vt 0.452049 0.284024
vt 0.242448 0.284032
vt 0.450455 0.282100
vt 0.450455 0.163000
vt 0.243560 0.165405
vt 0.245261 0.284136
vt 0.458415 0.167338
vt 0.458415 0.277756
vt 0.230827 0.277760
vt 0.232928 0.167333
vt 0.133050 0.349657
vt 0.133050 0.427734
vt 0.000000 0.427687
vt 0.000000 0.349609
vt 0.940332 0.703127
vt 0.996319 0.702799
vt 0.997794 0.861773
vt 0.942130 0.861542
vt 0.939749 0.913460
vt 0.937500 0.782837
vt 1.000000 0.782837
vt 0.998637 0.913460
vt 0.994762 0.882167
vt 1.000000 0.873717
vt 0.942279 0.873967
vt 0.942279 0.727852
vt 1.000000 0.727852
vt 1.000000 0.820371
vt 1.000000 0.705371
vt 0.945703 0.705371
vt 0.945703 0.820371
vt 0.950000 0.780000
vt 1.000000 0.780000
vt 1.000000 0.700000
vt 0.950000 0.700000
vt 0.993889 0.689856
vt 0.993889 0.885329
vt 0.940047 0.780000
vt 1.000000 0.780000
vt 1.000000 0.689844
vt 0.942000 0.690000
vn 0.0000 0.9999 -0.0119
vn -0.0000 0.0085 -1.0000
vn -0.0000 1.0000 0.0000
vn 0.0000 0.0000 -1.0000
vn 0.0000 -0.0000 1.0000
vn 0.9487 0.3162 0.0000
vn 1.0000 0.0000 0.0002
vn 0.0000 -1.0000 -0.0000
vn -0.9487 0.3162 0.0000
vn 1.0000 -0.0000 0.0000
vn -1.0000 0.0000 0.0000
vn -1.0000 -0.0000 -0.0002
vn -0.6247 0.7809 0.0000
vn 0.9823 -0.1233 0.1409
vn 0.9823 0.1233 0.1409
vn 0.6247 0.7809 0.0000
vn -0.9823 0.1233 0.1409
vn -0.9823 -0.1233 0.1409
vn -0.7363 -0.0000 0.6767
vn 0.0000 0.0222 -0.9998
vn 0.0027 -1.0000 0.0000
vn 0.9994 -0.0000 -0.0358
vn -0.0006 0.0007 1.0000
vn 0.0000 -0.0222 0.9998
vn -1.0000 0.0008 -0.0002
vn 0.7018 -0.1309 0.7003
vn -0.7033 -0.1305 0.6988
vn -0.9807 0.0143 0.1952
vn -0.6909 -0.0000 -0.7229
vn 1.0000 -0.0025 -0.0039
vn 0.7069 -0.0056 0.7073
vn 1.0000 -0.0027 -0.0043
vn -1.0000 0.0005 0.0009
vn -0.7109 -0.0033 0.7033
vn 0.7228 -0.0000 -0.6910
vn 0.9994 0.0000 0.0358
vn 0.7177 -0.0000 -0.6963
vn 1.0000 0.0000 0.0078
vn 1.0000 -0.0000 -0.0039
vn 0.7068 -0.7074 0.0087
vn 0.3337 0.9426 0.0148
vn 0.7074 0.7068 0.0024
vn -0.2577 -0.5833 0.7703
vn 0.2726 -0.6370 0.7211
vn 0.2726 -0.6369 0.7211
vn 0.0012 -0.9999 0.0130
vn 0.0000 0.0000 0.0000
vn 1.0000 -0.0007 -0.0006
usemtl steam_turbine
s off
f 1/1/1 2/2/1 3/3/1 4/4/1
f 5/5/2 6/6/2 7/7/2 8/8/2
s 1
f 9/9/3 10/10/3 11/11/3 12/12/3
f 13/13/4 14/14/4 15/15/4 16/16/4
f 17/17/5 18/18/5 19/19/5 20/20/5
f 21/21/6 16/22/6 22/23/6 23/24/6
f 24/25/7 25/26/7 26/27/7 27/28/7
f 28/29/8 29/30/8 30/31/8 31/32/8
f 32/33/5 17/17/5 20/20/5 33/34/5
f 34/35/5 35/36/5 36/37/5 37/38/5
f 38/39/8 39/40/8 40/41/8 24/42/8
f 33/43/9 20/44/9 41/45/9 1/46/9
f 42/47/8 43/48/8 34/49/8 37/50/8
f 44/51/10 45/52/10 46/53/10 47/54/10
f 48/55/10 49/56/10 10/57/10 9/58/10
f 50/59/11 51/60/11 52/61/11 53/62/11
f 54/63/10 55/64/10 56/65/10 57/66/10
f 45/67/3 52/68/3 51/69/3 46/70/3
f 58/71/11 59/72/11 60/73/11 61/74/11
f 62/75/5 32/33/5 33/34/5 63/76/5
f 23/77/5 22/78/5 64/79/5 65/80/5
f 65/81/9 64/82/9 13/83/9 66/84/9
f 66/85/4 13/13/4 16/16/4 21/86/4
f 67/87/12 68/88/12 69/89/12 38/90/12
f 70/91/3 71/92/3 19/93/3 18/94/3
f 72/95/3 73/96/3 36/97/3 35/36/3
f 64/82/13 74/98/13 14/99/13 13/83/13
f 22/78/5 75/100/5 74/101/5 64/79/5
f 25/102/3 69/103/3 68/104/3 26/105/3
f 38/106/8 24/107/8 27/108/8 67/109/8
f 39/110/4 28/111/4 31/112/4 40/113/4
f 37/114/11 36/97/11 73/115/11 42/47/11
f 76/116/10 77/117/10 78/118/14 79/119/15
f 80/120/16 70/121/16 18/122/16 17/123/16
f 81/124/17 82/125/18 83/126/11 84/127/11
f 2/128/6 80/129/6 17/130/6 32/131/6
f 63/132/11 33/133/11 1/134/19 85/135/11
f 84/136/4 83/137/4 77/138/4 76/139/4
f 77/140/3 83/126/3 82/125/18 78/141/14
f 61/142/20 60/143/20 55/144/20 54/145/20
f 20/146/13 19/147/13 71/148/13 41/149/13
f 84/127/8 76/150/8 79/151/15 81/124/17
f 41/152/4 71/153/4 70/154/4 80/155/4
f 86/156/5 87/157/5 88/158/5 89/159/5
f 89/160/11 88/161/11 5/162/11 90/163/11
f 8/164/3 5/165/3 88/166/3 87/167/3
f 90/168/21 91/169/21 86/170/21 89/171/21
f 91/172/10 8/173/10 87/174/10 86/175/10
f 90/176/4 5/177/4 8/178/4 91/179/4
f 92/180/10 93/181/10 94/182/10 95/183/10
f 1/184/4 41/152/4 80/155/4 2/185/4
f 96/186/10 2/187/22 32/188/10 62/189/10
f 95/190/5 94/191/5 97/192/5 98/193/5
f 99/194/23 100/195/23 30/196/23 29/197/23
f 101/198/4 66/85/4 21/86/4 102/199/4
f 42/200/4 73/201/4 72/202/4 43/48/4
f 98/203/11 97/204/11 103/205/11 104/206/11
f 43/207/10 72/208/10 35/209/10 34/210/10
f 102/211/10 21/21/10 23/24/10 105/212/10
f 16/22/16 15/213/16 75/214/16 22/23/16
f 15/213/3 14/215/3 74/216/3 75/214/3
f 105/217/5 23/77/5 65/80/5 106/218/5
f 57/219/24 56/220/24 59/221/24 58/222/24
f 104/223/4 103/224/4 93/225/4 92/226/4
f 106/227/11 65/81/11 66/84/11 101/228/11
f 24/229/10 40/230/10 31/231/10 48/232/10 25/233/10
f 12/234/25 11/235/25 107/236/25 108/237/25
f 79/238/15 78/239/14 82/240/18 81/241/17
f 109/242/26 7/243/3 6/244/3 110/245/27
f 85/246/11 1/247/19 4/248/28 111/249/29
f 7/250/30 109/251/26 112/252/31 8/253/32
f 110/254/27 6/255/33 5/256/33 113/257/34
f 109/258/26 110/259/27 113/260/34 112/261/31
f 3/262/35 2/263/10 96/264/36 114/265/37
f 39/266/11 38/267/11 108/268/11 28/269/11
f 12/270/5 69/271/5 25/272/5 9/273/5
f 11/11/38 10/10/5 115/274/39
f 11/275/40 115/276/41 116/277/38 117/278/42
f 107/279/11 117/280/43 99/281/44 29/282/11
f 99/283/45 117/284/43 118/285/46 119/286/46
f 49/56/47 48/55/47 120/287/47 121/288/47
f 118/289/48 121/290/48 30/291/48 100/292/48
